<?xml version="1.0" encoding="UTF-8"?><svg id="Layer_2" xmlns="http://www.w3.org/2000/svg" viewBox="0 0 427.65 574.05"><g id="Layer_1-2"><path d="M177.1,5.73c42.3.02,92.2,19.78,121.11,51.22,30.79,33.49,41.19,79.1,71.54,112.48.22,1.17,1.02,1.54,1.67,2.23.18.19.37.38.56.56,2.63,5.55,8.43,9.35,13.36,12.81,10.55,9.6,22.29,17.82,35.04,24.27-.35,1.18-1.71,3.97-2.89,4.01-4.29.16-13.6-5.42-17.85-7.22-2.88-1.22-15.9-7.5-14.75-.29.48,3.03,10.94,11.82,13.55,14.86,5.15,6.02,7.83,11.92,7.82,20.05l-12.76,6.04c-2.85-2.31-16.26-14.14-18.5-7.18-.74,2.32,1.82,9.78,2.39,12.72.27,1.4,1.56,8.25,1.17,8.91l-13.45,6.7c-2.48-1.86-12.78-14.9-15.15-7.74-1.13,3.42,2.83,12.81,3.06,17.1.09,1.77-.12,2.54-1.27,3.89-1.59,1.88-11.27,7.64-13.16,6.63-2.77-1.49-5.74-11.66-7.96-13.51-2.7-2.25-5.88,1.75-6.41,4.13-.72,3.21.81,11.02-.72,13.2-1.04,1.49-6.6,2.55-8.5,3.05-1.13-.33-9.65-18.32-13-19.32-4.65-1.38-5.36,1.27-5.17,5.16.17,3.6,3.32,15.09,2.81,17.18-.08.34-4.76,2.15-4.99,2-.48-.33-3.84-5.79-5.33-7.21-9.89-9.46-38.85-15.08-52.63-19.19-6.88-2.05-13.58-4.79-20.6-6.41l13-4.53c13.45-7,28.25-15.31,34.34-29.98,17.79,6.29,34.85-10.83,37.22-27.63,2.17-15.38-6.61-32.28-24.33-27.11-2.82.82-5.11,3.06-7.89,3.51.98-6.56,2.17-13.1,1.69-19.78-1.28-17.77-12.42-31.99-21.63-46.3-1.8-2.8-3.41-9.27-7.61-9.12-3.74.14-4.5,5.02-5.46,7.97-.64,1.98-1.31,8.49-3.49,8.8l-36.37-7.34c-.88-9.66-3.7-18.96-9.87-26.6-2.38-2.94-6.66-6.79-9.02-1.87l-5.7,35.23-18.55-1.09c-2.39-7.96-7.53-30.57-14.89-34.77s-7.25,7.42-8.59,11.92c-2.03,6.85-4.59,13.6-6.94,20.35l-33.66.85c-.37-.06-.8-3-.88-3.66-.51-4.17-1.08-10.32-1.14-14.44-.05-3.49,3.02-13.63-2.91-12.47-1.49.29-8.62,5.33-10.14,6.61-8.98,7.6-14.01,17.06-16.72,28.37-.68,2.84-.79,7.08-1.64,9.5-.74,2.1-5.03,6.72-6.54,9.61-8.33,16-9.03,32.69-6.53,50.18,2.39,16.75,4.53,34.41,13.98,48.94,8.03,12.35,24.3,22.45,38.87,24.59-7.18,3.31-13.86,7.33-20.05,12.24-2.78,2.21-7.11,8.16-10.76,6.88-2.38-.84-4.56-15.17-7.02-17.88-1.15-1.27-3.99-1.35-5.07-.01-2.14,2.66-3.52,12.16-3.86,15.76l-10.53-.06c-3.16-10.44-6.11-21.38-5-32.45.34-3.44,3.41-10.16,2.61-12.76-.58-1.88-3.85-2.78-5.14-.9-3.86,5.61-7.02,12.41-11.22,17.73-.97,1.23-4.66,5.34-5.82,5.92-1.73.86-4.67-3.67-5.51-4.96,10.17-10.84,16.88-27.07,20.39-41.44,4.21-17.19,2.4-32.68,3.1-49.93,1.92-47.28,8.94-79.53,45.79-111.08,24.32-20.82,47.04-36.79,78.76-44.28,4.11-.97,9.28-1.23,12.87-2.17.91-.24,1.35-1.37,1.61-1.44,1.41-.36,5.41,0,7.24,0Z" fill="#fddd70"/><path d="M177.1,5.73c-1.18-6.56,7.12-5.79,11.44-5.59,39.54,1.79,87.26,23.28,114.12,52.36,31.19,33.75,41.77,80.17,72.08,113.33,11.85,12.96,27.06,25.83,42.32,34.52,9.68,5.51,14.48,3.58,6.78,16.23-.8,1.31-1.05,2.51-2.69,2.84-7.38,1.46-14.04-3.52-20.78-5.43,7.95,6.88,10.9,14.01,12.16,24.31.32,2.58,1.48,5.37-1.05,7.11-5,1.24-13.33,7.81-18.07,8.14-3.74.26-7.24-5.79-10.85-7.27.12,3.91,3.93,14.66,2.49,17.81-.47,1.02-3.09,2.43-4.16,3.08-2.38,1.44-13.31,7.09-15.47,7.4-3.81.55-4.65-2.6-7.36-4.34.29,4.19,2.98,9.07.3,12.83-3.06,4.29-8.84,7.77-13.68,9.7-8.19,3.27-8.49,2.88-13.22-3.99-.34-.49.09-1.04-1.24-.73.27,6.37-.81,8.25-6.39,10.59-3.02,1.27-10.94,4.26-13.35,1.63l-5.31-9.44c.19,4.3,3.22,9.22-1.48,12.17-1.14.72-5.06,1.62-5.51,2.29-.32.47-.65,9.26-.98,11.27-.71,4.42-4.25,17.71-7.35,20.49-6.52,5.86-9.46-7.41-12.82-10.58-3.35-3.16-18.92-5.54-24.11-6.51-14.61-2.73-29.53-4.23-44.1-7.12-8.6-1.71-15.84-5.11-24.47-6.14,1.96,4.01,4.68,15.87,7.54,18.62,3.15,3.03,13.03,4.03,18.07,8.09,5.45,4.39,7.56,12.36,1.93,17.55-1.7,1.57-6.53,3.15-6.41,5.24s5.18,11.3,6.39,14.27c4.26,10.46,8.2,21.12,8.66,32.58.06,1.55-.06,2.27-.88,3.57-1.83,2.91-7.42,5.78-9.49,8.33s.27,12.76,1.28,16.07c2.54,8.29,7.66,10.59,6.83,20.43-.43,5.14-6.54,19.5-9.78,23.62-2.58,3.29-6.57,6.91-11.07,6.75-8.95-.32-7.88-10.27-10.45-16.88-5.02-12.94-14.69-24.52-21.42-36.61-6.63.67-12.74.56-19.37,0-28.07-2.36-55.58-11.62-78.61-27.77-1.07-.17-3.87,4.85-4.9,6.06-3.47,4.05-7.38,7.21-12.52,8.63-8.11,2.24-12.8-.6-15.87-8.09-2.25-5.5-3.92-11.41-6.31-17.07-6.87-16.27-17.48-28.86-13.65-47.31.42-2-.8-2.66,1.58-5.21,3.35-3.59,10.69-7.35,14.78-11.39,5.03-4.97,9.83-11.7,14.72-17.02s10.88-10.26,15.6-16.14c.97-1.9-1.39-2.02-2.62-4.06-.8-1.33-2.81-7.86-3.23-8.18-2.05.74-.6,2.83-.75,4.09-1.03,8.86-3.58,5.68-9.55,5.39-2.81-.14-9.99.78-11.67-1.14-1.38-1.59-4.52-12.77-5.13-15.47-1.33-5.88-2.11-11.89-1.85-17.92-2.64,3.13-10.04,12.83-14.19,12.84-.87,0-1.43-.28-2.16-.66-1.13-.59-8.22-7.7-8.95-8.86-3.11-4.93,2.61-7.58,5.25-10.84,8.74-10.81,17.39-36.83,18.38-50.66.78-10.97-.43-22.87-.02-33.98,1.08-29.19,5.07-57.13,19.61-82.83C59.86,52.91,112.01,14.64,142.78,6.21c4.92-1.35,17.91-4.78,22.4-4.88,2.9-.06,5.35,1.14,4.68,4.4-.26.07-.71,1.2-1.61,1.44-3.59.94-8.76,1.2-12.87,2.17-31.73,7.5-54.44,23.46-78.76,44.28-36.85,31.55-43.87,63.8-45.79,111.08-.7,17.25,1.1,32.73-3.1,49.93-3.52,14.37-10.23,30.61-20.39,41.44.84,1.29,3.79,5.82,5.51,4.96,1.16-.58,4.84-4.69,5.82-5.92,4.2-5.32,7.36-12.12,11.22-17.73,1.3-1.88,4.57-.98,5.14.9.8,2.6-2.27,9.33-2.61,12.76-1.11,11.07,1.84,22.01,5,32.45l10.53.06c.34-3.59,1.73-13.1,3.86-15.76,1.08-1.34,3.92-1.25,5.07.01,2.46,2.71,4.64,17.04,7.02,17.88,3.65,1.28,7.98-4.67,10.76-6.88,6.19-4.91,12.87-8.93,20.05-12.24-14.57-2.15-30.84-12.25-38.87-24.59-9.45-14.53-11.59-32.18-13.98-48.94-2.5-17.49-1.8-34.18,6.53-50.18,1.51-2.89,5.79-7.51,6.54-9.61.85-2.41.96-6.65,1.64-9.5,2.71-11.31,7.75-20.77,16.72-28.37,1.51-1.28,8.65-6.32,10.14-6.61,5.93-1.16,2.86,8.98,2.91,12.47.06,4.13.63,10.27,1.14,14.44.08.66.5,3.59.88,3.66l33.66-.85c2.35-6.75,4.91-13.5,6.94-20.35,1.33-4.5,1.38-16.04,8.59-11.92s12.5,26.81,14.89,34.77l18.55,1.09,5.7-35.23c2.35-4.92,6.64-1.07,9.02,1.87,6.17,7.64,8.99,16.94,9.87,26.6l36.37,7.34c2.17-.32,2.84-6.82,3.49-8.8.96-2.94,1.72-7.83,5.46-7.97,4.19-.15,5.81,6.32,7.61,9.12,9.21,14.31,20.34,28.54,21.63,46.3.48,6.69-.71,13.23-1.69,19.78,2.78-.46,5.07-2.69,7.89-3.51,17.71-5.17,26.5,11.74,24.33,27.11-2.37,16.81-19.43,33.93-37.22,27.63-6.1,14.67-20.89,22.98-34.34,29.98l-13,4.53c7.02,1.62,13.72,4.35,20.6,6.41,13.78,4.11,42.74,9.74,52.63,19.19,1.49,1.43,4.86,6.88,5.33,7.21.22.15,4.9-1.65,4.99-2,.51-2.09-2.64-13.59-2.81-17.18-.19-3.89.52-6.54,5.17-5.16,3.35.99,11.88,18.99,13,19.32,1.91-.5,7.46-1.56,8.5-3.05,1.52-2.19,0-10,.72-13.2.53-2.37,3.71-6.37,6.41-4.13,2.22,1.84,5.19,12.02,7.96,13.51,1.89,1.01,11.57-4.75,13.16-6.63,1.15-1.36,1.36-2.12,1.27-3.89-.22-4.29-4.19-13.68-3.06-17.1,2.36-7.17,12.67,5.88,15.15,7.74l13.45-6.7c.39-.66-.9-7.51-1.17-8.91-.56-2.94-3.13-10.4-2.39-12.72,2.23-6.96,15.65,4.87,18.5,7.18l12.76-6.04c0-8.13-2.67-14.04-7.82-20.05-2.6-3.04-13.06-11.83-13.55-14.86-1.15-7.21,11.87-.93,14.75.29,4.25,1.81,13.57,7.38,17.85,7.22,1.19-.04,2.54-2.83,2.89-4.01-12.75-6.45-24.49-14.68-35.04-24.27-4.49-4.09-9.05-8.68-13.36-12.81-.19-.18-.38-.37-.56-.56-.19-1.19-1.06-1.56-1.67-2.23-30.35-33.38-40.74-78.98-71.54-112.48-28.91-31.44-78.8-51.19-121.11-51.22ZM259.5,226.21c4.04-4.37,6.07,1.98,11.95,1.68,17.14-.88,30.01-25.93,20.25-40.28-5.79-8.51-18.61-5.14-23.2,2.78-.74,1.27-1.23,4.15-2.34,4.9-2.02,1.35-5.56,1.37-6.41-1.34-.95-3.06,2.24-11.75,2.93-15.5,4.84-26.4-5.42-39.55-19.22-60.06-.8-1.19-1.32-4.5-2.38-2.18-1.56,3.42-1.65,12.96-5.91,13.59-14.05-2.94-28.16-7.51-42.51-8.5-3.76-1.18-3.86-12.1-4.82-15.78-.41-1.57-1.11-3.44-1.73-4.95-.36-.88-3.16-6.6-3.45-6.85-.37-.33-1.42-.1-1.12.8l-5.14,31.06c-.78,1.67-2.25,2.46-4.02,2.67-4.81.57-16.51-.55-21.73-1.13-6.05-.67-4.44-5.26-5.56-10.03-1.88-7.96-4.37-15.98-8.92-22.82-2.35,8-4.45,16.35-7.65,24.08-.83,2-1.52,4.87-3.55,5.92-2.74,1.41-17.38.54-21.67.61-4.99.07-12.66,1.58-17.53.32-2.68-.69-3.08-2.33-3.63-4.72-1.57-6.76-.57-14.3-1.52-20.76-.08-.57-.19-1.83-1.17-1.48-3.14,1.13-10.83,10.54-12.45,13.73-1.39,2.76-4.62,11.04-5.03,13.9-.35,2.48.12,4.91-.4,7.39-.82,3.86-5.65,8.33-7.73,12.31-5.62,10.76-6.05,19.71-8.14,31.11-.06.34-1.11.86,0,1.67-.11.48.11,1.18,0,1.67s-1.6,1.29.56,1.11c.05.87.06,1.92,0,2.78-.04.48-1.71,1.95.56,1.67.18,2.37,1.02,4.16,1.11,6.12.16,3.32.51,8.32,2.23,12.81-.02,7.52,1.71,14.95,4.47,21.87.23.57,1.07.35,1.1.4.11.21-.11,1.2.14,1.78,2,4.59,4.07,9.25,7.1,13.25.46.6.84.79,1.11,1.11,10.65,12.35,24.18,17.5,40.09,18.93,3.75.34,8.96,1.11,12.53,1.11h9.47c.31,0,1.14.89,2.16.53,1.41-.49,0-4.57,4.41-3.21,1.25.38,2.65,3.85,3.74,5.17,5.4,6.49,14.77,3.57,20.05-1.63,2.27-2.24,3.43-6.96,7.38-5.76,2.81.85.74,4.72.95,4.9l37.6-.53c3.67-.38,7.23-.98,10.83-1.69,13.75-2.72,30.43-11.76,39.52-22.56,2-2.38,3.41-5.37,5.28-7.54.55-.64,1.82-1.03,1.9-1.17.15-.25-.37-3.14-.48-3.25ZM162.06,269.08c-3.13-.78-4.2,1.46-6.51,2.67-5.7,2.97-12.34,4.23-18.49,1.45-1.95-.88-3.92-3.9-5.38-4.13s-2.66.62-3.87.57c-8.84-.34-16.62-2.57-25.48.13-29.23,8.93-48.61,44.52-70.86,63.88-1.47,1.28-10.02,6.88-9.73,8.07.09.38,5.28,4.22,6.13,5.02,12.52,11.73,20.98,25.86,32.3,38.41,31.27,34.69,107.48,50.05,147.26,24.24.81-.53,6.72-5.94,6.82-6.47-.5-11.63-4.71-22.67-9.61-33.05-1.4,1.44-8.59,6.55-8.62,8.05-.01.52,2.73,6.88,3.17,8.53.9,3.33,3.39,13.65,2.91,16.51s-3.39,3.8-5.94,2.66l-29.95-15.7c-3.32,2.37-6.03,6.46-8.89,9.46s-12.03,12.8-14.9,14.05-5.83.11-5.89-3.18c-.1-5.26,2-15.83,2.76-21.65.4-3.04,2.61-11.51,1.91-13.74-.64-2.05-16.62-15.77-19.55-18.33-2.64-2.31-17.95-11.89-10.8-15.84,2.46-1.35,11.17-1.05,14.7-1.44,8.45-.93,16.89-2.17,25.35-3.05,3.35-6.77,5.15-14.16,8.61-20.9.92-1.79,4.3-7.85,5.37-9.1,1.27-1.49,2.75-2,4.36-.61,1.48,1.28,5.39,13.74,6.29,16.53.59,1.82,2.01,8.84,2.76,9.76.34.41,10.03,2.68,10.45,2.35-4.02-9.67-8.06-19.37-10.87-29.49-7.36-3.66-22.06-7.26-23.1-16.99-.87-8.12.64-13.68,7.24-18.65ZM212.72,269.63c-.1-.12-1.85.66-3.05.61-3.56-.13-7.65-1.46-11.15-1.71-11.37-.81-40.7-.12-37.98,17.38,1,6.44,12.06,10.36,17.69,12.37,24.35,8.7,50.02,10.86,75.24,15.51,8.96,1.65,24.04,3.04,29.65,10.44l3.65,6.08c3.84-9.72,7.07-20.64,1.02-30.24-6.65-10.55-28.23-13.97-39.55-17.24-11.18-3.23-22.18-6.99-33.42-10.01-2.29-.92-1.76-2.81-2.1-3.2ZM201.6,349.81c15.98-6.14,3.7-14.86-6.69-16.7l6.69,16.7ZM59.8,393.61c-4.49-5.86-7.97-12.2-13.26-17.65-7.53-7.76-13.93-16.94-22-24.21-1.93-1.74-6.45-6.69-6.08-1.73,1.94,14.44,10.67,26.73,16.2,40.06,1.51,3.64,5.4,16.64,7.13,18.48,5.15,5.47,19.06-6.3,19.96-11.84.43-2.63-1.17-2.09-1.95-3.11ZM171.53,427.21c7.09,12.16,16.8,23.71,21.73,37.01.9,2.42,2.06,9.43,2.81,10.55,1.83,2.7,6.16-1.47,7.43-3.07,2.54-3.2,8.31-16.86,8.67-20.83.59-6.43-1.95-7.36-4.29-12.41-2.92-6.29-4.16-12.68-4.62-19.6-9.98,4.73-21.15,5.61-31.73,8.36Z" fill="#63503e"/><path d="M201.04,550.25c-1.95,23.99-36.82,33.22-49.27,11.72-9.68,8.43-20.44,11.41-33.16,8.62-14.17-3.1-15.23-19.86-4.71-27.58,3.75-2.75,13.04-2.24,10.58,2.78-1.23,2.51-3.97,1.04-5.45,1.22-5.35.63-9.11,13.51-2.23,16.48,6.92,2.99,17.37,2.15,23.92-1.46,3.2-1.77,9.25-7.93,12.15-7.95,3.5-.03,4.8,6.08,7.5,8.71,8.75,8.55,27.15,4.84,32.22-5.69,1.84-3.82,1.68-12.46,5.92-13.01,6.38-.83,10.74.59,16.73-3.87,5.5-4.1,10.38-15.96,1.4-18.66-3.77-1.13-5.57-.14-8.51-.39-4.33-.36-5-5.88.99-6.56,6.77-.77,16.84,1.71,18.41,9.43,3.09,15.31-12.03,28.12-26.47,26.2Z" fill="#64503f"/><path d="M251.54,400.59c2.74-.82,8.28,2.16,11.18,3.07,34.96,10.87,70.36,20.61,105.22,31.75,2.87.92,14.29,3.58,13.27,7.4-.89,3.33-4.22,2.07-6.57,1.49-33.83-8.23-71.06-21.12-104.43-31.98-4.7-1.53-14.35-4.03-18.14-6.36-2.19-1.34-3.17-4.57-.53-5.37Z" fill="#64503f"/><path d="M284.94,455.16c2.24-.67,5.56.37,7.86.82,10.73,2.1,25.63,6.03,35.85,9.8,4.18,1.55,12.79,5.13,4.21,8.07-15.77-5.06-31.6-10.16-47.89-13.39-2.2-.65-2.16-4.68-.03-5.31Z" fill="#64503f"/><path d="M313.86,372.22c1.12-.11,9.13,3.04,11.21,3.6,6.01,1.62,24.17,4.58,27.98,7.65,3.24,2.61,1.19,5.62-2.46,5.29-10.95-4.12-23.72-5.02-34.45-9.57-2.31-.98-6.17-2.24-4.59-5.44.29-.58,1.66-1.47,2.31-1.53Z" fill="#645140"/><path d="M120.14,490.23c1.78-.54,3.46-.06,4.17,1.73,3.8,10.09,6.82,20.51,10.59,30.61.46,1.22,1.56,2.2,1.85,3.16,1.56,5.02-4.22,7.64-6.86,1.85-4.57-10.02-6.79-23.58-11.15-33.99-.39-1.31-.05-2.93,1.39-3.37Z" fill="#645140"/><path d="M149.64,484.14c1.1-.02,2.08.68,2.55,1.66,1.19,4.84,2.37,9.72,3.91,14.46,1.25,3.83,6.24,14.62,5.29,17.86-.77,2.62-4.45,2.7-5.58.24-2.02-7.25-5.04-14.16-6.96-21.44-.84-3.19-4.61-12.66.78-12.78Z" fill="#645140"/><path d="M174.14,479.63c4.42-1.35,4.63,6.71,5.59,9.8,1.47,4.75,5.48,13.14,6.03,17.37.5,3.85-4.06,5.31-5.77,2.42-1.7-6.07-4.32-11.9-5.95-17.99-.68-2.55-3.46-10.51.11-11.6Z" fill="#645140"/><path d="M371.97,172.2c4.31,4.13,8.87,8.72,13.36,12.81-4.93-3.45-10.73-7.26-13.36-12.81Z" fill="#e3d8c2"/><path d="M371.41,171.64c-.65-.69-1.45-1.06-1.67-2.23.61.67,1.48,1.04,1.67,2.23Z" fill="#e3d8c2"/><path d="M45.7,176.65c2.09-11.4,2.52-20.36,8.14-31.11,2.08-3.98,6.91-8.45,7.73-12.31.53-2.48.05-4.91.4-7.39.41-2.86,3.63-11.15,5.03-13.9,1.61-3.19,9.3-12.6,12.45-13.73.98-.35,1.08.91,1.17,1.48.95,6.46-.05,14,1.52,20.76.56,2.39.96,4.03,3.63,4.72,4.87,1.26,12.54-.24,17.53-.32,4.28-.06,18.93.81,21.67-.61,2.03-1.04,2.72-3.92,3.55-5.92,3.2-7.73,5.31-16.07,7.65-24.08,4.55,6.84,7.04,14.86,8.92,22.82,1.13,4.77-.48,9.36,5.56,10.03,5.22.58,16.92,1.69,21.73,1.13,1.77-.21,3.24-1,4.02-2.67l5.14-31.06c-.3-.91.75-1.13,1.12-.8.29.25,3.09,5.98,3.45,6.85.62,1.51,1.32,3.39,1.73,4.95.96,3.67,1.06,14.6,4.82,15.78,14.35.99,28.46,5.55,42.51,8.5,4.26-.63,4.34-10.17,5.91-13.59,1.06-2.32,1.58.99,2.38,2.18,13.8,20.51,24.07,33.66,19.22,60.06-.69,3.75-3.88,12.44-2.93,15.5.84,2.71,4.39,2.7,6.41,1.34,1.11-.74,1.61-3.62,2.34-4.9,4.59-7.92,17.42-11.29,23.2-2.78,9.75,14.35-3.11,39.4-20.25,40.28-5.87.3-7.91-6.04-11.95-1.68-.26-.25-6.12-1.58-6.97-1.66-1.99-.2-6.75-.3-8.62,0,1-3.19-1.85-3.38-2.54-4.44s3.22-5.36,3.17-7.17c6.14,1.05,10.82-5.35,2.71-6.22,4.48-22.87-10.73-43.97-34.23-45.11-23.48-1.14-41.48,20.04-37.46,43.03,3.2,18.35,20.59,31.34,39.1,29.92,1.95-.15,7.28-1.9,8.28-1.71.64.12.56,1.32.92,1.71-6.7,6.69-10.04,16.86-10.58,26.17-3.61.71-7.17,1.32-10.83,1.69l-37.6.53c-.21-.18,1.86-4.04-.95-4.9-3.95-1.2-5.11,3.52-7.38,5.76-5.28,5.2-14.65,8.12-20.05,1.63-1.1-1.32-2.49-4.78-3.74-5.17-4.41-1.36-3,2.73-4.41,3.21-1.03.36-1.85-.53-2.16-.53h-9.47c-3.57,0-8.78-.78-12.53-1.11.69-7.28-2.42-14.01-6.95-19.49-.87-1.05-8.06-8.19-8.64-8.34.77-.68.38-3.13.57-3.32.22-.22,4.97-.55,6.12-.84,31.66-7.86,43.26-48.61,15.19-68.12-2.33-1.62-9.63-6.8-10.67-1.36-.68,3.59,3.35,3.69,5.66,5.25,29.8,20.13,10.35,63.15-23.56,58.63-27.84-3.71-36.53-38.06-15.04-55.67,3.46-2.84,12.65-7.51,16.99-7.51h10.58c1.4,0,3.23-5.5-2.21-6.14-18.16-2.11-36.73,10.37-41.89,27.73-.88,2.96-.71,6.56-2.39,9.03-.09-1.97-.93-3.76-1.11-6.12-.05-.6.19-1.41-.56-1.67.06-.87.05-1.91,0-2.78-.03-.47-.02-.97-.56-1.11.11-.49-.11-1.19,0-1.67.02-.1,1.47-1.05,0-1.67ZM74.5,133.64c2.26-2.31-1.45-6.39-5.95-3.45-1.94,1.26-6.22,5.13-5.5,7.65,1.29,4.53,6.33-.97,7.75-2.06.99-.76,3.24-1.67,3.7-2.14ZM213.63,130.05c-2.32.27-3.63,3.4-1.78,4.9.73.59,2.3.62,3.31,1.14,1.98,1.01,6.49,4.65,8.43,2.73,3.83-3.81-6.79-9.12-9.97-8.76ZM81.14,186.28c-4.91.25-7.01,7.92-2.79,11.45,7.36,6.15,14.85-5.16,8.76-9.31-.71-.48-5.18-2.17-5.97-2.13ZM284.47,195.11c-2.07-1.3-10.3,3.62-12.18,5.19-2.24,1.87-9.99,11.86-3.55,11.98,3.23.06,3.7-5.73,6.91-6.11.39,2.38-1.3,7.8,1.98,8.35,4.62.77,3.83-5.32,3.55-8.58-.09-1.06-1.15-2.7-1-3.33.35-1.48,4.91-1.15,4.96-5.06,0-.5-.38-2.25-.66-2.43ZM140.77,229.11c-8.82,1.23-10.36,11.04-9.2,18.4.43,2.7,2.93,8.47,6.31,6.02,2.74-1.99-.46-4.96-.83-7.61-.49-3.55-.28-10.91,4.7-10.85s8.82,14.68,5.78,18.64c-1.53,2-5.7.52-4.96,5.03.62,3.77,6.47,1.67,8.37.05,8.78-7.48,1.03-31.24-10.17-29.68Z" fill="#fcfbfa"/><path d="M162.06,269.08c-6.6,4.97-8.11,10.53-7.24,18.65,1.04,9.73,15.74,13.33,23.1,16.99,2.81,10.13,6.85,19.82,10.87,29.49-.43.32-10.11-1.94-10.45-2.35-.76-.92-2.17-7.94-2.76-9.76-.91-2.79-4.81-15.25-6.29-16.53-1.61-1.39-3.09-.88-4.36.61-1.07,1.25-4.45,7.31-5.37,9.1-3.46,6.74-5.26,14.12-8.61,20.9-8.46.88-16.9,2.12-25.35,3.05-3.53.39-12.25.09-14.7,1.44-7.16,3.95,8.15,13.53,10.8,15.84,2.93,2.56,18.91,16.29,19.55,18.33.7,2.23-1.51,10.71-1.91,13.74-.77,5.82-2.86,16.39-2.76,21.65.06,3.29,3.04,4.42,5.89,3.18s12.17-11.18,14.9-14.05,5.57-7.09,8.89-9.46l29.95,15.7c2.56,1.14,5.45.28,5.94-2.66s-2.01-13.18-2.91-16.51c-.44-1.64-3.18-8.01-3.17-8.53.03-1.5,7.22-6.61,8.62-8.05,4.9,10.38,9.11,21.43,9.61,33.05-.1.53-6.01,5.94-6.82,6.47-39.78,25.81-115.99,10.45-147.26-24.24-11.32-12.55-19.78-26.68-32.3-38.41-.86-.8-6.04-4.64-6.13-5.02-.29-1.19,8.25-6.79,9.73-8.07,22.25-19.35,41.63-54.95,70.86-63.88,8.86-2.71,16.64-.47,25.48-.13,1.21.05,2.41-.8,3.87-.57s3.43,3.25,5.38,4.13c6.14,2.78,12.78,1.52,18.49-1.45,2.32-1.21,3.38-3.45,6.51-2.67Z" fill="#fdfdfc"/><path d="M212.72,269.63c.35.39-.18,2.28,2.1,3.2,11.24,3.02,22.24,6.78,33.42,10.01,11.32,3.27,32.9,6.69,39.55,17.24,6.05,9.6,2.82,20.52-1.02,30.24l-3.65-6.08c-5.61-7.4-20.69-8.79-29.65-10.44-25.23-4.65-50.89-6.81-75.24-15.51-5.63-2.01-16.69-5.93-17.69-12.37-2.72-17.5,26.61-18.2,37.98-17.38,3.5.25,7.59,1.58,11.15,1.71,1.2.05,2.95-.73,3.05-.61Z" fill="#fcfcfb"/><path d="M47.92,191.69c1.67-2.47,1.5-6.07,2.39-9.03,5.16-17.36,23.73-29.85,41.89-27.73,5.44.63,3.61,6.14,2.21,6.14h-10.58c-4.34,0-13.52,4.67-16.99,7.51-21.5,17.61-12.8,51.97,15.04,55.67,33.92,4.52,53.36-38.5,23.56-58.63-2.31-1.56-6.34-1.66-5.66-5.25,1.04-5.44,8.34-.26,10.67,1.36,28.06,19.51,16.47,60.26-15.19,68.12-1.16.29-5.91.61-6.12.84-.19.2.2,2.65-.57,3.32-.17-.05-2.05.97-3.53.48-1.39-.46-1.43-3.28-2.45-3.82-.79-.42-8.85-1.92-9.5-1.55-.98.57-.96,3.7-4.73,2.56-2.96-.9-.52-4.47-.95-6.02-.07-.25-3.47-2.45-3.89-2.56-1.74-.48-4.18,1.37-5.63-.45s.28-3.67-.03-4.96c-.11-.43-4.2-5.79-5.02-7.25-1.02-1.83-1.94-3.99-2.69-5.94-1.72-4.48-2.07-9.49-2.23-12.81Z" fill="#645241"/><path d="M171.53,427.21c10.58-2.75,21.74-3.63,31.73-8.36.46,6.93,1.7,13.31,4.62,19.6,2.34,5.04,4.88,5.97,4.29,12.41-.37,3.97-6.13,17.64-8.67,20.83-1.27,1.6-5.6,5.77-7.43,3.07-.76-1.12-1.92-8.13-2.81-10.55-4.93-13.3-14.63-24.85-21.73-37.01Z" fill="#fbfaf9"/><path d="M59.8,393.61c.78,1.02,2.38.48,1.95,3.11-.9,5.54-14.81,17.32-19.96,11.84-1.74-1.84-5.62-14.84-7.13-18.48-5.53-13.33-14.26-25.62-16.2-40.06-.36-4.96,4.15,0,6.08,1.73,8.06,7.27,14.47,16.45,22,24.21,5.28,5.45,8.77,11.79,13.26,17.65Z" fill="#fbfaf9"/><path d="M67.41,225.65c.43,1.54-2.01,5.12.95,6.02,3.77,1.15,3.75-1.98,4.73-2.56.64-.37,8.71,1.13,9.5,1.55,1.02.54,1.07,3.36,2.45,3.82,1.48.49,3.35-.52,3.53-.48.58.16,7.77,7.29,8.64,8.34,4.53,5.48,7.64,12.22,6.95,19.49-15.91-1.43-29.44-6.58-40.09-18.93l-1.11-1.11c-3.03-4-5.09-8.66-7.1-13.25-.25-.58-.03-1.57-.14-1.78,3.68-1.69,7.77-.99,11.69-1.11Z" fill="#f6c2b9"/><path d="M259.5,226.21c.12.11.63,3,.48,3.25-.08.13-1.35.53-1.9,1.17-1.87,2.16-3.28,5.16-5.28,7.54-9.09,10.8-25.77,19.85-39.52,22.56.54-9.31,3.88-19.48,10.58-26.17,3.06,3.31,4.93.08,5.01-3.34.82-.77,1.66-1.53,2.66-2.08,1.51-.83,6.4-3.03,7.92-3.49.4-.12,4.22-1.08,4.45-1.11,1.87-.29,6.64-.19,8.62,0,.84.09,6.71,1.42,6.97,1.66Z" fill="#f7c3b9"/><path d="M201.6,349.81l-6.69-16.7c10.39,1.84,22.67,10.56,6.69,16.7Z" fill="#f5f3f2"/><path d="M67.41,225.65c-3.92.13-8.01-.58-11.69,1.11-.03-.05-.87.17-1.1-.4-2.76-6.92-4.49-14.35-4.47-21.87.75,1.95,1.67,4.11,2.69,5.94.82,1.46,4.92,6.82,5.02,7.25.32,1.29-1.36,3.21.03,4.96s3.89-.03,5.63.45c.42.11,3.82,2.31,3.89,2.56Z" fill="#eeeae8"/><path d="M46.81,185.56c-2.26.28-.59-1.19-.56-1.67.74.26.51,1.07.56,1.67Z" fill="#645241"/><path d="M45.7,178.33c-1.11-.81-.06-1.33,0-1.67,1.47.62.02,1.57,0,1.67Z" fill="#645241"/><path d="M46.25,181.11c-2.16.18-.66-.64-.56-1.11.54.15.53.64.56,1.11Z" fill="#645241"/><path d="M64.07,242.91c-.28-.32-.66-.51-1.11-1.11l1.11,1.11Z" fill="#645241"/><path d="M223.86,234.56c-.36-.39-.27-1.59-.92-1.71-1-.19-6.32,1.56-8.28,1.71-18.51,1.42-35.9-11.57-39.1-29.92-4.01-22.99,13.99-44.17,37.46-43.03,23.49,1.14,38.71,22.24,34.23,45.11,8.1.87,3.42,7.27-2.71,6.22.05,1.81-3.83,6.14-3.17,7.17s3.53,1.25,2.54,4.44c-.23.04-4.05.99-4.45,1.11-.57-.51-1.67-1.74-2.43-1.61-.39.07-5.25,4.25-6.2,4.95-.69.5-1.84.61-2.28,1.11-.57.62.34,1.07.33,1.12-.08,3.42-1.95,6.65-5.01,3.34ZM207.59,167.9c-38.12,4.32-33.02,63.29,5.96,60.53,40.56-2.88,35.64-65.24-5.96-60.53Z" fill="#645241"/><path d="M140.77,229.11c11.2-1.56,18.96,22.2,10.17,29.68-1.9,1.62-7.75,3.72-8.37-.05-.74-4.51,3.43-3.04,4.96-5.03,3.04-3.97-.63-18.58-5.78-18.64s-5.19,7.31-4.7,10.85c.37,2.64,3.57,5.62.83,7.61-3.38,2.45-5.88-3.32-6.31-6.02-1.16-7.35.37-17.17,9.2-18.4Z" fill="#665443"/><path d="M284.47,195.11c.28.17.66,1.93.66,2.43-.05,3.92-4.61,3.59-4.96,5.06-.15.63.91,2.27,1,3.33.28,3.26,1.07,9.36-3.55,8.58-3.28-.55-1.59-5.96-1.98-8.35-3.2.38-3.67,6.17-6.91,6.11-6.44-.12,1.32-10.11,3.55-11.98,1.88-1.57,10.11-6.49,12.18-5.19Z" fill="#665443"/><path d="M81.14,186.28c.78-.04,5.26,1.65,5.97,2.13,6.09,4.16-1.39,15.46-8.76,9.31-4.22-3.53-2.12-11.19,2.79-11.45Z" fill="#64503f"/><path d="M213.63,130.05c3.18-.36,13.8,4.95,9.97,8.76-1.94,1.93-6.45-1.72-8.43-2.73-1.02-.52-2.59-.54-3.31-1.14-1.85-1.5-.55-4.63,1.78-4.9Z" fill="#665443"/><path d="M74.5,133.64c-.46.47-2.71,1.38-3.7,2.14-1.42,1.09-6.46,6.59-7.75,2.06-.72-2.52,3.56-6.38,5.5-7.65,4.5-2.94,8.21,1.14,5.95,3.45Z" fill="#665443"/><path d="M239.45,225.65c-1.52.45-6.41,2.66-7.92,3.49-1,.55-1.84,1.31-2.66,2.08,0-.06-.9-.5-.33-1.12.45-.49,1.6-.6,2.28-1.11.95-.7,5.81-4.89,6.2-4.95.75-.13,1.86,1.1,2.43,1.61Z" fill="#eeeae8"/><path d="M207.59,167.9c41.61-4.72,46.52,57.64,5.96,60.53-38.98,2.77-44.09-56.2-5.96-60.53ZM201.79,199.28c3.67,4.16,10.74,1.19,10.97-4.53.25-6.26-4.03-6.56-9.09-5.17-4.08,1.12-4.38,6.86-1.88,9.7Z" fill="#fcfbfa"/><path d="M201.79,199.28c-2.5-2.83-2.21-8.58,1.88-9.7,5.07-1.39,9.35-1.08,9.09,5.17-.23,5.71-7.3,8.68-10.97,4.53Z" fill="#645241"/></g></svg>