<?xml version="1.0" encoding="UTF-8"?><svg id="Layer_2" xmlns="http://www.w3.org/2000/svg" viewBox="0 0 373.73 367.75"><g id="Layer_1-2"><path d="M223.49,3.05c10.33,2.41,21.12,4.28,32.38,5.61,32.32,7.6,70.47,42.48,89.4,69.17,31.03,43.76,32.59,104.4,3.8,149.76-18.64,26.3-35.01,53.82-33.79,87.3.17,2.6-1.26,2.97-3.41,3.49-8.39,2.03-12.93-22.74-13.94-28.25-2.88-8.88-3.76,12.81-3.51,14.27l-.95,6.83c-.33,13.2-11.11,18.14-12.11,2.34.6-45.57-8.94-8.93-10.73,10.98-11.23,4.72-18.43-.4-20.98-11.52,6.22-20.34-6.43-38.33-20.86-51.85-1.59-2.15-2.34-3.81.22-4.87,21.33-3.47,32.74-17.56,44.39-33.37,8.89,2.93,15.64,4.84,24.37-.61,10.75-6.71,15.6-21.57,10.28-33.19-4.66-10.18-14.9-11.19-24.57-9.47-.16-17.98-6.1-32.82-16.99-46.92,1.55-8.76,1.96-17.5,1.25-26.22-4.05,2.9-8.08,5.86-12.1,8.87-12.3-11.96-26.52-19.88-42.3-26.49l-.68-2.4c1.55-27.4-2.66-21.45-12.17-3.57-2.34,2.94-6.11,3.74-11.29,2.38-4.71-.32-27.77-2.69-30.44-3.8-1.43-.6-1.93-3.27-1.74-4.82.96-6.43,1.8-12.84,2.5-19.23-3.18-.19-12.74,19.63-14.18,23.39-2,5.97-37.51,13.61-39.29,12.48-3.3-2.11-.57-18.2.49-21.96l3.71-8.63c-3.53-3.89-19.6,35.54-18.97,39.49-10.85,10.69-20.26,24.18-22.55,39.74l-2.05,1.37c.78.21,1.93.53,2,1.15.29,2.54.46,20.19,0,21.87l-2,1.44c-.91.25-1.88.29-2.71-.22-1.92-1.19-8.55-15.41-8.82-18.25-4.31-45.01,31.81-90.57,66.18-116.01,31.25-23.13,61.16-26.71,98.14-30.26.54.35,3.15-.35,3.99,0Z" fill="#ffde71"/><path d="M223.49,3.05c.94-2.06,2.09-3,4.45-3.05,7.2-.14,31.8,5.33,39.27,7.77,25.44,8.3,54.46,35.75,72.16,55.66,30.63,34.47,40.83,81.44,30.44,126.33-9.44,40.76-42.41,64.88-49.17,106.6-.73,4.51-1.06,23.02-1.76,24.2-1.58,2.69-8.53,2.34-11.24,1.23-4.86-1.98-6.13-8.43-10.23-11.22.02,3.47-1.9,14.36-4.7,16.03-2.37,1.4-11.4.87-13.33-.51-1.7-1.21-.67-3.95-.96-5.54l-.55-8.72-.45.73c-2.88,3.62-.77,13.79-2.9,16.56-2.41,3.13-8.34-1.11-12.07,1.42l13.97,23.46c1.38.84,3.88.61,5.53.54,13.88-.6,27.99-2.64,41.87-3.09,11.56-.37,32.31-1.45,43.03,0,5.36.72,5.79,5.07.92,6.01-10.22,1.97-30.27-.43-41.96-.01-59.93,2.14-116.76,9.71-177.76,7.07-25.4-1.1-48.86-5.19-74.91-4.08-21.31.9-42.91,5.8-63.87,7.03-3.1.18-9.39,1.31-9.27-2.67.15-4.89,8.08-2.94,11.26-3.32,24.33-2.92,51.55-7.73,75.89-8.05,4.02-.05,7.51,1.38,11.5,1.07-.23-16.38.27-32.94,4-48.92-4.49.09-22.61-7.33-24.44-10.03-.48-.71-.48-2.05-.54-2.96-2.82,4.75-15.39-1.19-15.97-4.49s1.18-7.72-2.49-10.47c-3.49,3.45-1.13,8.15-7.75,6.77-12.97-2.71-9.07-14.16-8.73-23.76-6.64,3.29-9.21,5.04-14.47-.99-8.19-9.39-1.36-8.49,3.49-13.49,3.04-3.14,3.61-7.86,6.71-10.96-3.25-4.16-2.89-12.77-5.26-16.44-3.12-4.84-11.42-5.75-15.31-13.65-2.8-5.69-.92-6.6-1.43-10.73-.61-4.87-4.01-11.5-.18-16.59,1.1-1.46,3.4-2.05,3.98-3.01,1.51-2.54.05-7.25,3.64-11.34,2.53-2.89,7.45-3.41,7.74-3.74.67-.76-.2-13.58.12-16.36,1.3-11.4,11.88-13.34,19.96-6.49-.57-21.81,10.41-41.73,21.96-59.43C103.16,32.21,146.85,3.5,201.98,1.01c3.37-.15,14.43-.62,16.86.03,1.06.28.57,1.95.66,2.01.02,2.69-1.18,2.81-3.44,3.05-25.37,2.72-41.75,2.25-66.14,12.75-44.23,19.04-97.83,78.38-92.9,129.34.43,4.43,6.45,15.9,9.69,19.6v-24.46c0-10.41,8.7-25.76,15.01-33.92,2.04-2.64,6.45-5.52,7.84-8.14,2.03-3.83,3.11-12.4,5.26-17.71s8.03-16.53,11.38-20.57c2.05-2.48,6.33-3.52,6.04.48-.15,2-3.53,6.93-4.33,10.21-.59,2.43-2,17.42-1.24,18.22,8.12-3.01,29.96-5.23,35.93-10.5,1.5-1.32,5.64-12.17,7.59-15.38,1.72-2.83,10.93-17.07,11.49-7.58.2,3.36-4.15,19.45-2.08,21.48,12.57-.18,24.84,3.76,37.29,3.82,2.87-.99,7.94-14.6,11.08-16.87,9.81-7.1,6.43,16.23,6.74,20.87,15.36,5.87,30.28,13.64,41.27,26.1,2.15-1.91,10.41-12.12,13.48-8.97.4.41,1.09,10.02,1.07,11.5-.06,4.3-2.68,12.21-2.09,15.91.23,1.44,6.7,9.18,8.18,11.87,5.53,10.01,9.43,23.25,7.83,34.61,10.28-5.5,23.01,1.39,26.44,11.99,6.11,18.85-9.34,40.27-29.71,36.7-2.16-.38-6.13-2.9-7.14-2.82-.86.07-8.33,12.06-10.06,14.05-9.11,10.51-21.76,17.28-35.46,19.45,12.04,11.13,24.2,25.72,24.96,42.96.18,4.15-2.27,11.84-1.82,13.75.13.56,6.31,8.98,6.82,9.23,1.54.74,8.73-.99,10.97-.56.75-9.16,1.45-19.06,4.73-27.72,3.77-9.96,8.15-6.91,9.14,2.4.64,6-.91,16.38,1.13,21.6.46,1.18,2.91,1.96,3.99,1.31,1.92-1.15,3.45-12.32,3.85-15.19.6-4.32.41-14.96,1.29-17.68.7-2.17,4.07-2.38,5.35-.66,3.58,4.79,2.41,28.15,14.46,28.96-.58-14.08,2.04-28.56,6.54-41.89,8.43-24.97,27.19-42.68,37.27-66.58,15.65-37.12,13.59-80.71-5.33-116.2-15.27-28.63-61.47-72.37-93.19-80.56-9.85-2.54-23.51-2.8-32.47-5.5-1.84-.55-2.46-2.69-2.69-2.79Z" fill="#5f4c3a"/><path d="M278.41,320.55c-.57-3.13-.81-4.55-1-7.99-.11-1.96-2.5-4.76.99-5.99v13.98Z" fill="#816f5f"/><path d="M74.69,201.74c-1.8-11.65-.56-17.81-.95-28.5-.72-19.84-4.56-31.47,6.14-50.68,3.49-6.26,14.47-16.22,16.03-19.92,1.74-4.14,1.42-11.21,3.76-15.71l3.64,11.02c14.67-2.12,30.35-5.48,43.82-11.99l6.44-13.01c.24,3.73-1.21,9.53,2.7,11.78l36.78,5.18,7.77-.94,7.67-11.03c1.35,3.87-1.68,10.43,1,13.48,1.27,1.45,18.03,7.84,21.9,10.05,2.85,1.63,7.03,4.38,9.55,6.43,8.43,6.87,12.96,20.01,23.48,6.97,2.12,4.45-3.51,16.64-2.84,19.27.19.76,7.98,9.44,9.64,12.38,3.45,6.09,7.8,17.88,8.18,24.79.28,5.2-2.71,15.11.53,19.42s4.51-3.05,5.43-4.51c4.13-6.51,12.85-3.96,17.03,1.03,11.26,13.42-1.92,36.83-19.42,34.39-6.38-.89-8.65-10.84-13.55-2.93l-2.43.41c-6.71-3.86-14.56-5.58-23.55-5.15l-.98-2.25.42-2.81c30.48-24.94-.57-70.98-36.09-53.04-33.11,16.73-14.38,67.36,21.23,60.32l2.46,1.52,1.35,1.7c-8.18,10.68-10.08,20.98-5.7,30.92l-.64,2.33c-13.57,2.59-25.72,2.09-39.44.99-11.17-.9-13.6-2.12-25.03-1.04-15.95,1.5-16.4-2.3-28.73-6.11-7.44-2.3-16.32-2.42-24.64-4.82l-.86-2.6c7.91-15.05.87-33.13-16.52-36.08l-1.59-2.26c-2.22-4.44,3.92-11.08,7.55-13.93,7.28-5.71,20.54-7.76,27.87-1.49,5.49-1.96-11-14.43-13.94-15.9-5.83-2.91-24.61-5.77-28.57.39,8.46-2.8,18.36-3.27,26.66.72s11.79,9.51.11,9.24c-10.6,1.24-20.76,8.64-22.5,19.61l-2.16,1.36c-1.06,2.89-7.55,3.93-8.99,1Z" fill="#fff"/><path d="M124.62,251.66c6.47,1.41,5.38.63,11.61,3.87,1.68.87,4.82,1.35,5.76,2.01,1.7,1.2.44,9.73,8.61,12.58,10.5,3.67,17.28-4.28,19.98-13.48,10.98,3.18,22.25,2.57,33.48,2.96,1.86.06,3.57.91,5.06.95,3.61.08,7.4-1.92,11.67-.68,7.91,2.3,22.72,23.86,24.98,31.93,7.3,26.06-9.98,38.42-32.87,42.62-2.61.48-9.4-.98-9.41,3.61-.01,5.29,13.36.99,14.02,1.51-14.41,23.2,13.84,6.07,19.35,7.16,1.86.36,6.37,9.14,8.61,10.8l-9.45,1.05c-43.27-.54-86.68,1.92-129.62-4.03-2.6-1.41-1.93-16.03-1.78-19.51,1.23-28.79,11.17-55.58,20.01-82.33-.46-.31-.45-.64,0-1Z" fill="#fff"/><path d="M124.62,251.66v1c-4.56-3.38-6.64,4.03-8.16,7.31-4.42,9.56-7.31,21.47-9.82,31.62-1.33.35-1.78-.39-2.68-.81-5.38-2.52-17.85-11.01-23.2-14.74-19.33-13.5-36.64-30.97-40.02-55.33,2.35,1.33,10.6,1.73,9.92-2.38-.6-3.62-11.7-2.37-14.92-4.63,3.42-6.69,1.8-11.69-.06-18.4,2.98.3,5.33-3.57,5.68-3.6,1.93-.2,10.2,3.14,11.34-.46,1.72-5.42-13-2.7-14-10.03-.52-3.84,2.71-8.87,6.61-9.42,2.42-.34,7.4,2.11,7.45-2.52.06-5.73-10.46-1.65-11.92-2.6-.87-.57-4.03-13.2-4.15-15.32-.29-5.07.37-15.48,8-12,4.42,2.02,9.74,19.58,12.13,24.82,3.46,7.57,7.79,11.27,9.59,20.36,3.42,17.23-.18,30.08,11.84,45.07,12.75,15.91,27.55,17.97,46.35,22.05Z" fill="#fff"/><path d="M269.43,218.71c-12.32,19.89-19.21,29.23-43.94,33.95-5.92-6.39-4.39-15.46-1.48-22.95l6.48-11.99c.46-2.88,9.45-7.58,11.98-5.99,9.67,2.3,19.21-1.21,26.96,6.99Z" fill="#fac4ba"/><path d="M83.68,200.74c.34-2.97,4.22-2.82,4.99,0,20.87,2.54,29.2,23.19,18.97,40.94-22.73-6.57-29.46-17.33-32.96-39.94,3.12-.18,5.77-.94,8.99-1Z" fill="#fac4ba"/><path d="M79.68,282.61c-.81.46-1.81.8-3,1-2.01,1.67-3.9,6.73-8.01,2.51-1.64-1.68-.88-13.39-7.69-15.33-7.2-2.04-7.69,6.3-9.8,6.81-6.14,1.48-1.7-17.88-1.45-20.96,9.15,9.6,19.34,18.03,29.95,25.96Z" fill="#fcdc70"/><path d="M269.43,355.5l-21.97,1.99c3.54-1.45,5.84-13.84,6.6-14.03.46-.12,9.03-.7,9.44-.46.68.4,6.82,11.66,5.94,12.51Z" fill="#fbfbfa"/><path d="M34.7,164.83c4.18,6.52-1.44,8.85-1.61,14.6-.1,3.55,1.87,5.35,2.62,7.86.45,1.49-.1,1.67-1.48,1.48-8.4-1.14-12.89-25.16.46-23.95Z" fill="#f9f8f7"/><path d="M81.68,283.61c7.99,2.97,13.84,9.72,21.93,12.52,3.94,5.5-3.42,3.12-6.93,1.93-1.56-.53-12.27-5.21-12.75-5.71-1.71-1.82-.91-8.1-2.25-8.74Z" fill="#fada6f"/><path d="M31.88,252.79c.13-.23,3.09-1.51,4.39-3.09,1.88-2.27,2.57-5.15,4.96-7.02l5.46,9.49c-.04.64-10.78,5.23-11.65,5.31-2.01.19-4.15-3.01-3.17-4.69Z" fill="#fada6f"/><path d="M148.59,258.66c4.95-.39,10.29.99,14.97-1-1.25,9.1-14.46,11.47-14.97,1Z" fill="#f4f3f1"/><path d="M29.61,192.88c.72,1.24.02,3.33-1.48,3.78-5.97,1.8-9.78-11.68-7.35-15.89l4.54,8.92c.34,1.69,4.12,2.87,4.3,3.18Z" fill="#f4f2f1"/><path d="M22.76,202.75c2.13,1.17,8.62-1.29,8.98-1.02.17.13,1.05,3.52.87,4.29-1.39,5.76-8.53-.25-9.85-3.27Z" fill="#f3f1ef"/><path d="M79.68,282.61c.95.08,1.45.8,2,1-.84-.4-3.72.28-4.99,0,1.18-.98,1.31-1.15,3-1Z" fill="#d4b862"/><path d="M242.46,211.72c-3.04,2.18-8.44,5.14-11.98,5.99-40.49,9.66-60.19-46.87-23.65-64.08,38.72-18.24,70.11,33.39,35.63,58.09Z" fill="#5f4c3a"/><path d="M159.24,231.36c-4.23,4.25-15.77,5.66-17.42-1.37-1.1-4.7.95-8.91.69-13.62-.59-10.4-12.06-22.28.59-30.6,3.93-2.58,11.1-1.31,14.88,1.11,9.53,6.1,8.72,37,1.27,44.48Z" fill="#5f4c3b"/><path d="M83.68,200.74c1.13-14.83,16.6-24.6,30.96-22.97-5.95-7.11-16.45-8.86-25.38-7.9-3.14.34-12.83,5.37-9.08-2.09,3.04-6.04,24.89-2.94,30.38-.39,4.13,1.91,17.07,12.43,17.08,16.89,0,2.9-2.82,3.87-5.26,2.45-2.22-1.3-1.35-2.5-6.24-2.95-13.76-1.26-22.18,4.54-27.45,16.96-.42-.05-4.12-.02-4.99,0Z" fill="#5f4c3b"/><path d="M288.39,203.74c-1.99.87-8.25,9.73-9.9,4.37-1.15-3.76,8.76-11.93,11.99-13.77,2.8-1.6,9.61-5.33,8.96.91-.37,3.61-5.13,1.6-5.99,4.12-.49,1.42,1.04,5.31.97,7.8-.08,2.79-1.02,10.58-4.53,10.58-4.85,0-.11-10.71-1.51-14.02Z" fill="#604d3b"/><path d="M221.15,116.03c8.2-2.57,23.38,10.69,20.86,15.79-3.14,6.35-8.12-5.47-10.58-7.42-2.75-2.19-10.82-3.56-11.5-4.48-1.11-1.51-.47-3.36,1.21-3.89Z" fill="#614e3d"/><path d="M104.4,119.03c3.67-.42,4.43,3.54,2.25,5.34-1.04.86-6.79,2.28-9.3,3.68-3.09,1.73-10.01,10.04-12.21,6.83-3.77-5.5,14.79-15.33,19.26-15.85Z" fill="#614e3d"/><path d="M207.5,262.64c-.51,3.93.71,19.58,3.99,21.48,1.63.94,8.39.06,5.54,4.53-.4.64-10.59,7.12-12.44,8.53-2.8,2.14-9.89,9.51-12.45,9.4-1.98-.09-3.89-1.76-6.07-1.83-4.12-.13-14.63,3.47-16.07,7.76-2.91,8.63,4.23,5.42,4.61,9.58.27,3.01-3.54,5.4-1.57,9.46,1.86,3.83,7.82,2.24,9.57,3.42,1.43.97.61,4.15.97,4.52.45.47,6.61.02,8-.4,3.82-1.17,5.37-7.32,10.93-5.54-.74,9.13-11.58,14.33-20.26,11.77-2.53-.74-2.84-3.66-4-4.49-3.02-2.16-6.73-.22-9.9-5.58-3.23-5.47-.5-9.56-1.33-11.74-.47-1.23-2.89-1.75-3.43-4.46-2.18-10.83,7.83-18.2,17.56-19.34,2.84-.33,10.54.67,11.43.34,2.29-.86,10.75-10.14,14.5-11.43-3.36-7.07-5.58-14.56-4.62-22.52.44-3.67,1.36-3.66,5.04-3.45Z" fill="#5f4c3b"/><path d="M219.26,156.06c31.02-3.66,45.09,39.51,15.42,53.38-41.37,19.34-58.93-48.25-15.42-53.38Z" fill="#fff"/><path d="M157.58,219.71c-2.81-1.25-5.46-1.29-7.93-.15l-2.05-.85c-.14-3.08.3-6.17-.24-9.25-1.05-5.96-8.63-12.76-1.83-18.27,3.42-2.77,7.06-.4,9.61,2.51,5.52,6.31,4.09,18.71,2.45,26.01Z" fill="#f4a292"/><path d="M147.59,218.71c2.44-2.76,10.14-3.16,9.99,1-.93,4.14-2.25,9.19-7.47,9.56-4.13.29-2.36-7.23-2.51-10.56Z" fill="#fdfbfb"/><path d="M211.74,189.52c-5.38-5.38,3.21-19.7,11.29-10.79,8.44,9.32-6.77,15.31-11.29,10.79Z" fill="#604d3b"/></g></svg>