<?xml version="1.0" encoding="UTF-8"?><svg id="Layer_2" xmlns="http://www.w3.org/2000/svg" viewBox="0 0 33.19 38.74"><g id="Layer_1-2"><path d="M30.8,24.68c1.88-2.35,3.03-5.39,1.99-8.37-.09-.26-.39-.82-.35-1.05.04-.3.19-.6.22-.94.17-2.11-.99-5.71-2.01-7.58C28.55,2.85,24.23.93,20.06.17l-1.27-.17h-1.49C12.29.17,7.69,1.34,4.31,5.24,2.13,7.75.22,12.18.01,15.5c-.04.61.03,1.25,0,1.86l.14,1.07c.35,2.06.9,4.11,1.51,6.09.56,1.82,1.45,3.6,1.2,5.57-.03.25-.24.82-.11,1.01.1.16.83.43,1.03.44.22,0,.36-.13.46-.31l.38-.96c.08.3.2.59.31.88.26.63.43,1.33,1.29,1.21.65-.1.5-.97.61-1.42.27.17.43.58.48.88.03.17.01.59.1.7.14.17.68.1.87.04.46-.17.2-.85.41-1.19.23.27.38.55.46.89.05.22.01.54.23.64.31.16.79-.06.97-.34.12-.19.12-.66.34-.21.11.23.12.44.26.68.04.08.12.07.11.21-.26.77-.46,1.56-.65,2.34-.23.97-.44,1.95-.61,2.93h.48c.07,0,.04-.28.05-.35.16-1.09.52-2.46.8-3.55.28-1.09.63-2.15.99-3.21.34.4.72.75,1.29.54.61-.23,1.12-1.42,1.26-2.02.16-.7.18-1.88-.01-2.57-.06-.24-.17-.47-.28-.69,1,.08,2,.03,2.99-.15.41-.07.86-.23,1.25-.28.47-.06.59.23.98.4,1.05.46,2.42.21,3.05-.81.14-.22.2-.48.36-.67.51-.18,1.08-.52,1.59-.67.51-.15.67.18.98.52.26.28,1.19,1.34,1.26,1.65.03.13.02.29.01.42-.02.65-.17,1.34-.23,1.99-.03.35,0,.73-.03,1.06-.03.25-.1.37-.31.49-.73.41-1.75.72-2.53,1.09-.67.3-1.32.66-2,.96-.29.17-.17.52.15.57,1.3.2,2.61.02,3.87.17.34.04.33.13.32.44-.04,1.07-.23,2.15-.23,3.22.01.34.37.37.55.12l1.6-2.11c.22-.17.4.16.55.28.11.09.43.27.45.39.04.21.02.87,0,1.12-.03.56-.16,1.11-.3,1.65h.48c.07,0,.05-.22.06-.28.07-.34.2-.73.23-1.07.12-1.57-.08-3.64-.35-5.2-.16-.98-.42-1.93-.65-2.9.04-.23.65-.18.75-.54.01-.06.01-.2.01-.2.03-.03.23.03.28.03.11-.01.66-.23.78-.29.36-.2-.01-.66-.09-.97-.11-.46-.12-.97-.07-1.45.04-.39.42-.66.66-.96ZM8.18,31.26c-.02.13-.05.78-.11.83-.06.05-.23.06-.25-.05-.03-.62-.35-1.27-.82-1.67-.94-.78-.54,1.04-.75,1.41-.1.18-.41.13-.53,0-.1-.11-.22-.43-.28-.58-.33-.75-.59-1.65-.65-2.47-.02-.27.13-.77-.31-.67-.25.05-.07.54-.05.74.04.74-.37,1.49-.61,2.18-.01.03-.02.05-.05.05-.07.03-.46-.12-.54-.18,0-.32.1-.64.13-.96.09-.98-.09-1.92-.35-2.86C1.64,22.24-.47,17.94.96,12.81,2.64,6.78,6.47,2.18,12.81.94c2.26-.44,5.57-.69,7.8-.19,4.64,1.05,8.33,3,10.24,7.55.62,1.48,1.67,4.91,1.25,6.42-.01.05,0,.09-.05.12-.62-.85-1.58-1.48-2.67-1.3v-1.24c0-.13-.27-.13-.32-.22-.34-1.78-1.29-3.32-2.76-4.37-.49-.36-1.2-.8-1.75-1.05-.17-.07-.67-.21-.77-.29-.12-.1-.11-.29-.16-.43-.14-.35-.64-1.25-1.11-1.14-.28.07-.11.35-.1.53.01.16.06.81-.27.66-.08-.03-.26-.53-.34-.66-.16-.29-.64-.9-.88-1.13-.07-.06-.2-.14-.29-.15-.66-.05-.18,1.2-.3,1.43-.04.09-.44.12-.56.13-1.39.14-2.52.1-3.91.47-.26.08-.87.34-1.1.29-.12-.02-.43-.52-.55-.65-.22-.26-.82-.83-1.16-.86-.22-.02-.37.12-.4.33-.03.24,0,.69,0,.93.02.28.21.99.08,1.18-1.26.88-2.49,1.8-3.68,2.79-.26.22-.62.61-.88.78-.08.05-.19.09-.28.02-.27-.4-.52-.91-.82-1.28-.32-.38-.59-.18-.62.26-.07.84-.04,2.12.07,2.95.06.47.28,1,.1,1.44-.1.24-.29.51-.4.76-.64,1.47-.75,2.97-.6,4.55.03.3.12.63.13.93.01.11.03.25-.07.33-.1.08-.43.19-.58.28-1.59.92-1.73,2.97-1.16,4.56.53,1.5,2.25,3.41,3.63,4.2.11.06.73.33.75.37.05.07-.12.86-.14,1.02ZM11.29,32.5c-.09.07-.38-1.14-.71-1.16-.45-.03-.45,1.04-.81,1.11-.21.04-.18-.33-.23-.5-.05-.13-.15-.33-.22-.45-.11-.2-.61-.79-.61-.94,0-.07.05-.18.13-.14.72.26,1.45.49,2.21.61.15.03.66.01.7.16.05.16-.43,1.07-.46,1.31ZM14.27,29.65c-.09.41-.44,1.35-.73,1.64-.23.23-.8.45-.85-.02.03-.03.52.16.64-.11.14-.34-.74-.42-.96-.45-.99-.13-1.82-.16-2.79-.46-2.73-.85-5.73-3.65-5.49-6.73.09-1.14,1.09-2.51,2.37-2.17.44.11.56.36.83.66,1.66,1.78,2.63,3.1,4.97,4.1.39.16,1.29.4,1.57.61.67.52.61,2.18.44,2.93ZM22.63,24.8c-.17.12-.18.36-.26.54-.53,1.18-1.95,1.43-2.95.69.11-.02.53-.17.56-.26.06-.18-.02-.31-.21-.31-.26,0-1.11.3-1.44.38-1.27.31-2.41.52-3.72.42-1.74-.14-3.21-.9-4.51-1.99-.69-.59-1.1-1.11-1.71-1.76-.44-.48-1.22-1.44-1.81-1.63-.19-.06-.33.02-.42-.26-.13-.46-.13-1.35-.14-1.85,0-.18-.09-.36,0-.55l.77,1.23c.1.08.28.03.31-.09.1-.33-.19-.43-.37-.64-.06-.07-.11-.16-.16-.23-.1-.16-.5-.86-.54-1-.05-.19.04-.56.12-.75.02-.04.04-.11.08-.04l.96,1.59c.13.1.33-.02.32-.18-.01-.08-.49-.74-.58-.89-.15-.24-.46-.72-.56-.96-.12-.32.11-.6.26-.86l.84,1.58c.12.13.33,0,.31-.17-.25-.61-.64-1.17-.92-1.77-.08-.1.1-.56.2-.53.09.02.72,1.47.92,1.61.08.05.22-.05.23-.14,0-.19-.63-1.23-.75-1.47-.41-.82-.5-1.66-.55-2.56.07-.01.1.04.13.09.2.32.4.87.59,1.24.37.72.79,1.42,1.16,2.15.09.18.35.11.35-.08,0-.09-.15-.34-.2-.44-.57-1.1-1.17-2.19-1.74-3.29-.13-.26-.33-.44-.32-.75,0-.17.07-.38.1-.55.22.2.62,1.12.84,1.21.1.04.21,0,.27.09.16.34.32.69.5,1.03.22.42.55,1.11.82,1.47.14.2.39.05.27-.24-.14-.36-.46-.79-.65-1.15-.2-.38-.38-.78-.6-1.16-.12-.28.2-.57.43-.68.2-.09.27.03.37.19.41.63.74,1.39,1.09,2.06.15.23.49.04.34-.21-.31-.49-.56-1.03-.85-1.53-.12-.21-.41-.57-.48-.76-.02-.03-.03-.05-.02-.09.01-.09.56-.72.72-.51.29.56.64,1.13.89,1.7.08.17.16.74.42.58.17-.11.03-.36-.02-.51-.21-.57-.59-1.09-.82-1.64-.16-.38-.24-.52.11-.81.09-.07.47-.32.56-.29l2.12,3.82c.14.18.43-.05.3-.27l-2.09-3.75c-.02-.08,0-.17.06-.22.04-.04.46-.25.51-.25.09.06.08.18.12.28.56,1.22,1.21,2.39,1.84,3.57.08.14.32.75.4.8.19.11.36-.04.27-.28-.21-.54-.66-1.18-.94-1.72-.4-.77-.9-1.65-1.23-2.44-.06-.12-.16-.33-.13-.45.05-.17.4-.31.55-.39.6,1.4,1.47,2.68,2.12,4.07.14.3.34.96.51,1.18.14.19.37.1.35-.08-.01-.06-.05-.17-.08-.23-.47-1.3-1.3-2.56-1.95-3.78-.16-.3-.58-1.03-.66-1.3-.07-.22.01-.41.01-.61-.01-.22-.11-.52-.13-.76-.02-.23.01-.46,0-.68l.25.36c.71,1.56,1.51,3.09,2.33,4.6.39.73.83,1.61,1.27,2.28.08.13.13.25.31.22.06-.01.15-.08.15-.15,0-.12-.69-1.22-.8-1.42-.38-.66-.75-1.34-1.11-2.01-.5-.94-1.25-2.19-1.63-3.14-.04-.09-.09-.18-.08-.28.39.18.46.88.95.87.22-.01.34-.19.53.06.54,1.08,1.15,2.12,1.69,3.19.3.58.56,1.19.87,1.75.44-.01.18-.45.08-.68-.3-.74-.73-1.35-1.1-2.05-.28-.5-.5-1.04-.78-1.55-.11-.22-.36-.54-.44-.75-.06-.13-.08-.19.06-.26.2-.1.82-.29,1.03-.23.28.07.52.73.64.99.54,1.16,1.01,2.35,1.53,3.51.06.21.36.13.35-.05-.39-.96-.8-1.92-1.22-2.86-.25-.57-.56-1.13-.77-1.71.34-.06.9-.24,1.22-.07.28.14.34.58.46.84.32.69.74,1.35,1.07,2.04.17.36.31.86.48,1.18.12.23.36.19.36-.05,0-.13-.16-.48-.22-.62-.36-.87-.87-1.68-1.29-2.52-.07-.12-.47-.91-.42-.96.53.05.86-.34,1.14.26.23.48.37,1.07.56,1.57.34.89.73,1.76,1.08,2.64.15.26.47.09.36-.19-.68-1.36-1.22-2.77-1.71-4.2-.06-.26.22-.19.36-.27.3-.16.03-.87.07-1.14.04-.04.3.27.33.31.14.18.32.45.33.67,0,.07-.03.13-.03.2,0,.29.41,1.11.53,1.46.37,1.01.62,2.07.95,3.09.1.32.41.17.37-.1-.44-1.29-.79-2.62-1.29-3.89-.02-.06.08-.06.13-.07.23-.04.54.04.68-.21.05-.08.04-.17.11-.23.48,1.05.63,2.23.92,3.36.09.35.19.84.32,1.17.05.13.07.21.23.16.37-.12.05-.58-.02-.8-.34-.98-.51-2-.76-3,.03-.17.38-.03.49.02.31.15.34.32.42.64.25,1.11.34,2.18.73,3.29.02.06.04.19.1.22.14.07.28-.05.27-.19-.04-.6-.5-1.42-.55-2.04-.06-.53.03-1.06-.31-1.5.7.12,1,.55,1.12,1.22.11.64.23,1.28.36,1.92.03.13.07.68.14.72.11.07.24.02.26-.1.04-.17-.07-.74-.11-.94-.04-.27-.46-1.89-.38-2,.38.29.83.49.89,1.02.02.13-.01.27.01.4.06.52.21,1.03.35,1.54.11.11.3.09.31-.09-.05-.51-.27-1.05-.33-1.56t.05-.04c.66.8,1.07,1.89,1.32,2.89.16.63.29,1.34.22,1.99,0,0-.09-.04-.1-.06-.08-.11-.16-.39-.25-.54-1.98-3.39-7.1-1.74-7.45,2.06-.08.96.32,2.17.95,2.89,1.41,1.6,3.56,1.64,5.29.56.23-.14.84-.92.96-.96.35-.6.64-1.21.79-1.89.02-.06.01-.29.08-.12.2.45.2,1.15.23,1.64.11,1.96-.36,3.21-1.86,4.48-1.39,1.19-3.28,1.69-4.92,2.43ZM26.72,19.04c-2.5,1.38-5.47-.5-5.1-3.39.2-1.64,1.51-3.13,3.2-3.29,4.11-.4,5.17,4.87,1.9,6.68ZM29.68,27.81c-.36.07-.32-.72-.66-.76-.06,0-.17.03-.21.08-.11.16.04.9-.06,1.14-.05.14-.36.31-.5.23-.08-.05-.35-.96-.47-1.1-.02-.05-.03-.09-.01-.14.03-.05.62-.38.74-.46.41-.28.77-.64,1.16-.94-.02.52.02.99.15,1.49.05.2.2.39-.14.46ZM28.13,26.52c-.17.1-.38.29-.59.23-.12-.04-.68-.9-.82-1.07-.35-.44-.87-.9-1.17-1.35-.03-.05-.12-.14-.09-.19.04-.07,1.22-.62,1.42-.73,2.24-1.3,3.21-3.19,2.99-5.8-.08-1.05-.41-2.14-.49-3.16-.03-.47.14-.55.58-.51,1.53.13,2.46,2.23,2.69,3.55.57,3.33-1.82,7.23-4.52,9.03Z" fill="#645140"/><path d="M29.38,13.54v-1.24c0-.13-.27-.12-.31-.22-.34-1.78-1.29-3.32-2.76-4.38-.49-.35-1.2-.8-1.75-1.04-.17-.08-.68-.22-.77-.29-.13-.1-.11-.29-.17-.43-.14-.35-.64-1.25-1.1-1.14-.29.07-.12.35-.11.53.01.16.06.81-.26.66-.08-.04-.27-.53-.34-.66-.17-.3-.64-.91-.89-1.14-.07-.06-.2-.14-.29-.15-.66-.05-.18,1.2-.29,1.43-.05.09-.45.12-.56.13-1.39.14-2.52.1-3.91.47-.27.07-.88.33-1.1.29-.12-.02-.43-.52-.55-.65-.23-.26-.82-.84-1.16-.86-.22-.02-.37.12-.4.33-.03.24-.01.68,0,.93.02.28.21.98.08,1.18-1.26.88-2.5,1.8-3.68,2.79-.26.22-.62.61-.88.78-.08.05-.2.09-.28.02-.27-.39-.52-.91-.82-1.27-.32-.38-.59-.19-.63.26-.07.84-.03,2.12.07,2.95.06.47.28,1,.1,1.44-.1.24-.29.51-.4.76-.65,1.46-.75,2.96-.6,4.54.03.3.12.63.13.93,0,.11.03.25-.07.33-.1.08-.44.19-.59.28-1.59.93-1.73,2.97-1.16,4.56.53,1.5,2.25,3.42,3.63,4.2.11.06.74.34.76.37.04.07-.12.86-.15,1.02-.02.13-.05.78-.11.83s-.23.06-.25-.05c-.03-.63-.34-1.27-.82-1.67-.93-.78-.54,1.04-.75,1.41-.1.18-.4.13-.53,0-.1-.11-.22-.43-.28-.57-.32-.75-.58-1.65-.65-2.47-.02-.27.13-.77-.31-.67-.25.06-.07.55-.06.74.04.75-.37,1.5-.6,2.19-.01.02-.03.04-.05.05-.07.02-.46-.13-.54-.18,0-.32.1-.64.13-.96.09-.98-.09-1.92-.36-2.86C1.64,22.24-.47,17.94.96,12.81,2.64,6.78,6.48,2.18,12.82.94c2.26-.44,5.57-.69,7.8-.19,4.64,1.05,8.33,3,10.24,7.55.62,1.48,1.67,4.91,1.25,6.42-.01.04,0,.08-.05.11-.62-.85-1.58-1.47-2.67-1.29Z" fill="#fbdd6f"/><path d="M6.58,20.88c-.19-.06-.33.02-.42-.26-.14-.46-.13-1.35-.15-1.85,0-.18-.08-.36,0-.55l.78,1.23c.1.08.28.03.31-.09.1-.34-.2-.43-.37-.64-.06-.07-.11-.16-.16-.24-.1-.16-.5-.85-.53-.99-.05-.2.04-.56.11-.75.02-.04.04-.11.08-.05l.96,1.6c.13.1.33-.02.32-.18,0-.08-.49-.74-.58-.88-.15-.24-.47-.73-.56-.97-.12-.31.11-.6.26-.85l.84,1.58c.11.13.33,0,.3-.17-.25-.61-.64-1.17-.92-1.78-.08-.1.1-.56.2-.53.09.02.71,1.47.91,1.61.09.06.22-.04.23-.13.02-.17-.63-1.24-.75-1.48-.41-.81-.5-1.65-.55-2.56.06-.01.1.04.13.09.2.32.39.87.58,1.24.37.72.8,1.43,1.16,2.15.09.17.35.11.35-.08,0-.09-.15-.34-.2-.44-.57-1.1-1.18-2.19-1.75-3.3-.13-.25-.33-.43-.32-.75,0-.17.07-.38.1-.55.22.19.62,1.11.84,1.2.1.04.21,0,.27.09.16.34.32.69.5,1.03.22.42.56,1.11.82,1.47.14.2.39.05.28-.24-.14-.36-.46-.79-.65-1.14-.21-.38-.38-.79-.6-1.16-.13-.29.2-.57.43-.68.2-.1.27.03.37.18.41.64.74,1.39,1.09,2.07.15.23.49.04.34-.21-.31-.5-.56-1.03-.85-1.54-.12-.21-.4-.57-.48-.75-.01-.04-.03-.05-.02-.1.01-.09.57-.71.72-.5.29.55.64,1.12.89,1.7.08.18.16.75.42.58.16-.1.03-.36-.03-.51-.2-.57-.59-1.09-.82-1.64-.16-.38-.24-.52.11-.81.09-.07.46-.32.56-.3l2.12,3.83c.14.18.44-.06.3-.27l-2.09-3.75c-.02-.08,0-.17.06-.22.04-.03.48-.26.51-.25.09.06.08.18.13.28.55,1.22,1.21,2.39,1.84,3.57.08.14.32.75.4.8.18.11.36-.04.27-.28-.21-.54-.66-1.18-.94-1.72-.4-.77-.9-1.65-1.24-2.45-.05-.12-.16-.33-.12-.44.05-.17.4-.31.55-.4.6,1.41,1.47,2.68,2.12,4.07.14.3.34.96.51,1.19.14.19.37.1.35-.09,0-.06-.05-.16-.08-.22-.47-1.3-1.31-2.57-1.96-3.78-.16-.3-.58-1.03-.66-1.3-.06-.22.01-.41,0-.6,0-.23-.11-.53-.13-.77-.02-.22.01-.46,0-.68l.25.36c.71,1.56,1.51,3.09,2.33,4.6.39.72.83,1.61,1.27,2.28.08.12.13.25.31.22.06-.01.15-.09.15-.15,0-.1-.69-1.23-.8-1.42-.38-.67-.74-1.34-1.11-2.01-.5-.94-1.25-2.19-1.64-3.14-.04-.09-.08-.18-.07-.28.39.18.46.88.95.87.22,0,.34-.18.53.07.54,1.08,1.15,2.11,1.69,3.18.3.58.56,1.19.87,1.76.44-.02.18-.45.08-.68-.31-.74-.73-1.35-1.11-2.05-.27-.51-.5-1.04-.77-1.55-.12-.22-.36-.54-.45-.75-.06-.14-.08-.19.06-.26.2-.1.82-.29,1.03-.23.28.07.52.74.64.99.54,1.16,1.01,2.35,1.53,3.52.06.2.36.13.36-.05-.4-.96-.8-1.92-1.22-2.86-.25-.57-.56-1.12-.77-1.7.34-.06.9-.24,1.22-.07.28.14.34.58.46.84.32.7.75,1.35,1.07,2.05.17.36.31.86.48,1.18.12.23.36.18.36-.06,0-.13-.16-.48-.22-.61-.36-.87-.87-1.68-1.29-2.52-.06-.12-.47-.91-.41-.96.53.05.86-.33,1.14.27.22.48.36,1.06.56,1.57.34.89.73,1.76,1.08,2.64.15.26.47.09.36-.19-.67-1.35-1.22-2.77-1.71-4.2-.06-.25.22-.19.36-.27.3-.16.03-.87.07-1.14.04-.04.3.27.33.32.14.17.32.44.33.67,0,.06-.03.13-.03.2,0,.29.41,1.12.53,1.46.37,1.02.62,2.07.95,3.1.1.31.4.16.37-.1-.44-1.29-.79-2.62-1.29-3.89-.02-.06.08-.07.13-.07.23-.04.54.04.69-.21.04-.07.03-.17.1-.23.49,1.05.63,2.24.92,3.36.09.35.19.85.32,1.17.05.13.07.21.23.16.38-.12.06-.58-.02-.8-.34-.98-.5-2-.76-3,.03-.17.38-.03.48.02.31.15.35.33.42.64.26,1.11.34,2.18.73,3.29.02.06.05.19.11.22.14.07.27-.05.26-.19-.04-.59-.5-1.41-.55-2.04-.06-.52.03-1.06-.31-1.5.7.12,1,.56,1.12,1.22s.24,1.28.36,1.93c.03.13.07.68.14.72.11.06.23.01.26-.11.04-.16-.07-.74-.11-.94-.05-.27-.46-1.88-.38-1.99.38.29.83.49.89,1.02.01.13-.01.27,0,.39.06.52.21,1.04.35,1.54.11.11.3.09.31-.08-.05-.51-.27-1.06-.33-1.56,0-.05,0-.05.05-.05.66.8,1.08,1.89,1.32,2.89.16.63.29,1.34.22,1.99,0,0-.09-.04-.1-.06-.08-.11-.16-.39-.25-.54-1.98-3.39-7.1-1.74-7.45,2.06-.42.01-.8.2-1.22.26-.49.07-1.01.04-1.51.11-.55.08-1.28.31-1.83.46-.1.03-.24.05-.32.12-.15-.2-.39-.41-.58-.56-2.91-2.34-7.45-.04-7.41,3.65-.6.27-1.15.65-1.66,1.06ZM23.53,11.13c-.28.03-.73.26-.95.44-.13.1-.4.33-.27.5.14.18.52-.23.68-.32.23-.13.48-.21.72-.31.14-.2.08-.34-.17-.31ZM9.08,15.91c-.11.14-.01.4.18.33.53-.39,1.01-.94,1.64-1.19.15-.06.54-.09.56-.27.05-.37-.48-.17-.66-.1-.66.26-1.17.8-1.72,1.22Z" fill="#cdcee0"/><path d="M21.12,15.77c-.09.96.32,2.17.95,2.89,1.41,1.61,3.56,1.65,5.29.56.09.12-.02.23-.03.33,0,.02,0,.05,0,.07-.38.63-.43,1.35-.28,2.06.06.28.14.75.51.7-1.39,1.18-3.28,1.69-4.92,2.43-.17.11-.18.35-.26.54-.53,1.18-1.95,1.43-2.95.69.11-.02.53-.16.56-.25.06-.18-.02-.31-.21-.31-.26,0-1.11.3-1.44.38-1.27.31-2.4.52-3.72.41.22-.35.1-.67-.07-1.01-.36-.73-.94-1.17-1.69-1.43-.05-.02-.12,0-.1-.08,3.31-.27,5.65-4.19,3.48-7,.08-.07.22-.09.32-.12.55-.15,1.28-.38,1.83-.46.5-.08,1.02-.04,1.51-.11.41-.06.8-.25,1.22-.26ZM20.28,18.93c-1.3-.02-2.42.93-2.54,2.24-.02.18-.05.41.18.44.25.03.36-.32.57-.49.7-.55,1.61-.73,2.48-.67.26.02.93.28.95-.18,0-.17-.26-.48-.38-.61-.31-.35-.76-.71-1.25-.72ZM22.17,22.43c.06-.05.25-.68.24-.77-.02-.27-.38-.35-.45-.12-.03.08,0,.17-.02.24-.04.16-.23.46-.13.61.06.09.28.11.36.04ZM21.37,21.48c-.07.01-.09.05-.13.1-.1.14-.35.77-.33.93.03.18.33.21.43.06.05-.08.23-.66.25-.77.03-.19.03-.38-.23-.33ZM20.31,21.75c-.1.02-.12.09-.16.17-.08.17-.28.8-.21.95.07.17.41.17.48-.01,0-.25.21-.78.12-.99-.05-.1-.12-.14-.23-.12ZM19.48,21.81c-.05.02-.06.05-.08.08-.05.07-.37.95-.37,1.02-.02.29.32.4.44.2.16-.27.21-.81.35-1.11.02-.18-.19-.25-.34-.2ZM18.35,22.21c-.06.02-.09.07-.11.12-.06.1-.25.62-.27.73-.05.32.27.41.41.24.05-.06.26-.72.28-.82.03-.22-.07-.34-.3-.27Z" fill="#fdfcfb"/><path d="M13.54,31.29c-.22.22-.8.45-.85-.02.03-.03.53.16.64-.11.15-.34-.73-.42-.96-.45-.99-.13-1.81-.16-2.79-.46-2.73-.84-5.73-3.65-5.48-6.73.09-1.14,1.09-2.51,2.37-2.17.44.12.56.37.83.66,1.65,1.78,2.63,3.11,4.96,4.1.39.17,1.3.4,1.57.62.67.52.61,2.18.44,2.93-.09.41-.44,1.35-.73,1.64Z" fill="#fdfdfd"/><path d="M24.83,12.36c4.11-.4,5.17,4.87,1.9,6.68-2.51,1.38-5.47-.5-5.11-3.38.21-1.64,1.52-3.13,3.21-3.3ZM25.02,17.43c-.72.12-.86,1.13-.18,1.49,1.3.7,1.49-1.72.18-1.49Z" fill="#fdfcfb"/><path d="M25.47,24.14c.04-.07,1.22-.62,1.41-.73,2.25-1.3,3.22-3.19,3-5.8-.09-1.05-.42-2.14-.49-3.16-.04-.47.14-.55.58-.51,1.53.13,2.46,2.23,2.69,3.55.58,3.33-1.81,7.23-4.52,9.02-.16.11-.38.29-.58.23-.12-.04-.68-.9-.82-1.07-.35-.44-.87-.9-1.17-1.35-.03-.05-.11-.14-.08-.19Z" fill="#fdfcfb"/><path d="M29.41,17.89c.11,1.96-.36,3.21-1.86,4.48-.37.05-.45-.42-.51-.7-.15-.71-.1-1.43.28-2.06.02.38.34.14.51.03.22-.15.79-.71.82-.98.01-.17-.19-.23-.3-.16-.02.01-.2.33-.26.4-.21.25-.5.46-.76.65.01-.1.13-.21.03-.33.23-.14.84-.92.96-.96.04-.02.13,0,.21-.04.29-.12.56-.3.89-.32Z" fill="#f6c1b8"/><path d="M12.76,23.73c-.02.09.05.06.1.08.75.26,1.33.71,1.69,1.43.17.34.29.66.07,1.01-1.74-.14-3.22-.9-4.51-1.99.14-.03.49-.29.6-.3.05,0,.36.13.46.16.29.07,1.35.21,1.56.06.09-.06.11-.28.01-.31-.17-.06-.73.02-.96,0-.09,0-.16-.05-.25-.07.05-.04.1-.07.1-.13.35.05.77.09,1.13.07Z" fill="#f7c2b9"/><path d="M8.24,19.82c.02,1.99,1.43,3.56,3.38,3.85,0,.07-.05.09-.1.13-.05,0-.11,0-.17,0-.3-.07-.73-.39-.66.17-.11,0-.46.26-.6.3-.69-.58-1.1-1.1-1.71-1.76-.44-.48-1.22-1.44-1.81-1.63.51-.41,1.06-.79,1.66-1.06Z" fill="#fcfbfa"/><path d="M11.29,32.5c-.09.07-.38-1.14-.71-1.16-.45-.03-.45,1.05-.81,1.11-.21.04-.18-.33-.23-.5-.04-.13-.15-.33-.22-.45-.11-.2-.61-.8-.61-.95,0-.06.05-.17.13-.14.72.26,1.45.49,2.21.61.15.02.66,0,.7.16s-.43,1.07-.46,1.3Z" fill="#f6d76e"/><path d="M29.68,25.86c-.02.52.02.99.15,1.49.05.19.2.39-.14.46-.36.07-.33-.72-.66-.76-.07,0-.17.02-.21.08-.11.15.04.9-.06,1.14-.05.14-.36.31-.51.22-.07-.05-.35-.96-.47-1.1-.02-.05-.03-.09,0-.14s.62-.38.74-.46c.41-.28.77-.64,1.16-.94Z" fill="#f6d76e"/><path d="M28.32,18.26c.35-.6.64-1.2.79-1.88.01-.06,0-.29.08-.13.2.45.2,1.15.23,1.65-.33.02-.6.2-.89.32-.08.03-.17.02-.21.04Z" fill="#f4f2f0"/><path d="M16.24,16.73c2.16,2.81-.17,6.74-3.48,7-.36.03-.77-.01-1.13-.07-1.95-.29-3.37-1.86-3.38-3.85-.03-3.69,4.51-5.99,7.41-3.65.19.16.43.37.58.56ZM12.75,15.71c-2.83.18-5.09,3.2-3.56,5.83,1.35,2.34,4.75,2.15,6.4.23,2.17-2.51.54-6.28-2.84-6.07Z" fill="#665444"/><path d="M9.08,15.91c.55-.42,1.06-.96,1.72-1.22.18-.07.72-.28.66.1-.02.18-.41.21-.56.27-.63.24-1.1.8-1.64,1.19-.19.07-.29-.19-.18-.33Z" fill="#665444"/><path d="M23.53,11.13c.25-.03.31.11.17.31-.24.1-.49.18-.72.31-.16.09-.54.5-.68.32s.15-.4.27-.5c.22-.18.67-.41.95-.44Z" fill="#695748"/><path d="M20.28,18.93c.49,0,.94.37,1.25.72.12.13.39.44.38.61-.02.46-.68.2-.95.18-.88-.06-1.78.12-2.48.67-.21.17-.32.52-.57.49-.23-.03-.2-.26-.18-.44.12-1.31,1.24-2.26,2.54-2.24ZM21.22,20.05c-.22-.26-.52-.54-.86-.62-.69-.17-1.83.33-1.9,1.12.24-.11.46-.24.71-.33.66-.24,1.35-.3,2.04-.17Z" fill="#665444"/><path d="M19.48,21.81c.15-.05.35.02.34.2-.14.3-.19.84-.35,1.11-.12.2-.46.08-.44-.2,0-.07.32-.95.37-1.02.02-.04.03-.07.08-.08Z" fill="#695748"/><path d="M27.32,19.55c.26-.19.56-.4.76-.65.06-.07.24-.39.26-.4.11-.07.31,0,.3.16-.02.27-.59.82-.82.98-.17.12-.49.35-.51-.03,0-.02,0-.05,0-.07Z" fill="#645140"/><path d="M20.31,21.75c.11-.02.18.01.23.12.09.21-.13.74-.12.99-.07.18-.41.18-.48.01-.07-.16.13-.79.21-.95.04-.08.06-.15.16-.17Z" fill="#695748"/><path d="M21.37,21.48c.26-.05.26.13.23.33-.02.11-.2.7-.25.77-.1.14-.4.12-.43-.06-.03-.16.22-.79.33-.93.04-.05.06-.09.13-.1Z" fill="#695748"/><path d="M18.35,22.21c.23-.07.33.04.3.27-.01.1-.22.76-.28.82-.14.17-.46.08-.41-.24.02-.11.21-.63.27-.73.03-.05.06-.1.11-.12Z" fill="#695748"/><path d="M22.17,22.43c-.08.07-.3.05-.36-.04-.1-.15.08-.45.13-.61.02-.07,0-.16.02-.24.07-.24.43-.15.45.12,0,.1-.19.72-.24.77Z" fill="#695748"/><path d="M25.02,17.43c1.31-.22,1.12,2.19-.18,1.49-.68-.36-.54-1.37.18-1.49ZM25.39,17.97c-.37-.37-.79.26-.39.53.46.3.65-.27.39-.53Z" fill="#665444"/><path d="M11.53,23.8c.09.02.16.06.25.07.23.02.79-.05.96,0,.09.03.08.24-.01.31-.21.15-1.27.02-1.56-.06-.1-.03-.4-.16-.46-.16-.07-.57.36-.24.66-.17.06.01.12,0,.17,0Z" fill="#695748"/><path d="M12.75,15.71c3.38-.22,5.02,3.55,2.84,6.07-1.66,1.92-5.05,2.11-6.4-.23-1.53-2.64.73-5.65,3.56-5.83ZM13.54,20.99c-.84.13-.74,1.4.03,1.52,1.27.2,1.04-1.68-.03-1.52Z" fill="#fdfdfd"/><path d="M21.22,20.05c-.69-.13-1.38-.07-2.04.17-.25.09-.48.22-.71.33.06-.79,1.21-1.29,1.9-1.12.34.09.64.36.86.62Z" fill="#ec9e8d"/><path d="M25.39,17.97c.26.26.07.84-.39.53-.41-.27.02-.9.39-.53Z" fill="#f4f2f0"/><path d="M13.54,20.99c1.07-.16,1.29,1.71.03,1.52-.76-.12-.87-1.39-.03-1.52ZM13.54,21.42c-.21.06-.22.6.14.65.38.06.38-.28.22-.52-.08-.13-.21-.17-.36-.13Z" fill="#665444"/><path d="M13.54,21.42c.15-.05.27,0,.36.13.16.25.16.58-.22.52-.36-.05-.35-.59-.14-.65Z" fill="#f4f2f0"/><path d="M29.19,38.51c-2.53.52-19.09,0-19.09,0h.18c.07,0,.04-.28.05-.35.16-1.09.52-2.46.8-3.55.28-1.09.63-2.15.99-3.21.34.4.72.75,1.29.54.61-.23,1.12-1.42,1.26-2.02.16-.7.18-1.88-.01-2.57-.06-.24-.17-.47-.28-.69,1,.08,2,.03,2.99-.15.41-.07.86-.23,1.25-.28.47-.06.59.23.98.4,1.05.46,2.42.21,3.05-.81.14-.22.2-.48.36-.67.51-.18,1.08-.52,1.59-.67.51-.15.67.18.98.52.26.28,1.19,1.34,1.26,1.65.03.13.02.29.01.42-.02.65-.17,1.34-.23,1.99-.03.35,0,.73-.03,1.06-.03.25-.1.37-.31.49-.73.41-1.75.72-2.53,1.09-.67.3-1.32.66-2,.96-.29.17-.17.52.15.57,1.3.2,2.61.02,3.87.17.34.04.33.13.32.44-.04,1.07-.23,2.15-.23,3.22.01.34.37.37.55.12l1.6-2.11c.22-.17.4.16.55.28.11.09.43.27.45.39.04.21.02.87,0,1.12-.03.56-.16,1.11-.3,1.65h.48Z" fill="#fdfdfd"/></g></svg>