<?xml version="1.0" encoding="UTF-8"?><svg id="Layer_2" xmlns="http://www.w3.org/2000/svg" viewBox="0 0 392.61 419.78"><g id="Layer_1-2"><path d="M145.21,10.4c.1,1.45,1.18,2.13,2.59,1.92,11.99-3.63,24.86-6.13,37.44-6.73,19.92-.96,39.76-.99,58.14,7.13,25.23,11.15,48.8,28.39,67.07,49,25.61,28.89,37.3,63.94,71.44,85.39.67.42,4.08,1.98,4.12,2.21.15.72-1.43,4.52-1.91,5.15-1.01,1.34-8.69-.99-10.37-1.61-2.6-.96-8.58-5.07-10.77-4.08-5.45,2.47,5.51,8.75,7.2,10.52,4.03,4.2,7.1,12.44,8.3,18.08.35,1.66,1.31,6.81,1.03,8.14-.15.69-5.28,6.2-5.75,6.19-2.39-1.08-8.66-7.69-11.16-5.18-2.01,2.02,1.55,7.32,2.26,9.74.34,1.16,1.53,6.69,1.24,7.4-.4.97-10.04,8.79-11.16,9.06-1.8.43-5.63-5.24-9.03-2.84-1.48,1.05-1.33,6.13-1.86,8.21-.44,1.72-1.6,3.45-2.04,5.15-.73,2.84.26,7.36-3.35,7.7-1.87.17-2.41-5.21-4.81-5.59-3.68-.58-2.56,1.39-4.45,3.27-4.73-18.88-15.05-38.52-29.73-51.56-4.91-4.36-12.37-10.39-17.91-13.74-.83-.5-3.76-1.61-4.04-1.96-.25-.31-1.48-5.76-2.11-7.24-3.78-8.89-10.92-13.56-20.53-9.92-4.35-16.69-15.57-32.84-31.94-39.29-.22-5.73-.44-11.16-2-16.71-.31-1.09-1.26-1.88-1.48-2.83-.51-2.2.66-5.6-3.2-4.94-2.17.37-3.05,6.05-3.86,8.15-.33.86-2.58,6.23-2.92,6.28-11.47-3.79-22.99-7.61-35.13-8.74-1.1-6.36-2.05-11.74-5.44-17.34-.97-1.61-4.67-7.02-6.38-7.01-3.69.01-8.75,11.85-9.85,15.06-.55,1.59-1.58,7.97-2.69,8.34l-46.69-1.38c-1.11-5.88.5-12.14,2.79-17.59.9-2.14,5.3-8.83,5.37-10.03s-1.07-2.44-2.19-2.61c-2.48-.36-5.7,5.19-8.14,6.24-5.86,5.88-11.4,12.59-14.7,20.31-1.05,2.45-1.84,6.57-3.06,8.45-2.26,3.49-8.08,8.14-11.01,11.53-11.53,13.32-10.51,25.35-7.77,41.83,1.06,6.37,4.51,15.29,4.92,20.98.17,2.32-.43,5.31-.26,7.93.42,6.68,2.69,14.59,5.98,20.4,1.29,2.27,7.08,8.93,7.36,9.93s-.05,1.84-.35,2.73l-24.99.76c2.34-12.65,4.4-26.17,3.83-39.08-.66-15.06-4.26-30.38-3.83-45.56,1.23-43.76,29.64-75.75,65.55-97.03,2.54-1.51,16.57-8.46,17.16-9.71.32-.67.19-1.82.25-1.89.15-.19,4.1-.95,4.8-.96Z" fill="#fedd70"/><path d="M145.21,10.4c-.14-2.14,1.8-2.89,3.46-3.49,20.96-7.55,66.44-9.55,87.44-2.76,32.74,10.58,68.1,39.53,88.67,66.72,17.47,23.1,34.22,58.98,60.95,72.38,2.38,1.19,7.16,1.67,6.87,4.91-.12,1.35-4.8,10.69-5.88,11.41-2.58,1.73-6.92-.27-9.85-.01,3.26,5.3,5.92,11.97,7.06,18.11.45,2.42,1.41,8.73.33,10.62-2.71,1.67-6.53,8.8-8.84,9.87s-4.34-1.69-4.78-1.19c-.16,2.98,1.72,6.48.36,9.24-.62,1.25-6.8,6.41-8.29,7.53-1.25.95-7.13,5.08-8.17,5.27-3.29.6-2.92-1.32-5-2.86.32,3.56-2.29,6.63-2.76,9.96-.28,1.98.35,5.85-.74,7.17-.31.38-6.69,3.24-7.4,3.39-1.07.22-2.37.22-3.38-.21-1.24-.53-.98-3.33-3.36.14,3.7,15.62,7.95,31.93,14.68,46.55,3.61,7.85,9.81,12.45,3.84,21.42-3.9,5.85-9.57,11.63-14.67,16.44.82,8.04.05,16.37-1.13,24.34-.6,4.08-2.34,14.58-4.33,17.73-4.92,7.76-13.89,7.74-21.5,4.16l-1.05,12.62c-.32,1.12-2.14,1.84-3.27,1.77-.07-.32-1.04-.73-1.34-1.29-1.2-2.26.73-13.24.88-16.67,1.37-31.41-3.04-62.7-1.48-94.04.29-5.81,1.13-11.68,1.46-17.49.62-10.81.14-18.81-2.88-29.26-.42-1.44-.64-3.93-1.72-4.75-.55-.41-5.87-2-6.89-2.22-8.26-1.74-17.28-.77-25.6-2.57l-2.71,4.51c6.15,1.99,22.67.66,27.31,4.34,1.05.84,1.4,6.38,1.49,8.1.23,4.42-.3,9.03-.01,13.44,1.01,15.47,3.82,31.07,4.33,46.98.65,19.94-2.1,39.59-2.44,59.51-.09,5,.45,10.25.04,15.35s-1.81,8.59-.99,13.92c1.2,7.84-10.45,6.07-15.6,5.99-23.6-.36-47.46-.57-70.96-.98-14.68-.26-29.56-2.3-44.14-1.94-4.23.1-9.15.91-13.39,1-42.08.87-83.85-2.37-125.58-6.84-1.96-.35-3.33-2.92-1.5-4.18.88-.61,2.41-.08,2.6-.99-2.45.34-3.57-.73-3.85-3.11-.78-6.7-.5-14.69-.95-21.59-.93-14.24-1.98-28.43-2.41-42.67-.22-7.09.48-14.61.04-21.62-.38-6.04-1.92-12.14-2.41-18.21-.79-9.67-.49-19.16-.46-28.75.01-5.19-1.45-9.6.58-14.77.5-1.26,1.75-1.66,2.99-1.81,11.28-1.31,27.47.09,39.36.03,1.13,0,2.18-.51,3.32-.52,7.01-.03,13.88.64,20.88.5-.71-3.06-.56-6.3-.94-9.38-.04-.36-.06-.64-.49-.69-1.87-.81-3.35.02-5.02.02-4.67.02-9.32.39-13.91.48-15.5.28-33.74-.84-48.88,1.48-6.53,1-6.48,3.02-7.43,9.36-2.65,17.73.08,42.96,1.85,61.08,2.38,24.35,5.48,49.26,4.8,73.86-.08,2.9.84,6.4-3.36,6.23-.04-.1-1.11-.44-1.34-1.29-1.73-6.24-.75-21.78-1.06-29.16-1.45-34.55-8.24-69.63-6.23-104.08.35-5.99-.16-16.68,6.22-19.68,3.9-1.83,13.43-2.44,17.99-2.64,9.32-.41,18.75.34,28.08.02-.11-4.47,1.26-8.84,1.85-13.26,4.45-33.74-7.36-64.15,1.64-97.15,9.46-34.65,37.47-60.86,68.12-77.67,2.72-1.49,9.84-5.72,12.29-6.41,1.26-.35,3.83-.85,3.85,1.21-.06.07.07,1.22-.25,1.89-.59,1.25-14.62,8.21-17.16,9.71-35.92,21.28-64.32,53.27-65.55,97.03-.43,15.18,3.17,30.51,3.83,45.56.57,12.91-1.49,26.43-3.83,39.08l24.99-.76c.29-.89.62-1.77.35-2.73s-6.07-7.66-7.36-9.93c-3.29-5.81-5.57-13.72-5.98-20.4-.16-2.62.43-5.62.26-7.93-.42-5.69-3.87-14.61-4.92-20.98-2.74-16.49-3.76-28.51,7.77-41.83,2.93-3.39,8.76-8.04,11.01-11.53,1.22-1.88,2.01-6,3.06-8.45,3.3-7.72,8.83-14.43,14.7-20.31,2.44-1.05,5.65-6.6,8.14-6.24,1.13.16,2.26,1.46,2.19,2.61s-4.47,7.89-5.37,10.03c-2.29,5.45-3.9,11.71-2.79,17.59l46.69,1.38c1.11-.37,2.14-6.75,2.69-8.34,1.1-3.2,6.16-15.04,9.85-15.06,1.71,0,5.41,5.41,6.38,7.01,3.39,5.6,4.34,10.98,5.44,17.34,12.13,1.12,23.66,4.95,35.13,8.74.34-.06,2.59-5.42,2.92-6.28.81-2.09,1.7-7.78,3.86-8.15,3.86-.66,2.69,2.74,3.2,4.94.22.96,1.18,1.74,1.48,2.83,1.55,5.55,1.77,10.97,2,16.71,16.37,6.45,27.6,22.6,31.94,39.29,9.61-3.64,16.74,1.03,20.53,9.92.63,1.49,1.85,6.93,2.11,7.24.28.35,3.21,1.46,4.04,1.96,5.54,3.36,13,9.39,17.91,13.74,14.68,13.04,25,32.68,29.73,51.56,1.89-1.88.77-3.84,4.45-3.27,2.4.38,2.93,5.76,4.81,5.59,3.61-.33,2.62-4.86,3.35-7.7.44-1.7,1.6-3.44,2.04-5.15.53-2.08.38-7.16,1.86-8.21,3.4-2.4,7.23,3.27,9.03,2.84,1.13-.27,10.76-8.08,11.16-9.06.29-.71-.9-6.24-1.24-7.4-.7-2.42-4.26-7.72-2.26-9.74,2.5-2.51,8.76,4.1,11.16,5.18.46,0,5.6-5.5,5.75-6.19.28-1.33-.68-6.48-1.03-8.14-1.19-5.65-4.27-13.88-8.3-18.08-1.7-1.77-12.65-8.05-7.2-10.52,2.19-.99,8.17,3.12,10.77,4.08,1.68.62,9.36,2.95,10.37,1.61.47-.63,2.06-4.44,1.91-5.15-.05-.23-3.46-1.79-4.12-2.21-34.14-21.44-45.83-56.49-71.44-85.39-18.27-20.61-41.84-37.84-67.07-49-18.37-8.12-38.22-8.09-58.14-7.13-12.58.6-25.44,3.1-37.44,6.73-1.41.22-2.49-.47-2.59-1.92ZM240.17,181.13c3.42-.86,5.31-.08,8.39.04,1.13.04,2.17-.62,3.31-.52s2.14,1.19,3.43,1.4c8.21,1.34,16.26-9,16.99-16.52.82-8.44-7.11-24.15-16.08-15.6-1.98,1.89-2.38,6.94-5.15,6.18-4.53-1.24.77-7.35.64-8.76-.01-.15-.89-.38-1.27-1.18-2.08-4.38-3.02-9.68-5.21-13.98-3.41-6.7-13.39-18.38-20.22-21.5-1.58-.72-6.15-1.43-6.66-2.45-1.24-2.48.6-13.2-1.2-16.79l-4.11,7.64c-.71.85-1.78,1.03-2.84,1.03-4.32.01-16.83-5.24-22.29-6.53-4.71-1.12-11.71-1.51-15.87-2.83-.78-.25-1.98-1.26-2.26-2.06-1.01-2.94-.92-7.69-1.89-11.06s-2.85-6.24-4.47-9.2c-.89-.63-3.02,3.61-3.44,4.46-.84,1.72-1.84,4.35-2.44,6.19-1.32,4.01-.9,10.49-5.84,10.95-11.74,1.08-25.12-.96-36.93-1.48-3.92-.92-11.45,1.4-14.79.41-1.17-.35-1.66-1.93-1.78-3.01-.58-4.95.09-10.41,1.12-15.21.1-.48.77-1.46-.15-1.35-2.83,4.21-5.73,7.89-7.76,12.62-1.23,2.86-1.95,7.06-3.54,9.4-2.81,4.12-9.43,9.37-12.93,13.45-9.12,10.64-7.99,19.67-5.86,32.73,1.24,7.57,3.58,14.94,5.15,22.43,3.58-1.27,7-2.88,10.66-3.96,1.91-.56,7.65-2.2,9.29-2.25,1.93-.06,3.58,1.48,2.98,3.47s-8.67,2.82-10.95,3.46c-3.95,1.11-7.84,2.68-11.41,4.65-.27.9-.06,1.86-.1,2.78-.5,11.79,4.56,21.88,12.95,29.74,24.36,22.83,77.15,12.94,107.69,10.05.82-.08,1.72.49,2.32.39.54-.1,1.6-1.38,2.22-1.8,7.99-5.52,16.31-11.32,24.5-16.51,3.78-2.39,11.88-7.93,15.79-8.91ZM309.24,238.21c1.52-.79,4.92-2.79,5.26-4.57.42-2.18-.13-5.72,0-8.16.54-10.48,3.13-16.08-2.66-25.6-7.17-11.78-16.94-20.94-27.79-29.28-.94-.73-6.17-4.59-6.94-3.85-.72,8.58-6.82,15.59-14.33,19.24-1,1.57,4.32,7.95,1.58,9.97-3.67,2.71-4.64-6.3-7.36-7.9-3.41-2.01-10.7-3.09-14.54-2.49-5.33.83-27.41,16.52-33.12,20.59-16.6,11.86-22.43,23.63-27.79,43.19-2.18,7.97-4.47,12.23,5.04,14.88,7.47,2.08,13.08-1.8,18.36-6.83,2.64-2.52,7.96-11.91,9.83-12.71,3.34-1.43,2.66,1.73,4.8.98,9.09-6.05,19.51-11.14,27.81-18.25,3.57-3.06,12.6-11.28,13.93-15.33.36-1.11.75-2.77.88-3.92.26-2.46-.75-8.76-.34-9.93.25-.71,1.43-1.25,2.13-1.28,4.06-.2,3.53,9.29,3.55,12,10.49,1.46,21.45.07,31.54,3.71,3.51,1.27,4.88,1.55,6.12,5.39,2.04,6.3,3.09,13.61,4.07,20.15ZM131.17,263.02c.18-.18,2.17-4.2,2.3-4.65.89-3.04-.17-8.6,3.56-9.87,1.13-.38,5.39-.23,5.24-1.81s-8.38-11.97-10.02-14.46c-3.25-4.94-5.82-10.33-9.37-15.09-.99-.91-11.12-2.07-13.65-2.66-6.16-1.43-11.71-3.74-17.27-6.71-1.75-.93-3.23-2.67-5.26-2.65-3.22,18.83,11.2,31.48,22.31,44.12,2.01,2.29,3.72,4.94,5.74,7.21,1.35,1.51,5.99,6.89,7.2,7.67,2.19,1.42,7.58.57,9.23-1.09ZM192.21,213.75l-33.81,3.35c-5.89-.48-11.94,1.02-17.76.99-3.03-.02-8.32-1.33-11.01-.99-.49.06-1.05-.1-.71.72.06.15,1.55,2.54,1.67,2.65,1.23,1.13,2.46-.01,3.79.04,16.48.65,31.1.52,47.53.05,1.86-.05,4.45,1.35,6.2-.61l4.11-6.2ZM289.09,380.17c.19-1.25-.93-1.89-1-3.11-.22-3.7,1.75-10.98,1.98-15.33.73-13.69.05-27.29.95-41.26,1.22-18.92,1.24-37.62-.49-56.59-.52-5.7-2-11.73-2.39-17.28-.21-2.99.38-19.51-.96-20.62-.36-.3-2.98-1.04-3.64-1.15-4.76-.8-12.41-1.66-17.23-1.95-1.79-.11-5.26-.28-6.83.36-2.32.95-7.2,6.8-9.49,8.74-7.63,6.45-20.72,13.8-29.64,18.8-1.86,1.04-4.87,1.81-5.97,2.43-.29.17-2.8,4.6-3.7,5.65-3.04,3.57-10.07,8.92-14.5,10.44-7.9,2.72-22.24-1.39-21.66-11.58s6.93-22.23,10.01-31.96c-16.92.23-33.93,1.27-50.84-.48-.84.62,11.27,15.47,12.08,16.93,1.57,2.84,2.24,6.16.12,8.93s-6.04,1.41-6.72,2.4c-.23.34-1.11,6.52-1.62,7.97-1.76,5.05-4.59,7.47-9.97,8.25s-7.54-.31-11.17-3.95c-7.59-7.6-16.83-18.68-23.73-27.1-1.57-1.91-3.18-3.97-4.46-6.1-.79-1.32-4.13-9.17-4.64-9.21-.15-.01-1.56.85-2.86.93-2.63.17-4.89-.5-7.2-.52-16.74-.2-33.52.58-50.37.02-.99-.03-2.7-1.05-3.39-.02-.49.73-.29,15.31-.23,17.55.36,14.58,3.03,28.52,3.85,42.67.52,8.92-.26,18.35-.02,27.35.5,18.52,2.82,37.07,3.41,55.6.07,2.13-.68,3.09-.99,5.04,7.98,1.42,16.15,1.25,24.22,1.93,13.58,1.14,27.7,3.31,41.23,3.85,21.75.87,43.53.45,65.23-.04,16.8-.38,32.38,1.43,48.92,1.96,17.75.57,35.97.3,53.72.48,9.99.1,20-.12,29.99-.02ZM315.88,264.17c-2.56.01-7.68-.69-8.11,2.55-1.84,13.77-.12,31.56.5,45.59.22,5.02.21,10.09.48,15.1,6.31-.92,6.35,4.34.45,5.09-.15,7.65.29,15.34.05,22.99-.04,1.29-.67,2.57-.55,3.83.24,2.58,5.59,4.7,8.01,4.97,9.3,1.04,10.57-7.46,12.04-14.72.62-3.07,3.56-24.34,2.54-25.51-2.74,1.15-5.03,3.19-7.66,4.56-1.85.97-6.06,3.56-7.96,2.18-.76-.55-1.36-2.12-1.1-3.05.31-1.1,7.35-3.97,9.01-4.94,8.3-4.8,17.31-13.08,22.5-21.15,1.04-1.62,1.6-2.1,1.56-4.23-.06-2.96-4.87-10.01-6.35-13.35-.97-2.19-4.05-11.92-4.95-12.8-.81-.79-3.82-.93-5.03-1.43-.84,2.96-5.52,21.32-10.49,13.12-1.8-2.98-4.11-18.28-4.93-18.81Z" fill="#614f3d"/><path d="M80.94,208.95c.43.05.45.32.49.69.38,3.09.24,6.32.94,9.38-7,.14-13.87-.53-20.88-.5-1.13,0-2.18.51-3.32.52-11.89.06-28.08-1.34-39.36-.03-1.24.14-2.49.54-2.99,1.81-2.03,5.17-.56,9.58-.58,14.77-.02,9.59-.32,19.08.46,28.75.49,6.07,2.04,12.17,2.41,18.21.44,7.01-.26,14.53-.04,21.62.43,14.24,1.48,28.43,2.41,42.67.45,6.9.17,14.88.95,21.59.28,2.38,1.4,3.45,3.85,3.11-.19.91-1.72.38-2.6.99-1.82,1.26-.45,3.84,1.5,4.18,41.73,4.47,83.5,7.71,125.58,6.84,4.23-.09,9.16-.9,13.39-1,14.58-.36,29.46,1.69,44.14,1.94,23.5.41,47.36.62,70.96.98,5.15.08,16.8,1.85,15.6-5.99-.82-5.33.56-8.59.99-13.92s-.13-10.34-.04-15.35c.34-19.92,3.09-39.58,2.44-59.51-.52-15.92-3.33-31.51-4.33-46.98-.29-4.42.25-9.02.01-13.44-.09-1.73-.43-7.27-1.49-8.1-4.63-3.68-21.15-2.36-27.31-4.34l2.71-4.51c8.33,1.8,17.34.83,25.6,2.57,1.03.22,6.34,1.81,6.89,2.22,1.09.82,1.31,3.31,1.72,4.75-.8.5-.48,1.82-.49,2.63-.04,3.54-.09,26.22,1.45,27.58.5.44,1.71-.2,1.91-.96-.33,5.81-1.17,11.68-1.46,17.49-1.56,31.34,2.84,62.63,1.48,94.04-.15,3.43-2.07,14.41-.88,16.67.3.57,1.27.98,1.34,1.29.17.79-1.11,3.63-.96,4.8-4.06-.2-2.34,4.67-5.53,5.26-1.97.37-4.98-.11-7.18.02-3.54.21-7.49.81-11.02.97-44.36,2.11-88.73-4.11-133.37-3.88-33.34.17-66.86,1.04-99.98-1.42l5.27-.96c.17-1.2-.95-1.48-1.81-1.78-3.39-1.21-10.05-1.07-13.77-1.57-6.71-.91-13.34-1.98-19.91-3.59l-2.34-7.25-1.49-16.98c.68-24.59-2.42-49.51-4.8-73.86,1.51.45,1.05-2.45.98-3.14-1.68-17.25-2.19-35.83-.49-53.21.16-1.66,1.35-10.69,2.01-11.18,1.68-1.24,5.89-.06,7.81-.05,10.33.02,21.59-1.99,32.11-2.46,8.45-.38,16.99.15,25.43-.47,1.19-.09,5.71-.28,5.52-1.91Z" fill="#a9a8a8"/><path d="M36.34,386.4c.41.78,1.63.45,2.4.48,1.02.11,1.99.39,2.88.48h1.92c.95.08,1.93-.07,2.88,0,33.12,2.46,66.63,1.59,99.98,1.42,44.64-.23,89.01,5.99,133.37,3.88,3.53-.17,7.48-.77,11.02-.97,2.2-.13,5.2.35,7.18-.02,3.19-.59,1.47-5.46,5.53-5.26,3.29.16,2.29,3.3,1.37,5.45-3.04,7.03-7.85,4.71-14.1,5.09-21.82,1.33-43.35,1.64-65.2.49-15.48-.81-31.02-2.82-46.51-3.37-3.59-.13-7.22.14-10.81.02.24,1.56-.38,4.05.08,5.44s7.15,2.05,8.8,2.23c6.73.75,21.53.77,26.78,4.87,3.86,3.02,2.15,8.25-1.76,10.08-8.39,3.92-30.75,2.09-40.87,2.3-13.08.27-25.62,1.27-38.82.49-5.82-.34-23.4-1.23-27.55-4.1-7.73-5.36,3.03-11.1,8.23-11.84l26.26-5.15v-3.84c-16.89.1-33.77-.01-50.62-.46-18.54-.49-38.22-.17-56.34-4.57-4.13-1-11.3-2.88-13.33-6.81-1.11-2.14-2.98-14.09-2.39-16.13.26-.88,1.16-1.01,1.34-1.28,1.52-.25,2.69.46,3.14,1.89,1.12,3.52.37,11.94,3.11,14.15,3.99,3.22,16.76,4.37,22.04,5.06ZM133.7,406.07c-3.27.53-3.38.73-4.58-2.9-10.25,2.8-21.14,3.22-30.91,7.7,0,.75,1.51.87,2.09,1.02,18.2,4.51,43.19,2.27,61.91,1.83,5.08-.12,36.35.8,38.11-1.94.09-.15.1-1.24.01-1.37-.39-.61-12.4-2.68-14.13-2.9-1.25-.16-2.57.13-3.83-.01-2.1-.23-13.1-1.89-14.05-1.33-.67.39-2.49,4.39-4.62,1.31-1.06-1.53-.2-7.6-.27-10.04-.03-1.12.03-2.24,0-3.36l-28.47.07c-.62.16-.69.59-.79,1.13-.56,2.96,1.84,7.58-.48,10.79Z" fill="#614f3d"/><path d="M12.36,355.23l1.49,16.98,2.34,7.25c6.57,1.6,13.2,2.68,19.91,3.59,3.72.5,10.38.37,13.77,1.57.86.31,1.98.58,1.81,1.78l-5.27.96c-.95-.07-1.93.08-2.88,0-.89-.08-1.77.01-1.92,0-.89-.09-1.86-.36-2.88-.48-.51-.06-1.49-.36-2.4-.48-5.29-.68-18.05-1.84-22.04-5.06-2.74-2.21-1.99-10.63-3.11-14.15-.46-1.44-1.62-2.14-3.14-1.89.7-1.08,1.47-2.52.96-3.84,4.2.16,3.28-3.34,3.36-6.23Z" fill="#f2f0ef"/><path d="M289.09,380.17c-9.99-.09-20,.13-29.99.02-17.75-.18-35.96.09-53.72-.48-16.53-.53-32.12-2.33-48.92-1.96-21.69.48-43.48.91-65.23.04-13.53-.54-27.65-2.71-41.23-3.85-8.07-.68-16.24-.5-24.22-1.93.31-1.95,1.06-2.91.99-5.04-.59-18.54-2.91-37.08-3.41-55.6-.24-9,.53-18.43.02-27.35-.82-14.15-3.49-28.09-3.85-42.67-.06-2.24-.26-16.82.23-17.55.69-1.02,2.4,0,3.39.02,16.85.56,33.64-.22,50.37-.02,2.31.03,4.57.69,7.2.52,1.3-.08,2.71-.94,2.86-.93.51.04,3.85,7.89,4.64,9.21,1.27,2.12,2.89,4.18,4.46,6.1,6.9,8.42,16.14,19.5,23.73,27.1,3.63,3.64,5.76,4.74,11.17,3.95s8.21-3.21,9.97-8.25c.51-1.46,1.39-7.63,1.62-7.97.67-.99,4.53.47,6.72-2.4s1.45-6.1-.12-8.93c-.81-1.46-12.92-16.31-12.08-16.93,16.91,1.75,33.91.7,50.84.48-3.08,9.73-9.42,21.63-10.01,31.96s13.76,14.3,21.66,11.58c4.43-1.52,11.46-6.87,14.5-10.44.9-1.05,3.4-5.49,3.7-5.65,1.1-.62,4.11-1.38,5.97-2.43,8.92-5,22.01-12.35,29.64-18.8,2.29-1.93,7.17-7.79,9.49-8.74,1.57-.64,5.04-.46,6.83-.36,4.82.29,12.47,1.15,17.23,1.95.66.11,3.28.86,3.64,1.15,1.34,1.11.75,17.64.96,20.62.38,5.54,1.87,11.58,2.39,17.28,1.73,18.97,1.71,37.67.49,56.59-.9,13.97-.22,27.57-.95,41.26-.23,4.35-2.2,11.63-1.98,15.33.07,1.22,1.19,1.86,1,3.11ZM67.99,236.77c-1.11-.06-.86-.17-.96.71s-.02,4.61-.48,5.05c-.22.21-3.89-1.91-5.07,1.9s5.28,4.8,7.44,2.12l-.93-9.77ZM91.44,240.18c-.12-.18-2.75-.72-3.49-1.07-.89-.41-3.19-2.9-3.65-1.14-.38,1.48,2.55,3.31,3.83,3.6.44.67-2.03,2.65-2.3,3.71-.49,1.93.82,2.71,2.31,1.33.9-.83,4.06-5.31,3.29-6.43ZM38.73,240.12c-.79-.86-.81.17-.95.72-.45,1.86-.81,6.89.23,8.39.38.55,1.48.67,1.68.48.81-.82-2.28-5.03,1.44-4.8.73,1.42-.18,5.12,1.94,3.62.93-.65-.26-4.8-.56-5-.58-.37-2.87.13-3.77-.07.31-.64.32-3,0-3.35ZM34.9,240.61c-.5-.49-9.13,3.85-7.37,5.8.63.7,4.37,3.53,5.2,3.32,2.93-.75-3.35-3.73-2.63-4.79.19-.28,6.43-2.72,4.79-4.32ZM76.51,241.68c-2.58-2.54-7.06,1.88-6.03,5.3.98,3.24,11.29,1.79,2.31-.87.17-1.59,2.36-.06,3.61-1.18.77-.7.86-2.51.11-3.25ZM50.56,246.19c2.58-2.57.59-4.83-2.85-4.04-2.12.48-3.99,3.72-3.62,5.78.57,3.19,7.16,3.36,5.62.89-.41-.65-3.7-.46-3.29-1.97,1.49.85,2.96.53,4.14-.65ZM84.78,242.05c-.23-.23-5.11.88-6.23,0,1.46,1.41.07,6.72,2.43,5.06.8-.56.21-2.24.51-2.61.15-.18,4.82-.91,3.3-2.45ZM57.61,244.31c-.53-.48-.56-1.46-1.46-1.72-4.16-1.23-7.02,8.85-.97,7.04,1.39-.42,1.63-2.17,1.79-2.3.98-.75,1.01.95,1.41,1.2,3.08,1.95,1.45-2.55.54-3.78-.33-.44-1.04-.19-1.31-.43ZM169.67,245.88c-.67-.34-1.28.3-.95.47.67.34,1.28-.3.95-.47ZM168.71,246.84c-.53-.53-2.15,1.82-2.39,2.16-.4.54-1.2.75-.96,1.67l3.35-3.83ZM162,253.55c.89.84,2.57-1.46,2.87-2.16-.74-.35-3.11,1.93-2.87,2.16ZM91.26,253.55v.48c.31-.16.31-.32,0-.48ZM90.3,254.03v.48c.31-.16.31-.32,0-.48ZM135.14,276.57s-.65.13-.84-.09c-.52-.61.53-2.09-.83-1.82-.86,2.86-1.39,2.1-3.6,3.59.71.42,2.03.28,2.88.24l-59.47,54.19c1.69-6.63-2.32-2.06-1.44,1.92-3.21,3.33-7.01,6.78-8.88,11.02,4.02-2.07,6.19-8.62,10.8-9.1.94-.1,2.21.23,3.06-.06.79-.27.71-1.32.79-1.38.15-.12,1.52,1.42,2.39.96l-.48-5.75c1.78-1.68,3.48-3.56,5.28-5.28-.34.35-.67,8.76-.48,9.83.34,1.9,2.43,1.63,2.42-.45,0-.78-.47-1.61-.5-2.43-.08-2.31.06-4.64,0-6.95h-1.44c15.77-15.11,31.27-28.74,47.48-43.16l1.58,1.38c.62-.76,6.89-1.53,5.13-3.3-.29-.29-2.02.87-1.44-1.92,1.79.1,4.61.11,4.32-2.4-1.01.15-2.45-.21-3.36,0,6.08-5.47,12.54-10.67,18.48-16.29.74-.7,4.34-4.11,4.54-4.58.25-.59-.11-.9-.71-.71l-25.67,22.54ZM87.83,257.08c.54-.56,2.12-1.01,2-2.08l-3.62,2.61-9.56,10.09c4.38-2.68,7.63-6.96,11.19-10.63ZM55.53,262.67c-.7-.96,1.39-7.22-1.44-7.19.55,2.02-1.32,12.08,0,12.94,2.29,1.49,1.83-4.33,3.59-4.34,2.87,0,.53,6.05,3.15,4.13,2.45-1.8-2-8.84-5.3-5.54ZM51.69,257.39c-.51-.55-6.98,4.43-8.18,4.6-.33,1.46,2.96,4.04,4.19,4.9s2.36,1.77,3.99,1.52c.6-2.37-1.39-2.15-2.98-3.38-.44-.34-2.4-2.15-2.29-2.61.66-.81,6.49-3.73,5.27-5.04ZM75.19,261.23c.86.98-4.28,5.05-1.67,5.75,1.51.41,5.04-4.87,4.5-6.41-.14-.41-4.06-1.84-4.73-2-.85-.21-.87-.23-1.45.51-.23,1.12,2.36,2.34,3.36,2.16ZM65.6,266.98c2.64,1.67,1.57-4.91,1.45-6.01-.09-.83.13-1.58-.75-2.13l-1.2,4.57c-.18.61.27,3.44.49,3.58ZM71.35,272.73c.62.64,4.21-3.37,4.08-4.3-.57.46-4.83,3.53-4.08,4.3ZM236.33,275.14c.21.3-5.42,5.44-2.63,6.22.93.26,1.12-.28,1.61-.78.77-.8,3.67-5.18,3.37-6.1-.15-.47-7.39-4.41-8.58-4.63-.89.79,5.16,5.36,6.23,5.28ZM244.97,290.96c-.44.37-3.68,2.08-2.88,2.88.68.67,2.97-2.11,3.35-2.4,8.3-6.25,19.41-12.21,26.81-19.47.3-.3,1.52-1.1,1-1.63-.38-.38-7.7,4.91-8.59,5.55-6.64,4.78-13.47,9.8-19.7,15.07ZM213.31,270.82c-.59-.63-8.25,3.39-8.57,4.65-.63,2.45,6.55,7.21,8.96,5.8.42-.24,4.54-7.5,4.78-8.4.17-.63.54-1.8-.61-1.57-3.58,4.23-5.12,11.61-10.79,4.55,0-.51,5.2-2.99,5.92-3.56.46-.36.4-1.36.3-1.47ZM90.05,271.3c-.53-.53-.98-.04-.97.73.03,3.12,1.47,6.94,1.2,10.32,2.81,1.48,1.12-4.82,3.82-4.33s1.24,2.77,1.46,4.32c.34,2.41,2.04-.04,2.15-1.74.21-3.19-3.64-6-6.21-3.54-.17-.97-1.04-5.34-1.45-5.75ZM127.94,271.3c-2.54-.89-2.44,4.26-1.19,4.79,2.1.9.91-3.52,1.19-4.79ZM146.17,271.3c-1.21-1.25-3.45,3.19-2.87,4.31,1.6.3,3.58-3.58,2.87-4.31ZM130.34,271.78c-1.25-1.57-2.58,5.79.49,4.07l-.49-4.07ZM148.57,271.78c-.84-.17-1.23.42-1.55,1.08-1.74,3.67,2.55,2.85,1.55-1.08ZM162.48,271.78v8.87c0,.42,1.09.88,1.67.71,1.31-.37-.03-2.6.24-2.87.11-.11,2.55-.22,3.11-.49.74.03-.88,4.41,2.17,2.64.06-.67-.93-6.48-1.2-6.96-1.14-2.03-1.18,2.66-1.27,2.82-.16.27-2.4.76-2.77.51-1.08-1.65.5-5.13-1.96-5.24ZM228.66,279.93c.32-.31-1.68-7.41-3.33-7.95-5.46-1.78-9.53,8.18-4.84,9.65,3.74,1.18,4.54-4.02,5.77-3.14.07.05.06.94.47,1.2s1.78.39,1.94.24ZM156.24,275.14c-1.02,1.13-1.83,2.5-2.85,3.61-.33.36-4.94,3.34-2.17,4.05,1.38.35,7.22-6.62,7.38-7.5.26-1.43-5.94-3.3-6.19-3.05-1.17,1.18,2.8,3.2,3.83,2.88ZM197.32,272.4c-4.84.25-6.01,11.46.65,9.71,6.2-1.62,3.78-9.95-.65-9.71ZM68.95,274.66c-1.1,1-4.26,2.31-4.83,3.08-.76,1.03-.24,1.91-.44,2.67l-3.83,4.08c.99-.33,3.61-2.82,3.83-3.6.3.05.71-.07.96,0,1.29.38,4.01,3.69,4.79,2.88,1.04-1.09-2.09-4.15-3.35-4.31.13-.14.09-.97.68-1.45,1.32-1.08,3.45-1.6,4.59-3.11l-.96-.24.24-1.91c-1.27.25-1.58,1.82-1.68,1.91ZM120.75,275.14c1.27-1.67-3.59-3.71-5.3.21-.78,1.8-.23,5.17-2.37,4.59l3.13,4.31c1.15.29,1.73-3.62,1.69-4.03-.04-.44-1.22-.4-1.42-1.05-.56-1.82,1.53-7.3,4.28-4.03ZM178.78,273.7c-1.91.49-5.94-1.51-7.24.19-1.04,1.36-.8,8.32.51,9.18.86.57,6.51-.47,6.73-.74.05-.05.05-1.33,0-1.42-.65-.99-5.04.63-5.26.46-.11-.08-.74-1.74-.03-2.18,1.06-.66,3.37.56,3.37-.93-1.08-1.8-4.15,1.04-4.33-1.45-.24-3.2,1.94-1.84,3.87-1.91.73-.03,2.85.06,2.38-1.21ZM181.66,273.7c-.96-.12-.79-.1-1.08.6-.24.56-.87,5.57-.86,6.38.05,3.17,3.08,1.94,4.93,1.14.41-.18.39-.92.59-.9,1.47.18,3.56,2.04,5.54.21.24-2.72-2.28-1.06-2.4-1.19-.2-.24,1.02-5.15.47-6.24-.39.06-1.3-.1-1.43,0-.77.64-.74,6.01-.96,6.24-.17.17-3.93-.01-4.8.48v-6.71ZM82.38,282.81c.92-.88-1.85-2.77-2.14-3.38-.73-1.54.05-3.65-2.53-4.2-5.27-1.13-7.29,7.74-5.1,8.47,3.8,1.27,5.19-3.27,5.69-3.28.63.76,3.09,3.33,4.07,2.39ZM108.76,281.37c.07-.08,1.38-.09,2.09-.55,5.05-3.2-.41-6.42-3.07-3.55-.09,1.17-2.29,2.64-2.3,3.26-.02,2.74,2.53,5.82,5.19,3.47-.78-.26-2.67-1.75-1.92-2.63ZM101.08,277.06c-.07-.06-1.01-.18-.96.23.01,1.59.26,3.18.49,4.75.07.49.97.38,1.19.28,1-.45.49-2.27,1.16-3.16.51-.68,3.05-1.1,2.92-1.39-1.58-2.05-3.66.26-4.55.25-.4,0-.17-.91-.25-.97ZM124.11,278.02c-1.02.12-4.48-.35-4.31,1.43,1.43-.16,4.28.79,4.31-1.43ZM59.84,293.6c-.11,2.47.08,4.97,0,7.43,2.78.42,1.44-.6,2.37-2.18.24-.41,1.6-1.57,1.94-1.17-.14,9.6,3.76.72,1.12-1-1.42-.93-3.31.18-3.51.04-.31-.22-.2-6.2-.48-7.2h-1.44c.98,1.66.04,3.01,0,4.08ZM52.17,290.01c-.54-.59-6.57,4.66-7.85,4.85-1.03.61-1.11,1.71-.3,2.59.25.27,5.75,3.9,6.11,3.97,4.55.94,6.23-7.74,9.72-9.02.14-.82-1.2-.54-1.58-.38-1.91.8-5.88,7.64-7.21,7.52-.63-.06-5.16-3-4.64-3.77.17-.25,4.19-2.23,5.07-3.33.45-.57,1.09-1.99.68-2.43ZM80.4,295.82c-.21-.32-6.11-1.84-7.13-1.98-.3,1.04,1.05,1.44,1.77,1.81.96.5,1.95.91,3.03,1.07.61.84-2.53,2.74-2.8,3.69-.52,1.81.7,2.79,2.25,1.27,1.06-1.04,3.88-4.32,2.88-5.87ZM241.61,293.84c-.65-.65-1.38.69-1.2,1.43.46-.47,2.01-.61,1.2-1.43ZM70.87,294.32c-2.46-.13-2.41,6.93-1.19,7.19,2,.42.95-5.97,1.19-7.19ZM239.45,295.28v.48c.31-.16.31-.32,0-.48ZM141.37,300.08c-.9-.21-1.14.51-1.68.96-1.55,1.29-3.66,3.5-5.05,5.02-1.1,1.21-2.24,2.7-3.11,4.08,2.87-2.83,6.29-5.26,8.88-8.38.45-.54,1.16-.78.96-1.68ZM49.29,309.19c-.81-.7-8.45,3.61-8.6,4.13-.51,1.71,6.68,6.38,7.64,5.45,1.26-1.22-4.14-4.35-4.78-5.03,0-.63,6.86-3.59,5.74-4.55ZM60.33,317.34c1.17-5.96-3.36-9.93-6.73-3.84l-.95-1.44c-1.84-1.66-1.31,6.25-.23,6.71,1.6.68,1.15-1.24,1.53-2.3.71-1.99,1.39-4.1,3.98-3.93v6.23c.87.46,2.25-1.08,2.39-.96.08.07.2,1.3.74,1.9,2.08,2.34,5.19-.39,5.51-2.86,1.3-.42.69.99,1.87,1.24,2,.42,1.5-1.14.92-2.36-.2-.43-2.43-4.05-2.63-4.19-1.68-1.21-3.83-.17-4.58,1.62l-1.82,4.17ZM81.43,318.3c1.32,1.35,5.34-4.4,5.57-5.25.31-1.18-5.35-2.66-5.56-2.42-1.03,1.14,1.86,2.54,2.87,2.4.19.24-3.96,4.16-2.87,5.27ZM73.31,319.21c2,1.39,3.72-4.28,4.06-5.69.15-.62.2-1.26-.51-1.45-2.13-.57-1.63,2.96-2.87,3.82l-2.63-3.35c-.19.91,1.67,6.47,1.96,6.67ZM182.87,320.7c-.77.17-4.49,4.68-2.4,5.75.94.14,3.51-4.31,3.55-4.61.09-.63-.56-1.28-1.15-1.14ZM169.19,321.66v13.67c0,1.4,8.67.94,8.69-3.83.02-3.71-4.57-3.25-7.24-2.64.02-2.14-.18-4.36-.49-6.47-.12-.84.25-.8-.95-.72ZM188.37,322.14c-1.88-.43-2.87,4.25-2.39,4.79,1.82.57,2.75-4.39,2.39-4.79ZM107.32,323.1l-1.35.8c.43,2.22-1.85,13.01.64,13.58,1.94.45.71-3.3.69-4.06-.05-1.59.43-10.02.02-10.33ZM143.29,327.89c.33-.39-.08-5.2-1.91-4.79.03,1.71-.65,4.59,1.91,4.79ZM147.13,323.1c-3.77.14-.49,6.39.48,5.27.07-2.05-1.33-3.17-.48-5.27ZM196.04,324.55c-.14-.09-.66.02-.95,0-.08,1.69,3.13,1.85,2.86,3.08-.21.93-4.23,3.6-4.29,3.88-.13.52.73,1.44,1.18,1.5,1.49.19,5.54-4.25,5.55-5.35.02-1.39-2.98-1.68-3.99-2.18-.49-.24-.33-.9-.37-.92ZM126.02,328.85c-.72-4.49-4.79-2.37-6.1.86-1.19,2.9.67,3.5,2.74,5.14-5.85,5.78,5.23,1.89,2.4-1.43-1.43-1.68-4.49-.78-2.98-3.96s3.8-.41,3.94-.6ZM155.28,334.13c1.14,2.03-2.12,4.46-1.92,5.5.4,2.01,3.35-.28,3.74-2.01.45-1.98-.18-8.82-1.55-10.24-4.16-4.28-10.58,5.56-5.42,7.82,2.48,1.08,3.07-.44,5.15-1.08ZM163.92,334.12c3.97.31,1.89-6.86-.76-7.21-.27-.04-3.86.86-4.01,1.01-.24.23.04,5.57-.51,6.69,3.48,1.23,1.86-4.97,3.6-5.75,2.39-1.07,1.43,5.02,1.68,5.27ZM62.72,332.68c1.7-1.95,4.69-2.16,6.22-4.55-1.86.79-10.17,2.38-8.18,5.31.33.49,5.21,3.64,5.54,3.57,2.87-.57-2.25-4.44-3.58-4.32ZM130.82,328.38c-.21-.25-2.47-.62-3.03-.43s-1.42,1.77-1.56,2.34c-.64,2.65,2.45,3.55,2.64,4.62.15.85-1.94,1.67-1.41,3.05,9.51-2.04.92-5.26.59-7.01-.04-.21.31-2.01.39-2.08.35-.31,3.69,1.08,2.37-.49ZM117.09,330.12c-.64-.78-.66-1.54-1.88-1.75-6.74-1.18-6.59,17.17.98,5.29,0,.75,1.5,4.03,2.63,2.87.19-.2-.36-4.85-.57-5.43-.23-.64-.91-.65-1.17-.97ZM101.57,329.81c-.95-.48-2.41-1.13-3.47-.87-1.23.3-3.79,2.24-4.1,3.61-.99,4.33,2.35,4.84,5.86,4.4.94-.12,2.67-.87,1.72-1.86-.22-.23-5.18.62-5.73-1.26-.32-1.09,1.85-3.16,2.85-3.53h2.88c.62,2.61,3.8,1.45,0-.48ZM139.46,330.29c-.2-.2-5.26.13-4.79,1.91,1.02.42,6.44-.23,4.79-1.91ZM138.49,334.13c-.36-.38-3.38,1.05-4.31,0-.81,3.47,5.92,1.67,4.31,0ZM91.5,345.88c-.38,2.78,0,7.08,0,10.07,0,.83,1.92.83,1.92,0v-9.59c0-.32-.82-1.81-1.2-2.16-.21.33-.68,1.43-.72,1.68ZM89.58,346.12c-.54-.46-6.97,2.8-7.83,3.43-4.67,3.38,4.8,5.43,5.68,8.08,4.56-2.16-5.7-5.14-4.56-6.71.33-.45,6.97-2.29,6.71-4.8ZM100.61,349.47c.51-1.54-3.66-2.07-3.83-1.91,0,1.79,2.56,1.89,3.83,1.91ZM108.62,349.6c-.54-.21-3.36-.34-4.18-.6l3.36,2.15c-1.25.19-5.45,4.91-3.11,5.51,1.37.35,5.25-4.52,5.03-5.9-.01-.08-1.02-1.14-1.1-1.17ZM97.73,352.35h-1.43v2.88h1.43v-2.88ZM190.77,360.51c-1.35-1.41-3.7,3.97-2.87,4.79,1.36,1.35,3.4-4.25,2.87-4.79ZM124.59,361.46c-.6-.8-.87.05-.96.71-.41,3.14.65,6.53.91,9.65.1,1.21-1.04,1.89.28,3.07,1.45,1.29,1.58-3.56,1.95-4.3,1.54-3.1,3.74,2.51,3.1,4.3,2.97.49,2.05-4.5.5-6.02-2.28-2.23-4.44.16-4.81-.22l-.96-7.2ZM190.78,366.74c.97,1.06,3.19-3.88,2.87-4.79-1.15.18-3.47,4.15-2.87,4.79ZM149.53,370.1c-.76-2.33-1.83-3.71-4.52-3.35-.8.11-1.45.75-2.07.84-2.28.34-5.19.79-7.32.58l-.49,5.52c2.7,1.18,1.51-2.19,2-3.04.23-.39,3.91-1.4,4.71-1.51.65.71-4.15,6.57,3.11,6.25.52-.02,2.17-.18,2.16-.97l-3.35-1.44c1.17.04,5.09-1.73,5.75-2.4,2.2.29,1.14,2.87,2.39,3.6,3.2,1.86,1.25-1.97,1.49-2.81s1.69-.83,1.87-1.75c-2.87.76-.85-3.81.05-4.99,1.26-1.65,2.28-.3,3.77-.05-1.66-3.19-3.93-2.96-5.84-.1-1.26,1.9-1.23,5.72-3.75,5.61ZM170.63,366.26c.13-.14-.74-3.27-.72-3.83-1.65.75-.33,4.96.72,3.83ZM166.79,366.26c.42-.48-.46-3.76-1.91-3.35-.42.48.46,3.76,1.91,3.35ZM203.15,367.61c-.11.19-3.03,1.71-3.7,2.28-1.77,1.49-6.08,5.89-.73,4.54,1.29-2.22,6.79-5.15,6.94-7.5.17-2.8-5.67-1.89-7.2-4.03-.29,1.83,1.56,2.6,2.88,3.13.96.38,2.81-.12,1.82,1.58ZM175.43,367.22v-3.83c-1.82,2.42-.71,4.88-4.8,4.32.84,1.63,3.72-.07,2.89,2.55-.21.65-1.79.51-1.45,1.76,1.08-.46,3.06,2.18,3.83,1.44.19-.18-.16-2.41,2.64-2.41.62,1.45-.48,2.27,1.68,1.93-.44-1.14.55-2.86.51-3.57-.03-.53-1.2.07-.98-.74,1.59-.05,5.15.67,4.07-1.93-3.19-.39-5.24,1.57-4.56-2.87-1.14.11-.7,2.5-1.02,2.81-.17.17-2.25.3-2.81.54ZM282.86,374.89c.12.02.4.62,1.07.43,1.15-.33,4.21-5.3,4.2-6.44-.01-.99-5.2-4.7-5.98-4.54-2.79.56,3.13,4.27,3.13,4.59,0,.96-1.68,3.26-2.42,4.04-.03-.07-.68-.35-.88-.78-.55-1.16-1.59-2.8-1.99-3.78-.13-.32,1.89-.46,1.43-1.67-8.94-2.92-14.21,15.69-1.44,5.75.34,2.51,1.04,2.1,2.88,2.4ZM105.4,364.82c-1.96-.24-3.42,1.18-5.15,1.8-1.15.42-4.55,1.13-5.12,1.52-1.67,1.15,2.9,3.19,3.8,3.87,1.31.99,1.17,2.94,3.59,1.92.49-1.63-4-4.38-3.35-5.27.74-.06,7.29-2.93,6.23-3.84ZM265.11,373.45c-.89-1.97-2.4-1.89-4.09-2.39-.53-.15-1.48-.16-.7-.96.14-.15,2.66-1.17,3.58-1.94.42-.34,2.7-2.36,2.17-2.86l-7.54,3.96c-2.11,3.43,3.13,4.05,5.63,5.15,1.27.56,1.5,1.82,3.39.27.53-.43,5.09-6.56,5.55-7.39.37-.66.84-1.11.64-1.99-.91-.21-1.14.51-1.68.96-1.99,1.62-5.15,5.18-6.95,7.19ZM211.89,367.21c-.2-.13-.19-1.82-1.46-1.42.76,1.32-.64,9.69,1.93,6.48,1.16-1.46.66-4.46,3.59-4.61,2.34-.12.17,5.71.72,6.27.25.26,1.29.01,1.66-.49.6-.8.72-7.96,2.69-5.45,1.21,1.54.9,4.05,1.15,4.5.46.84,1.36.5,1.62-.32.42-1.33-.95-5.43-2.17-5.85-1.88-.64-2.89.77-3.29.78-.34,0-.86-1.03-1.53-1.24-2.33-.74-4.37,1.68-4.92,1.34ZM232.91,366.8c-.21-.34-2.78-1.08-3.48-1.02-7.52.7-3.07,14,2.58,6.95-1.91.37-3.75.55-4.31-1.67,1.64-.18,6.55-2.07,5.21-4.26ZM242.09,372.49c.12-.1.48-2.49.4-3-.56-3.58-4.26-4.86-6.63-1.8l-.24-1.44c-2.13,1.76-.25,4.3-.72,6.71.39-.06,1.33.09,1.43,0,.22-.2.17-5.05,2.16-5.32,2.48-.33,1.15,3.23,1.9,4.37.35.52,1.45.67,1.69.47ZM111.15,370.1c-.46,2.39,4.41,4.71,3.84,2.17-.08-.35-4.01-5.57-4.31-5.76-5.14-3.13-9.16,10.34-3.36,7.66.84-.39,3.62-4.24,3.84-4.07ZM246.41,372.01l-.72-5.75c-1.58,1.1-1.66,6.38-.73,7.44,2,2.28,5.61-2.28,6.96-3.61l.24,2.4c2.52.53,2.1-.89,1.91-3.12-.68-7.86-4.44,2.69-7.66,2.63ZM163.43,369.13c.11-.11.05-1.1-.21-1.46-.8-1.11-5.05.17-5.05.74,0,.94,5.07.91,5.26.72ZM162,371.06c-1.08.07-4.07-.4-3.83,1.43,1.55.1,3.17.24,3.83-1.43Z" fill="#2a2a2b"/><path d="M74.71,168.18c.04-.92-.17-1.88.1-2.78,3.57-1.97,7.46-3.54,11.41-4.65,2.28-.64,10.37-1.55,10.95-3.46s-1.05-3.53-2.98-3.47c-1.64.05-7.38,1.68-9.29,2.25-3.66,1.08-7.08,2.69-10.66,3.96-1.56-7.49-3.91-14.86-5.15-22.43-2.14-13.06-3.26-22.09,5.86-32.73,3.5-4.08,10.11-9.33,12.93-13.45,1.6-2.34,2.32-6.54,3.54-9.4,2.03-4.73,4.94-8.42,7.76-12.62.91-.12.25.87.15,1.35-1.03,4.8-1.7,10.26-1.12,15.21.13,1.09.61,2.66,1.78,3.01,3.34,1,10.88-1.32,14.79-.41,11.81.52,25.19,2.56,36.93,1.48,4.93-.45,4.51-6.94,5.84-10.95.61-1.84,1.6-4.47,2.44-6.19.42-.85,2.54-5.09,3.44-4.46,1.62,2.96,3.52,5.91,4.47,9.2s.88,8.12,1.89,11.06c.27.8,1.48,1.81,2.26,2.06,4.16,1.32,11.16,1.72,15.87,2.83,5.46,1.29,17.96,6.54,22.29,6.53,1.06,0,2.13-.18,2.84-1.03l4.11-7.64c1.8,3.59-.04,14.31,1.2,16.79.51,1.02,5.09,1.73,6.66,2.45,6.84,3.12,16.81,14.81,20.22,21.5,2.2,4.31,3.14,9.61,5.21,13.98.38.8,1.25,1.03,1.27,1.18.12,1.42-5.17,7.52-.64,8.76,2.77.76,3.17-4.3,5.15-6.18,8.97-8.55,16.9,7.16,16.08,15.6-.73,7.52-8.78,17.86-16.99,16.52-1.29-.21-2.27-1.3-3.43-1.4s-2.18.56-3.31.52c-3.08-.12-4.97-.9-8.39-.04.16-2.4-2.8-4.08-4.65-5.18-15.46-9.17-37.14-4.01-39.83,15.62-.85,6.19.91,10.02,4.19,14.98-.61.42-1.68,1.71-2.22,1.8-.6.11-1.49-.46-2.32-.39-30.54,2.89-83.33,12.77-107.69-10.05,1.69-.46,2.58-2.3,3.1-3.85,4.02-11.97-2.23-26.1-16.05-25.88ZM195.57,110.63c-1.03-3.74-5.02-5.72-8.63-4.31l4.18,1.32c1.56.71,2.43,3.03,4.44,2.99ZM82.86,112.56c-2.22-.22-4.84,2.9-6.22,4.56-.35.42-2.28,2.79-1.93,3.1,1.15,1.03,2.16-1.83,2.68-2.35,1.72-1.71,4.12-3.15,5.47-5.32ZM178.65,154.37c-1.75.37-2.9,2.02-2.03,3.75.67,1.34,2.51.8,3.72,1.08,9.06,2.08,18.51,3.51,27.21,6.84,2.13.81,9.2,5.65,8.16-.46-.64-3.78-14.68-6.87-18.22-7.7-4.82-1.13-12.41-3.09-17.08-3.57-.62-.06-1.14-.06-1.75.07ZM255.04,167.23c-.16,2.32,1.06,7.23,4.12,4.84,2.43-1.9-.36-6.27-.23-7.49.1-.92,4.23-.65,3.8-3.8-.58-4.19-8.24.07-10.04,1.45s-6.82,6.89-3.4,8.6,3.15-3.34,5.76-3.6ZM142.7,176.46c-2.19-2.2-5.39,1.87-7.22,2.86-3.01,1.62-6,1.76-9.16.33-2.12-.95-1.51-2.17-2.4-2.88-2.65-2.12-6.83.94-2.7,5.1,3.62,3.64,10.85,4.49,15.48,2.5,2.05-.88,8.47-5.44,6-7.91Z" fill="#fefdfd"/><path d="M309.24,238.21c-.98-6.55-2.04-13.85-4.07-20.15-1.24-3.84-2.6-4.13-6.12-5.39-10.09-3.64-21.06-2.25-31.54-3.71-.02-2.71.51-12.2-3.55-12-.7.03-1.88.57-2.13,1.28-.41,1.17.6,7.48.34,9.93-.12,1.15-.51,2.81-.88,3.92-1.33,4.05-10.36,12.27-13.93,15.33-8.3,7.1-18.72,12.2-27.81,18.25-2.14.75-1.47-2.4-4.8-.98-1.86.8-7.18,10.19-9.83,12.71-5.28,5.03-10.9,8.9-18.36,6.83-9.51-2.65-7.22-6.91-5.04-14.88,5.36-19.56,11.19-31.33,27.79-43.19,5.7-4.07,27.79-19.77,33.12-20.59,3.84-.6,11.13.48,14.54,2.49,2.72,1.6,3.69,10.61,7.36,7.9,2.74-2.02-2.57-8.4-1.58-9.97,7.51-3.66,13.61-10.66,14.33-19.24.76-.74,5.99,3.13,6.94,3.85,10.85,8.34,20.62,17.51,27.79,29.28,5.79,9.52,3.2,15.12,2.66,25.6-.13,2.44.43,5.98,0,8.16-.34,1.78-3.74,3.77-5.26,4.57Z" fill="#fcfbfb"/><path d="M315.88,264.17c.82.53,3.13,15.83,4.93,18.81,4.97,8.21,9.65-10.16,10.49-13.12,1.21.5,4.22.64,5.03,1.43.9.88,3.97,10.61,4.95,12.8,1.49,3.33,6.29,10.38,6.35,13.35.04,2.13-.52,2.61-1.56,4.23-5.18,8.07-14.2,16.34-22.5,21.15-1.66.96-8.7,3.84-9.01,4.94-.26.93.34,2.5,1.1,3.05,1.9,1.37,6.11-1.21,7.96-2.18,2.63-1.38,4.92-3.41,7.66-4.56,1.02,1.17-1.92,22.44-2.54,25.51-1.47,7.26-2.74,15.76-12.04,14.72-2.43-.27-7.77-2.39-8.01-4.97-.12-1.25.51-2.54.55-3.83.24-7.64-.2-15.34-.05-22.99,5.9-.74,5.86-6.01-.45-5.09-.27-5.02-.26-10.08-.48-15.1-.62-14.03-2.33-31.81-.5-45.59.43-3.24,5.55-2.54,8.11-2.55Z" fill="#fcfbfb"/><path d="M131.17,263.02c-1.65,1.66-7.04,2.51-9.23,1.09-1.2-.78-5.85-6.16-7.2-7.67-2.02-2.27-3.73-4.92-5.74-7.21-11.11-12.64-25.53-25.29-22.31-44.12,2.04-.02,3.51,1.71,5.26,2.65,5.56,2.97,11.11,5.28,17.27,6.71,2.53.59,12.66,1.75,13.65,2.66,3.54,4.77,6.12,10.15,9.37,15.09,1.64,2.49,9.87,12.83,10.02,14.46s-4.1,1.43-5.24,1.81c-3.74,1.26-2.68,6.83-3.56,9.87-.13.45-2.12,4.47-2.3,4.65Z" fill="#fcfbfb"/><path d="M240.17,181.13c-3.9.98-12,6.52-15.79,8.91-8.19,5.19-16.51,10.98-24.5,16.51-3.28-4.96-5.04-8.79-4.19-14.98,2.69-19.63,24.37-24.78,39.83-15.62,1.85,1.1,4.81,2.78,4.65,5.18Z" fill="#f9c4ba"/><path d="M87.66,197.92c-8.39-7.86-13.45-17.94-12.95-29.74,13.83-.22,20.07,13.91,16.05,25.88-.52,1.55-1.41,3.4-3.1,3.85Z" fill="#f9c4ba"/><path d="M80.94,208.95c.19,1.64-4.33,1.83-5.52,1.91-8.44.61-16.98.09-25.43.47-10.53.47-21.78,2.48-32.11,2.46-1.92,0-6.13-1.18-7.81.05-.67.49-1.85,9.52-2.01,11.18-1.69,17.38-1.19,35.96.49,53.21.07.69.53,3.59-.98,3.14-1.77-18.12-4.5-43.35-1.85-61.08.95-6.33.9-8.36,7.43-9.36,15.14-2.32,33.38-1.2,48.88-1.48,4.58-.08,9.24-.46,13.91-.48,1.67,0,3.15-.83,5.02-.02Z" fill="#f2f0ef"/><path d="M192.21,213.75l-4.11,6.2c-1.75,1.96-4.35.56-6.2.61-16.44.47-31.05.6-47.53-.05-1.34-.05-2.56,1.09-3.79-.04-.12-.11-1.61-2.5-1.67-2.65-.33-.82.22-.66.71-.72,2.69-.34,7.98.97,11.01.99,5.82.04,11.87-1.46,17.76-.99l33.81-3.35Z" fill="#a9a8a8"/><path d="M303.96,252.11c-.2.76-1.41,1.4-1.91.96-1.54-1.37-1.5-24.04-1.45-27.58.01-.81-.31-2.13.49-2.63,3.02,10.45,3.49,18.45,2.88,29.26Z" fill="#f2f0ef"/><path d="M163.44,397.43c.07,2.45-.79,8.51.27,10.04,2.14,3.09,3.96-.92,4.62-1.31.96-.56,11.96,1.1,14.05,1.33,1.26.14,2.57-.15,3.83.01,1.73.22,13.75,2.29,14.13,2.9.08.13.08,1.22-.01,1.37-1.76,2.74-33.03,1.82-38.11,1.94-18.73.43-43.71,2.68-61.91-1.83-.58-.14-2.09-.27-2.09-1.02,9.77-4.47,20.65-4.9,30.91-7.7,1.2,3.63,1.31,3.42,4.58,2.9,1.58-.25,4.9-.73,6.03-1.89.59-.6.52-1.52.82-1.81.47-.47,3.31-1.95,3.94-3.03.37-.63.15-1.75.27-1.88.64-.68,16.36.48,18.68-.02Z" fill="#a9a8a8"/><path d="M133.7,406.07c2.32-3.21-.09-7.83.48-10.79.1-.54.17-.97.79-1.13l28.47-.07c.02,1.12-.04,2.24,0,3.36-2.32.5-18.05-.66-18.68.02-.12.13.1,1.25-.27,1.88-.63,1.08-3.46,2.56-3.94,3.03-.3.3-.23,1.21-.82,1.81-1.14,1.15-4.45,1.63-6.03,1.89Z" fill="#7c7d7e"/><path d="M38.74,386.88c-.77-.03-1.99.3-2.4-.48.91.12,1.89.42,2.4.48Z" fill="#a9a8a8"/><path d="M43.54,387.36h-1.92c.15.01,1.02-.08,1.92,0Z" fill="#a9a8a8"/><path d="M60.33,317.34l1.82-4.17c.75-1.78,2.91-2.83,4.58-1.62.2.14,2.42,3.77,2.63,4.19.58,1.22,1.08,2.78-.92,2.36-1.18-.25-.56-1.66-1.87-1.24-.32,2.46-3.43,5.2-5.51,2.86-.54-.6-.66-1.83-.74-1.9-.15-.13-1.53,1.42-2.39.96v-6.23c-2.6-.18-3.28,1.94-3.99,3.93-.38,1.06.07,2.98-1.53,2.3-1.08-.46-1.6-8.37.23-6.71l.95,1.44c3.37-6.1,7.89-2.12,6.73,3.84ZM66.07,312.55c-1.51-1.38-4.26,4.28-3.35,5.75,1.16,1.37,3.68-5.45,3.35-5.75Z" fill="#7e9fc3"/><path d="M149.53,370.1c-.04.16.06.42,0,.48-.66.67-4.58,2.44-5.75,2.4l3.35,1.44c.01.78-1.64.94-2.16.97-7.26.32-2.46-5.54-3.11-6.25-.8.11-4.49,1.13-4.71,1.51-.49.85.7,4.22-2,3.04l.49-5.52c2.14.21,5.04-.24,7.32-.58.62-.09,1.27-.73,2.07-.84,2.68-.37,3.75,1.02,4.52,3.35ZM143.29,371.53c2.32.76,6.46-3.41,2.63-3.4-2.05,0-1.87,1.94-2.63,3.4Z" fill="#7fa1c6"/><path d="M155.28,334.13c-2.08.63-2.68,2.16-5.15,1.08-5.16-2.25,1.26-12.1,5.42-7.82,1.37,1.41,2,8.26,1.55,10.24-.39,1.72-3.34,4.02-3.74,2.01-.21-1.04,3.05-3.48,1.92-5.5ZM154.8,327.89c-2.11-1.78-6.76,4.03-3.83,5.53,3.16,1.62,4.13-5.28,3.83-5.53Z" fill="#7fa1c6"/><path d="M213.31,270.82c.1.11.16,1.11-.3,1.47-.72.57-5.92,3.06-5.92,3.56,5.67,7.06,7.21-.33,10.79-4.55,1.14-.23.78.94.61,1.57-.24.9-4.37,8.16-4.78,8.4-2.41,1.41-9.59-3.35-8.96-5.8.33-1.26,7.99-5.27,8.57-4.65Z" fill="#7fa1c6"/><path d="M52.17,290.01c.41.45-.22,1.86-.68,2.43-.88,1.1-4.9,3.08-5.07,3.33-.53.77,4.01,3.71,4.64,3.77,1.33.13,5.3-6.72,7.21-7.52.38-.16,1.72-.44,1.58.38-3.48,1.28-5.16,9.96-9.72,9.02-.36-.07-5.86-3.71-6.11-3.97-.81-.88-.73-1.98.3-2.59,1.29-.19,7.31-5.44,7.85-4.85Z" fill="#7e9fc3"/><path d="M211.89,367.21c.54.34,2.59-2.08,4.92-1.34.67.21,1.19,1.24,1.53,1.24.4,0,1.42-1.41,3.29-.78,1.22.42,2.58,4.51,2.17,5.85-.26.82-1.16,1.16-1.62.32-.25-.46.06-2.96-1.15-4.5-1.96-2.51-2.08,4.65-2.69,5.45-.38.5-1.41.74-1.66.49-.55-.57,1.62-6.39-.72-6.27-2.92.14-2.42,3.15-3.59,4.61-2.57,3.21-1.17-5.16-1.93-6.48,1.27-.4,1.26,1.3,1.46,1.42Z" fill="#7e9fc3"/><path d="M228.66,279.93c-.15.15-1.51.03-1.94-.24s-.4-1.15-.47-1.2c-1.23-.88-2.03,4.32-5.77,3.14-4.69-1.47-.62-11.43,4.84-9.65,1.65.54,3.65,7.64,3.33,7.95ZM223.73,273.3c-2.84.57-4.3,6.25-2.5,6.63,1.61.34,3.13-4.78,4.54-5.53-.08-1.23-1.03-1.31-2.05-1.1Z" fill="#7fa1c6"/><path d="M175.43,367.22c.56-.24,2.64-.37,2.81-.54.32-.31-.12-2.7,1.02-2.81-.68,4.44,1.37,2.48,4.56,2.87,1.08,2.6-2.49,1.87-4.07,1.93-.22.82.95.22.98.74.04.72-.95,2.44-.51,3.57-2.16.34-1.07-.48-1.68-1.93-2.8,0-2.45,2.23-2.64,2.41-.77.73-2.75-1.91-3.83-1.44-.34-1.25,1.24-1.11,1.45-1.76.83-2.62-2.04-.92-2.89-2.55,4.09.56,2.97-1.89,4.8-4.32v3.83ZM178.3,368.66h-3.35c.2,2.32.91,2.28,2.74,1.07.46-.3.87.05.62-1.07Z" fill="#7c9cc0"/><path d="M169.19,321.66c1.2-.08.82-.12.95.72.31,2.11.51,4.33.49,6.47,2.68-.6,7.26-1.07,7.24,2.64-.02,4.77-8.69,5.24-8.69,3.83v-13.67ZM171.11,334.12c3.11.38,8.16-3.54,2.98-4.22-3.04-.4-3.12,1.76-2.98,4.22Z" fill="#7fa1c6"/><path d="M282.86,374.89c-1.84-.29-2.54.11-2.88-2.4-12.76,9.94-7.5-8.67,1.44-5.75.46,1.21-1.57,1.35-1.43,1.67.4.98,1.45,2.62,1.99,3.78.2.43.85.71.88.78.16.4-.11,1.38,0,1.92ZM279.5,367.22c-1.86-.6-5.8,5.72-5.27,6.23,3.87.08,4.71-3.02,5.27-6.23Z" fill="#7e9fc3"/><path d="M244.97,290.96c6.23-5.27,13.06-10.28,19.7-15.07.89-.64,8.21-5.93,8.59-5.55.52.53-.7,1.33-1,1.63-7.4,7.26-18.51,13.22-26.81,19.47l-.48-.48Z" fill="#7c7d7e"/><path d="M82.38,282.81c-.98.94-3.45-1.63-4.07-2.39-.5.01-1.89,4.55-5.69,3.28-2.19-.73-.17-9.6,5.1-8.47,2.58.55,1.8,2.66,2.53,4.2.29.61,3.05,2.5,2.14,3.38ZM78.55,277.53c-2.5-3.11-5.22,1.75-4.79,4.32,2.94.13,2.02-4,4.79-4.32Z" fill="#7e9fc3"/><path d="M117.09,330.12c.26.32.94.33,1.17.97.21.58.76,5.24.57,5.43-1.13,1.16-2.62-2.13-2.63-2.87-7.58,11.89-7.72-6.47-.98-5.29,1.22.21,1.24.97,1.88,1.75ZM112.12,335.56c1.56-.88,2.6-2.96,3.37-4.55.26-.54.67-1-.26-1.2-2.24-.47-3.37,4.18-3.1,5.75Z" fill="#7fa1c6"/><path d="M197.32,272.4c4.43-.23,6.86,8.09.65,9.71-6.66,1.75-5.49-9.46-.65-9.71ZM195.69,275.26c-2.16,2.51.87,7.84,3.75,3.5,1.7-2.56-2.02-5.51-3.75-3.5Z" fill="#7fa1c6"/><path d="M181.66,273.7v6.71c.87-.49,4.63-.31,4.8-.48.22-.22.2-5.6.96-6.24.13-.11,1.04.06,1.43,0,.55,1.09-.68,6-.47,6.24.11.13,2.63-1.53,2.4,1.19-1.98,1.83-4.07-.03-5.54-.21-.2-.02-.18.72-.59.9-1.85.81-4.88,2.03-4.93-1.14-.01-.81.62-5.82.86-6.38.3-.69.12-.72,1.08-.6Z" fill="#7fa1c6"/><path d="M55.53,262.67c3.29-3.3,7.75,3.75,5.3,5.54-2.62,1.92-.28-4.13-3.15-4.13-1.76,0-1.3,5.83-3.59,4.34-1.32-.86.55-10.93,0-12.94,2.83-.02.74,6.23,1.44,7.19Z" fill="#7fa1c6"/><path d="M111.15,370.1c-.22-.17-3,3.68-3.84,4.07-5.79,2.68-1.78-10.79,3.36-7.66.31.19,4.23,5.41,4.31,5.76.58,2.54-4.29.22-3.84-2.17ZM110.2,367.7c-2.98-.82-3.73,2.36-3.83,4.79.85-.19,4.4-4.32,3.83-4.79Z" fill="#7e9fc3"/><path d="M135.14,276.57l25.67-22.54c.6-.19.96.12.71.71-.2.47-3.8,3.88-4.54,4.58-5.94,5.62-12.4,10.82-18.48,16.29-.88.2-4.27,3.62-5.31,4.54-.67.6-.86,1.63-.93,1.69-16.21,14.42-31.71,28.05-47.48,43.16-1.79,1.72-3.49,3.59-5.28,5.28-.29.27-1.21.78-1.92,1.44-1.05.98-2.7,1.76-2.88,3.36-.35.11-1-.08-1.44,0l.48,1.44c-4.6.49-6.78,7.03-10.8,9.1,1.86-4.24,5.66-7.69,8.88-11.02.65-.67.79.65,1.44-1.92l59.47-54.19c.54-.03,1.45.18,1.83-.08.19-.13.71-1.66.57-1.84Z" fill="#7c7d7e"/><path d="M178.78,273.7c.47,1.27-1.65,1.18-2.38,1.21-1.93.07-4.1-1.3-3.87,1.91.18,2.49,3.25-.35,4.33,1.45,0,1.5-2.31.27-3.37.93-.71.44-.08,2.09.03,2.18.21.16,4.61-1.46,5.26-.46.06.09.05,1.36,0,1.42-.23.27-5.87,1.31-6.73.74-1.31-.86-1.55-7.81-.51-9.18,1.3-1.7,5.33.3,7.24-.19Z" fill="#7fa1c6"/><path d="M124.59,361.46l.96,7.2c.38.38,2.53-2.01,4.81.22,1.56,1.52,2.47,6.51-.5,6.02.65-1.78-1.56-7.4-3.1-4.3-.37.74-.5,5.59-1.95,4.3-1.32-1.18-.18-1.86-.28-3.07-.27-3.12-1.33-6.51-.91-9.65.09-.66.35-1.51.96-.71Z" fill="#7e9fc3"/><path d="M203.15,367.61c1-1.71-.86-1.2-1.82-1.58-1.32-.53-3.17-1.3-2.88-3.13,1.52,2.15,7.37,1.23,7.2,4.03-.14,2.35-5.64,5.28-6.94,7.5-5.35,1.35-1.04-3.05.73-4.54.68-.57,3.59-2.1,3.7-2.28Z" fill="#7e9fc3"/><path d="M246.41,372.01c3.22.05,6.99-10.49,7.66-2.63.19,2.22.61,3.64-1.91,3.12l-.24-2.4c-1.35,1.32-4.97,5.89-6.96,3.61-.94-1.07-.85-6.34.73-7.44l.72,5.75Z" fill="#7fa1c6"/><path d="M108.76,281.37c-.76.88,1.14,2.37,1.92,2.63-2.67,2.35-5.22-.73-5.19-3.47,0-.61,2.21-2.09,2.3-3.26,2.66-2.87,8.12.35,3.07,3.55-.72.45-2.02.46-2.09.55Z" fill="#7fa1c6"/><path d="M90.05,271.3c.41.41,1.28,4.79,1.45,5.75,2.57-2.47,6.42.34,6.21,3.54-.11,1.7-1.81,4.15-2.15,1.74-.22-1.55,1.22-3.83-1.46-4.32s-1.02,5.81-3.82,4.33c.27-3.38-1.17-7.2-1.2-10.32,0-.77.44-1.25.97-.73Z" fill="#7e9fc3"/><path d="M50.56,246.19c-1.18,1.18-2.65,1.5-4.14.65-.41,1.52,2.88,1.32,3.29,1.97,1.55,2.47-5.05,2.3-5.62-.89-.37-2.06,1.5-5.29,3.62-5.78,3.44-.79,5.43,1.47,2.85,4.04ZM49.77,243.48c-.69-.69-3.37,1.23-3.35,2.39,1.13.6,4.47-1.28,3.35-2.39Z" fill="#7fa1c6"/><path d="M67.99,236.77l.93,9.77c-2.16,2.69-8.67,1.86-7.44-2.12s4.85-1.69,5.07-1.9c.46-.44.38-4.17.48-5.05s-.15-.77.96-.71ZM67.03,245.88c.17-.77-.24-.99-.72-1.44-3.19-3.01-5.55,3.13.72,1.44Z" fill="#7e9fc3"/><path d="M76.51,241.68c.75.74.66,2.55-.11,3.25-1.24,1.13-3.44-.4-3.61,1.18,8.98,2.65-1.33,4.11-2.31.87-1.03-3.42,3.45-7.84,6.03-5.3Z" fill="#7c9cc0"/><path d="M57.61,244.31c.27.24.98-.01,1.31.43.91,1.23,2.54,5.73-.54,3.78-.4-.25-.42-1.95-1.41-1.2-.17.13-.41,1.88-1.79,2.3-6.05,1.81-3.19-8.27.97-7.04.9.27.93,1.25,1.46,1.72ZM53.61,247.8c.66.72,4.11-3.42,2.15-3.83-1.34-.23-2.53,3.42-2.15,3.83Z" fill="#7fa1c6"/><path d="M89.58,346.12c.26,2.51-6.38,4.35-6.71,4.8-1.14,1.56,9.12,4.55,4.56,6.71-.88-2.65-10.35-4.7-5.68-8.08.87-.63,7.3-3.89,7.83-3.43Z" fill="#7e9fc3"/><path d="M126.02,328.85c-.14.19-2.39-2.66-3.94.6s1.55,2.28,2.98,3.96c2.84,3.32-8.25,7.21-2.4,1.43-2.07-1.63-3.93-2.24-2.74-5.14,1.32-3.22,5.38-5.35,6.1-.86Z" fill="#7e9fc3"/><path d="M162.48,271.78c2.46.11.88,3.59,1.96,5.24.37.25,2.61-.24,2.77-.51.1-.16.13-4.85,1.27-2.82.27.48,1.26,6.29,1.2,6.96-3.05,1.77-1.44-2.61-2.17-2.64-.56.27-3,.38-3.11.49-.27.27,1.07,2.5-.24,2.87-.59.16-1.67-.3-1.67-.71v-8.87Z" fill="#7c9cc0"/><path d="M91.44,240.18c.78,1.12-2.39,5.6-3.29,6.43-1.5,1.37-2.81.6-2.31-1.33.27-1.06,2.74-3.04,2.3-3.71-1.29-.29-4.22-2.12-3.83-3.6.46-1.76,2.76.73,3.65,1.14.74.34,3.36.89,3.49,1.07Z" fill="#7fa1c6"/><path d="M59.84,293.6c.05-1.07.98-2.42,0-4.07h1.44c.29,1,.18,6.97.48,7.19.2.14,2.09-.97,3.51-.04,2.64,1.72-1.26,10.59-1.12,1-.34-.4-1.7.77-1.94,1.17-.93,1.58.41,2.61-2.37,2.18.08-2.47-.11-4.97,0-7.43Z" fill="#7c9cc0"/><path d="M236.33,275.14c-1.08.08-7.13-4.49-6.23-5.28,1.19.22,8.43,4.16,8.58,4.63.3.92-2.6,5.3-3.37,6.1-.49.5-.68,1.04-1.61.78-2.79-.79,2.84-5.92,2.63-6.22Z" fill="#7e9fc3"/><path d="M51.69,257.39c1.22,1.31-4.62,4.23-5.27,5.04-.11.46,1.85,2.27,2.29,2.61,1.59,1.23,3.58,1.01,2.98,3.38-1.63.25-2.75-.64-3.99-1.52s-4.52-3.45-4.19-4.9c1.2-.17,7.68-5.15,8.18-4.6Z" fill="#7e9fc3"/><path d="M105.4,364.82c1.06.91-5.49,3.78-6.23,3.84-.65.89,3.85,3.64,3.35,5.27-2.42,1.03-2.28-.92-3.59-1.92-.9-.68-5.47-2.72-3.8-3.87.57-.39,3.97-1.1,5.12-1.52,1.72-.62,3.18-2.04,5.15-1.8Z" fill="#7e9fc3"/><path d="M138.5,275.61c.91-.21,2.35.15,3.36,0,.3,2.51-2.52,2.49-4.32,2.4-.58,2.79,1.15,1.63,1.44,1.92,1.75,1.77-4.52,2.54-5.13,3.3l-1.58-1.38c.07-.06.26-1.09.93-1.69,1.03-.93,4.43-4.34,5.31-4.54Z" fill="#7fa1c6"/><path d="M163.92,334.12c-.24-.24.72-6.34-1.68-5.27-1.74.78-.12,6.97-3.6,5.75.54-1.11.26-6.45.51-6.69.15-.14,3.75-1.04,4.01-1.01,2.65.35,4.72,7.53.76,7.21Z" fill="#7c9cc0"/><path d="M49.29,309.19c1.12.96-5.75,3.93-5.74,4.55.64.68,6.05,3.82,4.78,5.03-.96.93-8.15-3.75-7.64-5.45.16-.52,7.79-4.83,8.6-4.13Z" fill="#7e9fc3"/><path d="M282.86,374.89c-.11-.54.16-1.52,0-1.92.74-.79,2.42-3.09,2.42-4.04,0-.32-5.92-4.03-3.13-4.59.78-.16,5.96,3.56,5.98,4.54.02,1.13-3.05,6.1-4.2,6.44-.68.2-.95-.41-1.07-.43Z" fill="#7fa1c6"/><path d="M156.24,275.14c-1.03.32-5.01-1.7-3.83-2.88.25-.25,6.45,1.62,6.19,3.05-.16.88-6.01,7.86-7.38,7.5-2.77-.71,1.85-3.7,2.17-4.05,1.02-1.12,1.84-2.49,2.85-3.61Z" fill="#7c9cc0"/><path d="M242.09,372.49c-.24.2-1.34.05-1.69-.47-.76-1.14.57-4.7-1.9-4.37-2,.27-1.95,5.11-2.16,5.32-.1.09-1.04-.06-1.43,0,.47-2.41-1.41-4.95.72-6.71l.24,1.44c2.37-3.06,6.07-1.78,6.63,1.8.08.51-.29,2.9-.4,3Z" fill="#7c9cc0"/><path d="M101.57,329.81v.48h-.96c-.55-1.15-1.39-.2-1.92,0-1,.38-3.17,2.44-2.85,3.53.55,1.89,5.51,1.04,5.73,1.26.96,1-.78,1.75-1.72,1.86-3.51.44-6.84-.07-5.86-4.4.31-1.37,2.87-3.31,4.1-3.61,1.06-.26,2.52.39,3.47.87Z" fill="#7fa1c6"/><path d="M264.15,374.41c-2.49-1.1-7.74-1.72-5.63-5.15l7.54-3.96c.53.5-1.75,2.52-2.17,2.86-.93.76-3.44,1.79-3.58,1.94-.78.8.17.81.7.96,1.7.49,3.21.42,4.09,2.39-.13.14.35,1.31-.96.96Z" fill="#7fa1c6"/><path d="M38.73,240.12c.32.35.31,2.71,0,3.35.9.2,3.2-.31,3.77.07.3.2,1.49,4.34.56,5-2.13,1.5-1.22-2.2-1.94-3.62-3.71-.24-.63,3.98-1.44,4.8-.19.19-1.29.07-1.68-.48-1.05-1.5-.68-6.53-.23-8.39.13-.55.16-1.58.95-.72Z" fill="#7e9fc3"/><path d="M34.9,240.61c1.64,1.6-4.6,4.04-4.79,4.32-.72,1.05,5.56,4.04,2.63,4.79-.83.21-4.57-2.61-5.2-3.32-1.76-1.95,6.86-6.29,7.37-5.8Z" fill="#7fa1c6"/><path d="M120.75,275.14c-2.75-3.27-4.83,2.21-4.28,4.03.2.65,1.38.61,1.42,1.05.04.42-.54,4.33-1.69,4.03l-3.13-4.31c2.14.59,1.59-2.79,2.37-4.59,1.71-3.92,6.57-1.88,5.3-.21Z" fill="#7c9cc0"/><path d="M130.82,328.38c1.32,1.57-2.02.18-2.37.49-.08.07-.43,1.87-.39,2.08.33,1.76,8.92,4.97-.59,7.01-.54-1.38,1.56-2.2,1.41-3.05-.19-1.07-3.28-1.97-2.64-4.62.14-.57.98-2.15,1.56-2.34s2.82.18,3.03.43Z" fill="#7e9fc3"/><path d="M75.19,261.23c-1,.18-3.59-1.04-3.36-2.16.58-.75.6-.72,1.45-.51.67.16,4.59,1.6,4.73,2,.54,1.54-2.99,6.82-4.5,6.41-2.61-.7,2.53-4.77,1.67-5.75Z" fill="#7e9fc3"/><path d="M80.4,295.82c.99,1.54-1.82,4.82-2.88,5.87-1.55,1.52-2.77.54-2.25-1.27.27-.94,3.41-2.85,2.8-3.69-1.08-.16-2.07-.57-3.03-1.07-.71-.37-2.06-.77-1.77-1.81,1.02.14,6.92,1.65,7.13,1.98Z" fill="#7e9fc3"/><path d="M62.72,332.68c1.33-.12,6.46,3.76,3.58,4.32-.32.06-5.2-3.08-5.54-3.57-1.99-2.93,6.31-4.52,8.18-5.31-1.54,2.4-4.52,2.61-6.22,4.55Z" fill="#7c9cc0"/><path d="M265.11,373.45c1.8-2.01,4.97-5.57,6.95-7.19.54-.44.77-1.17,1.68-.96.19.88-.28,1.33-.64,1.99-.46.83-5.03,6.96-5.55,7.39-1.89,1.54-2.12.29-3.39-.27,1.31.35.83-.82.96-.96Z" fill="#7e9fc3"/><path d="M107.32,323.1c.41.31-.07,8.74-.02,10.33.02.75,1.25,4.5-.69,4.06-2.5-.57-.21-11.37-.64-13.58l1.35-.8Z" fill="#7fa1c6"/><path d="M73.31,319.21c-.29-.2-2.14-5.76-1.96-6.67l2.63,3.35c1.24-.86.75-4.39,2.87-3.82.71.19.66.83.51,1.45-.34,1.41-2.06,7.09-4.06,5.69Z" fill="#7e9fc3"/><path d="M81.43,318.3c-1.09-1.11,3.07-5.03,2.87-5.27-1.01.14-3.91-1.26-2.87-2.4.21-.24,5.88,1.24,5.56,2.42-.22.85-4.25,6.59-5.57,5.25Z" fill="#7e9fc3"/><path d="M91.5,345.88c.03-.25.5-1.35.72-1.68.38.34,1.2,1.84,1.2,2.16v9.59c0,.83-1.92.83-1.92,0,0-2.99-.38-7.29,0-10.07Z" fill="#7fa1c6"/><path d="M196.04,324.55s-.12.68.37.92c1.01.5,4,.79,3.99,2.18-.01,1.1-4.07,5.54-5.55,5.35-.45-.06-1.31-.98-1.18-1.5.07-.28,4.09-2.95,4.29-3.88.27-1.23-2.94-1.39-2.86-3.08.29.02.81-.08.95,0Z" fill="#7fa1c6"/><path d="M108.62,349.6c.07.03,1.09,1.09,1.1,1.17.22,1.37-3.66,6.25-5.03,5.9-2.34-.6,1.86-5.32,3.11-5.51l-3.36-2.15c.81.26,3.64.39,4.18.6Z" fill="#7fa1c6"/><path d="M84.78,325.01h1.44c.06,2.31-.08,4.64,0,6.95.03.82.49,1.65.5,2.43.01,2.09-2.08,2.36-2.42.45-.19-1.07.13-9.48.48-9.83Z" fill="#7c9cc0"/><path d="M79.51,330.29l.48,5.75c-.86.46-2.24-1.08-2.39-.96-.07.06,0,1.11-.79,1.38-.85.29-2.12-.04-3.06.06l-.48-1.44c.44-.08,1.09.11,1.44,0,1.74-.57,2.58-1.53,2.88-3.36.71-.65,1.63-1.17,1.92-1.44Z" fill="#7fa1c6"/><path d="M84.78,242.05c1.52,1.54-3.15,2.27-3.3,2.45-.3.37.29,2.04-.51,2.61-2.35,1.66-.97-3.65-2.43-5.06,1.13.88,6.01-.23,6.23,0Z" fill="#7e9fc3"/><path d="M70.39,274.66l.96.24c-1.14,1.51-3.27,2.03-4.59,3.11-.59.48-.56,1.31-.68,1.45-.19.2-1.72.09-1.44,1.44-.25-.07-.66.05-.96,0,.04-.15-.04-.33,0-.48.2-.77-.32-1.64.44-2.67.57-.77,3.73-2.08,4.83-3.08h1.44Z" fill="#7390b0"/><path d="M101.08,277.06c.07.06-.15.97.25.97.89,0,2.97-2.3,4.55-.25.13.29-2.41.71-2.92,1.39-.66.89-.16,2.71-1.16,3.16-.22.1-1.12.21-1.19-.28-.22-1.57-.47-3.17-.49-4.75-.05-.42.89-.29.96-.23Z" fill="#7c9cc0"/><path d="M65.6,266.98c-.23-.14-.67-2.97-.49-3.58l1.2-4.57c.87.56.66,1.3.75,2.13.12,1.1,1.19,7.69-1.45,6.01Z" fill="#7fa1c6"/><path d="M70.87,294.32c-.24,1.22.81,7.61-1.19,7.19-1.22-.26-1.27-7.32,1.19-7.19Z" fill="#7390b0"/><path d="M182.87,320.7c.59-.13,1.25.52,1.15,1.14-.04.29-2.61,4.74-3.55,4.61-2.09-1.07,1.63-5.58,2.4-5.75Z" fill="#7e9fc3"/><path d="M66.08,279.45c1.27.17,4.4,3.23,3.35,4.31-.78.81-3.5-2.49-4.79-2.88-.28-1.35,1.25-1.24,1.44-1.44Z" fill="#7fa1c6"/><path d="M141.37,300.08c.21.9-.51,1.14-.96,1.68-2.59,3.12-6.01,5.55-8.88,8.38.87-1.38,2.01-2.87,3.11-4.08,1.39-1.53,3.49-3.74,5.05-5.02.54-.45.78-1.16,1.68-.96Z" fill="#6b6b6b"/><path d="M132.74,278.49c-.84.04-2.17.18-2.88-.24,2.21-1.49,2.74-.73,3.6-3.59,1.36-.27.32,1.21.83,1.82.19.22.8.05.84.09.14.18-.38,1.71-.57,1.84-.38.26-1.29.05-1.83.08Z" fill="#7c9cc0"/><path d="M190.77,360.51c.52.55-1.51,6.14-2.87,4.79-.83-.82,1.52-6.2,2.87-4.79Z" fill="#7c9cc0"/><path d="M127.94,271.3c-.28,1.28.91,5.69-1.19,4.79-1.25-.53-1.35-5.68,1.19-4.79Z" fill="#7c9cc0"/><path d="M163.43,369.13c-.19.19-5.26.22-5.26-.72,0-.58,4.25-1.85,5.05-.74.26.36.32,1.35.21,1.46Z" fill="#7390b0"/><path d="M146.17,271.3c.71.73-1.27,4.61-2.87,4.31-.58-1.12,1.66-5.56,2.87-4.31Z" fill="#7390b0"/><path d="M147.13,323.1c-.86,2.1.55,3.22.48,5.27-.97,1.12-4.25-5.13-.48-5.27Z" fill="#7390b0"/><path d="M188.37,322.14c.35.4-.58,5.36-2.39,4.79-.48-.54.51-5.22,2.39-4.79Z" fill="#7c9cc0"/><path d="M139.46,330.29c1.65,1.69-3.77,2.34-4.79,1.91-.47-1.79,4.59-2.12,4.79-1.91Z" fill="#7390b0"/><path d="M143.29,327.89c-2.56-.2-1.89-3.08-1.91-4.79,1.83-.41,2.24,4.4,1.91,4.79Z" fill="#7c9cc0"/><path d="M71.83,334.61c-.88-3.98,3.12-8.55,1.44-1.92-.65,2.57-.79,1.24-1.44,1.92Z" fill="#7c9cc0"/><path d="M87.83,257.08c-3.56,3.67-6.81,7.95-11.19,10.63l9.56-10.09,3.62-2.61c.13,1.07-1.45,1.52-2,2.08Z" fill="#6b6b6b"/><path d="M138.49,334.13c1.61,1.67-5.12,3.47-4.31,0,.93,1.05,3.95-.37,4.31,0Z" fill="#7390b0"/><path d="M190.78,366.74c-.6-.65,1.72-4.61,2.87-4.79.32.91-1.9,5.85-2.87,4.79Z" fill="#7390b0"/><path d="M130.34,271.78l.49,4.07c-3.07,1.71-1.73-5.64-.49-4.07Z" fill="#7390b0"/><path d="M124.11,278.02c-.03,2.22-2.88,1.28-4.31,1.43-.17-1.79,3.29-1.32,4.31-1.43Z" fill="#7390b0"/><path d="M148.57,271.78c1,3.94-3.29,4.75-1.55,1.08.32-.67.71-1.25,1.55-1.08Z" fill="#7c9cc0"/><path d="M100.61,349.47c-1.27-.02-3.84-.13-3.83-1.91.18-.15,4.34.37,3.83,1.91Z" fill="#7390b0"/><path d="M166.79,366.26c-1.46.41-2.33-2.87-1.91-3.35,1.46-.41,2.33,2.87,1.91,3.35Z" fill="#7390b0"/><path d="M162,371.06c-.67,1.67-2.29,1.54-3.83,1.43-.24-1.83,2.76-1.36,3.83-1.43Z" fill="#7390b0"/><path d="M71.35,272.73c-.75-.77,3.51-3.84,4.08-4.3.13.93-3.46,4.94-4.08,4.3Z" fill="#6b6b6b"/><rect x="96.29" y="352.35" width="1.43" height="2.88" fill="#7390b0"/><path d="M245.45,291.44c-.38.29-2.67,3.07-3.35,2.4-.81-.8,2.44-2.51,2.88-2.88l.48.48Z" fill="#6b6b6b"/><path d="M170.63,366.26c-1.05,1.13-2.37-3.08-.72-3.83-.02.56.85,3.69.72,3.83Z" fill="#7390b0"/><path d="M162,253.55c-.25-.23,2.13-2.51,2.87-2.16-.3.7-1.98,3-2.87,2.16Z" fill="#7c7d7e"/><path d="M101.57,329.81c3.8,1.93.62,3.09,0,.48v-.48Z" fill="#7390b0"/><path d="M70.39,274.66h-1.44c.1-.09.41-1.66,1.68-1.91l-.24,1.91Z" fill="#6b6b6b"/><path d="M100.61,330.29h-1.92c.52-.2,1.37-1.15,1.92,0Z" fill="#7390b0"/><path d="M241.61,293.84c.81.81-.75.96-1.2,1.43-.18-.73.55-2.08,1.2-1.43Z" fill="#6b6b6b"/><path d="M168.71,246.84l-3.35,3.83c-.25-.92.56-1.13.96-1.67.25-.34,1.87-2.69,2.39-2.16Z" fill="#7c7d7e"/><path d="M63.68,280.89c-.22.78-2.83,3.27-3.83,3.6l3.83-4.08c-.04.15.04.33,0,.48Z" fill="#6b6b6b"/><path d="M169.67,245.88c.33.17-.28.81-.95.47-.33-.17.28-.81.95-.47Z" fill="#7c7d7e"/><path d="M90.3,254.03c.31.16.31.32,0,.48v-.48Z" fill="#6b6b6b"/><path d="M91.26,253.55c.31.16.31.32,0,.48v-.48Z" fill="#6b6b6b"/><path d="M149.53,370.1c2.51.12,2.48-3.71,3.75-5.61,1.91-2.86,4.17-3.09,5.84.1-1.5-.25-2.51-1.6-3.77.05-.9,1.18-2.92,5.74-.05,4.99-.18.91-1.64.93-1.87,1.75s1.71,4.67-1.49,2.81c-1.25-.73-.19-3.31-2.39-3.6.06-.06-.04-.32,0-.48Z" fill="#7e9fc3"/><path d="M239.45,295.28c.31.16.31.32,0,.48v-.48Z" fill="#6b6b6b"/><path d="M232.91,366.8c1.34,2.2-3.57,4.08-5.21,4.26.56,2.22,2.4,2.03,4.31,1.67-5.65,7.05-10.1-6.24-2.58-6.95.7-.07,3.27.68,3.48,1.02ZM231.06,367.22c-.7-.72-4.53,1.18-3.35,2.39.4.42,4.59-1.12,3.35-2.39Z" fill="#7c9cc0"/><path d="M178.65,154.37c.62-.13,1.13-.14,1.75-.07,4.68.48,12.27,2.44,17.08,3.57,3.54.83,17.58,3.92,18.22,7.7,1.03,6.11-6.03,1.28-8.16.46-8.7-3.32-18.15-4.76-27.21-6.84-1.2-.28-3.05.26-3.72-1.08-.87-1.73.28-3.37,2.03-3.75Z" fill="#614f3d"/><path d="M142.7,176.46c2.47,2.48-3.95,7.03-6,7.91-4.63,1.99-11.85,1.14-15.48-2.5-4.13-4.15.05-7.22,2.7-5.1.88.71.28,1.92,2.4,2.88,3.17,1.43,6.16,1.29,9.16-.33,1.83-.99,5.02-5.05,7.22-2.86Z" fill="#614f3d"/><path d="M255.04,167.23c-2.6.26-2.28,5.34-5.76,3.6s1.59-7.21,3.4-8.6,9.46-5.64,10.04-1.45c.43,3.14-3.7,2.87-3.8,3.8-.13,1.22,2.66,5.59.23,7.49-3.07,2.39-4.28-2.52-4.12-4.84Z" fill="#614f3d"/><path d="M195.57,110.63c-2.01.04-2.88-2.28-4.44-2.99l-4.18-1.32c3.61-1.42,7.59.56,8.63,4.31Z" fill="#614f3d"/><path d="M82.86,112.56c-1.35,2.17-3.75,3.61-5.47,5.32-.52.52-1.53,3.38-2.68,2.35-.35-.31,1.58-2.68,1.93-3.1,1.38-1.66,4-4.78,6.22-4.56Z" fill="#6b6b6b"/><path d="M74.71,335.09c.18-1.6,1.83-2.38,2.88-3.36-.29,1.83-1.14,2.78-2.88,3.36Z" fill="#34393f"/><path d="M66.07,312.55c.33.3-2.19,7.12-3.35,5.75-.91-1.47,1.84-7.13,3.35-5.75Z" fill="#34393f"/><path d="M143.29,371.53c.76-1.45.58-3.39,2.63-3.4,3.83-.01-.31,4.16-2.63,3.4Z" fill="#34393f"/><path d="M154.8,327.89c.3.25-.67,7.15-3.83,5.53-2.93-1.5,1.72-7.32,3.83-5.53Z" fill="#34393f"/><path d="M223.73,273.3c1.01-.2,1.97-.12,2.05,1.1-1.41.74-2.93,5.86-4.54,5.53-1.8-.38-.34-6.06,2.5-6.63Z" fill="#34393f"/><path d="M178.3,368.66c.25,1.13-.16.77-.62,1.07-1.82,1.2-2.54,1.25-2.74-1.07h3.35Z" fill="#34393f"/><path d="M171.11,334.12c-.14-2.46-.05-4.63,2.98-4.22,5.18.69.13,4.6-2.98,4.22Z" fill="#34393f"/><path d="M279.5,367.22c-.56,3.21-1.41,6.31-5.27,6.23-.53-.51,3.41-6.83,5.27-6.23Z" fill="#34393f"/><path d="M78.55,277.53c-2.78.33-1.85,4.45-4.79,4.32-.42-2.57,2.3-7.43,4.79-4.32Z" fill="#34393f"/><path d="M112.12,335.56c-.27-1.58.87-6.23,3.1-5.75.93.2.52.66.26,1.2-.77,1.59-1.81,3.67-3.37,4.55Z" fill="#34393f"/><path d="M195.69,275.26c1.73-2.01,5.45.94,3.75,3.5-2.88,4.34-5.91-1-3.75-3.5Z" fill="#34393f"/><path d="M110.2,367.7c.57.47-2.98,4.6-3.83,4.79.1-2.43.85-5.62,3.83-4.79Z" fill="#34393f"/><path d="M49.77,243.48c1.11,1.11-2.23,2.99-3.35,2.39-.01-1.16,2.66-3.08,3.35-2.39Z" fill="#34393f"/><path d="M67.03,245.88c-6.26,1.7-3.91-4.44-.72-1.44.48.45.88.67.72,1.44Z" fill="#34393f"/><path d="M231.06,367.22c1.24,1.27-2.95,2.81-3.35,2.39-1.17-1.22,2.65-3.11,3.35-2.39Z" fill="#34393f"/><path d="M53.61,247.8c-.38-.41.81-4.06,2.15-3.83,1.96.41-1.49,4.55-2.15,3.83Z" fill="#34393f"/></g></svg>