<svg width="272" height="272" viewBox="0 0 272 272" fill="none" xmlns="http://www.w3.org/2000/svg">
<rect x="1" y="1" width="78" height="78" fill="#5452FF" stroke="black" stroke-width="2"/>
<path d="M40 16L48.4641 28.3502L62.8254 32.5836L53.6952 44.4498L54.1068 59.4164L40 54.4L25.8932 59.4164L26.3048 44.4498L17.1746 32.5836L31.5359 28.3502L40 16Z" fill="#FFC600"/>
<rect x="97" y="1" width="78" height="78" fill="#F24D1D" stroke="black" stroke-width="2"/>
<path d="M136 18C148.15 18 158 27.8497 158 40C158 52.1503 148.15 62 136 62H114V40C114 27.8497 123.85 18 136 18Z" fill="#20A65A" stroke="black" stroke-width="2"/>
<rect x="193" y="1" width="78" height="78" fill="#5452FF" stroke="black" stroke-width="2"/>
<rect x="210" y="18" width="44" height="44" rx="8" fill="#FFC600"/>
<rect x="222" y="33" width="21" height="2" fill="#1E1E1E"/>
<rect x="222" y="44" width="21" height="2" fill="#1E1E1E"/>
<rect x="226" y="50" width="21" height="2" transform="rotate(-90 226 50)" fill="#1E1E1E"/>
<rect x="237" y="50" width="21" height="2" transform="rotate(-90 237 50)" fill="#1E1E1E"/>
<rect x="1" y="97" width="78" height="78" fill="#FFC600" stroke="black" stroke-width="2"/>
<path d="M28 117H79V175H21V124C21 120.134 24.134 117 28 117Z" fill="#F24D1D" stroke="black" stroke-width="2"/>
<rect x="21" y="137" width="58" height="38" fill="#5452FF" stroke="black" stroke-width="2"/>
<rect x="97" y="97" width="78" height="78" fill="#1E1E1E" stroke="black" stroke-width="2"/>
<path d="M129 115H136V129H129C125.134 129 122 125.866 122 122C122 118.134 125.134 115 129 115Z" stroke="white" stroke-width="2"/>
<path d="M129 129H136V143H129C125.134 143 122 139.866 122 136C122 132.134 125.134 129 129 129Z" stroke="white" stroke-width="2"/>
<path d="M129 143H136V150C136 153.866 132.866 157 129 157C125.134 157 122 153.866 122 150C122 146.134 125.134 143 129 143Z" stroke="white" stroke-width="2"/>
<path d="M143 115C146.866 115 150 118.134 150 122C150 125.866 146.866 129 143 129H136V115H143Z" stroke="white" stroke-width="2"/>
<rect x="136" y="129" width="14" height="14" rx="7" stroke="white" stroke-width="2"/>
<rect x="136" y="129" width="2" height="2" fill="white"/>
<rect x="193" y="97" width="78" height="78" fill="#FFC600" stroke="black" stroke-width="2"/>
<path d="M250.242 134.597L236.487 141.003L236.156 141.157L236.003 141.487L229.597 155.243L216.394 121.394L250.242 134.597Z" fill="#20A65A" stroke="black" stroke-width="2"/>
<rect x="1" y="193" width="78" height="78" fill="#F24D1D" stroke="black" stroke-width="2"/>
<mask id="path-24-inside-1_1_286" fill="white">
<path fill-rule="evenodd" clip-rule="evenodd" d="M15 232C20.3627 222.359 29.5574 216 40 216C50.4426 216 59.6373 222.359 65 232C59.6373 241.641 50.4426 248 40 248C29.5574 248 20.3627 241.641 15 232Z"/>
</mask>
<path fill-rule="evenodd" clip-rule="evenodd" d="M15 232C20.3627 222.359 29.5574 216 40 216C50.4426 216 59.6373 222.359 65 232C59.6373 241.641 50.4426 248 40 248C29.5574 248 20.3627 241.641 15 232Z" fill="#20A65A"/>
<path d="M15 232L13.2522 231.028L12.7114 232L13.2522 232.972L15 232ZM65 232L66.7478 232.972L67.2886 232L66.7478 231.028L65 232ZM16.7478 232.972C21.8319 223.832 30.4243 218 40 218V214C28.6905 214 18.8935 220.885 13.2522 231.028L16.7478 232.972ZM40 218C49.5757 218 58.1681 223.832 63.2522 232.972L66.7478 231.028C61.1065 220.885 51.3095 214 40 214V218ZM63.2522 231.028C58.1681 240.168 49.5757 246 40 246V250C51.3095 250 61.1065 243.115 66.7478 232.972L63.2522 231.028ZM40 246C30.4243 246 21.8319 240.168 16.7478 231.028L13.2522 232.972C18.8935 243.115 28.6905 250 40 250V246Z" fill="black" mask="url(#path-24-inside-1_1_286)"/>
<circle cx="39.5" cy="232.5" r="7.5" fill="black"/>
<rect x="97" y="193" width="78" height="78" fill="#20A65A" stroke="black" stroke-width="2"/>
<circle cx="136" cy="232" r="21" fill="black" stroke="#FFC600" stroke-width="6"/>
<rect x="193" y="193" width="78" height="78" fill="#F24D1D" stroke="black" stroke-width="2"/>
<mask id="path-30-inside-2_1_286" fill="white">
<path fill-rule="evenodd" clip-rule="evenodd" d="M222.5 208C226.377 208 229.898 209.522 232.5 212C235.102 209.522 238.623 208 242.5 208C250.508 208 257 214.492 257 222.5C257 226.134 255.663 229.455 253.455 232C255.663 234.545 257 237.866 257 241.5C257 249.508 250.508 256 242.5 256C238.623 256 235.102 254.478 232.5 252C229.898 254.478 226.377 256 222.5 256C214.492 256 208 249.508 208 241.5C208 237.866 209.337 234.545 211.545 232C209.337 229.455 208 226.134 208 222.5C208 214.492 214.492 208 222.5 208Z"/>
</mask>
<path fill-rule="evenodd" clip-rule="evenodd" d="M222.5 208C226.377 208 229.898 209.522 232.5 212C235.102 209.522 238.623 208 242.5 208C250.508 208 257 214.492 257 222.5C257 226.134 255.663 229.455 253.455 232C255.663 234.545 257 237.866 257 241.5C257 249.508 250.508 256 242.5 256C238.623 256 235.102 254.478 232.5 252C229.898 254.478 226.377 256 222.5 256C214.492 256 208 249.508 208 241.5C208 237.866 209.337 234.545 211.545 232C209.337 229.455 208 226.134 208 222.5C208 214.492 214.492 208 222.5 208Z" fill="#FFC600"/>
<path d="M232.5 212L231.12 213.448L232.5 214.762L233.88 213.448L232.5 212ZM253.455 232L251.944 230.689L250.806 232L251.944 233.311L253.455 232ZM232.5 252L233.88 250.552L232.5 249.238L231.12 250.552L232.5 252ZM211.545 232L213.056 233.311L214.194 232L213.056 230.689L211.545 232ZM233.88 210.552C230.921 207.733 226.911 206 222.5 206V210C225.843 210 228.876 211.31 231.12 213.448L233.88 210.552ZM242.5 206C238.089 206 234.079 207.733 231.12 210.552L233.88 213.448C236.124 211.31 239.157 210 242.5 210V206ZM259 222.5C259 213.387 251.613 206 242.5 206V210C249.404 210 255 215.596 255 222.5H259ZM254.965 233.311C257.477 230.417 259 226.634 259 222.5H255C255 225.634 253.849 228.494 251.944 230.689L254.965 233.311ZM251.944 233.311C253.849 235.506 255 238.366 255 241.5H259C259 237.366 257.477 233.583 254.965 230.689L251.944 233.311ZM255 241.5C255 248.404 249.404 254 242.5 254V258C251.613 258 259 250.613 259 241.5H255ZM242.5 254C239.157 254 236.124 252.69 233.88 250.552L231.12 253.448C234.079 256.267 238.089 258 242.5 258V254ZM222.5 258C226.911 258 230.921 256.267 233.88 253.448L231.12 250.552C228.876 252.69 225.843 254 222.5 254V258ZM206 241.5C206 250.613 213.387 258 222.5 258V254C215.596 254 210 248.404 210 241.5H206ZM210.035 230.689C207.523 233.583 206 237.366 206 241.5H210C210 238.366 211.151 235.506 213.056 233.311L210.035 230.689ZM206 222.5C206 226.634 207.523 230.417 210.035 233.311L213.056 230.689C211.151 228.494 210 225.634 210 222.5H206ZM222.5 206C213.387 206 206 213.387 206 222.5H210C210 215.596 215.596 210 222.5 210V206Z" fill="black" mask="url(#path-30-inside-2_1_286)"/>
</svg>
