<svg width="92" height="134" viewBox="0 0 92 134" fill="none" xmlns="http://www.w3.org/2000/svg">
<path d="M67.5228 0.162781C80.6511 0.162891 91.2933 10.8059 91.2933 23.9343C91.2932 33.4677 85.6803 41.688 77.5795 45.4763C85.6805 49.2645 91.2932 57.4856 91.2933 67.0192C91.2933 80.1476 80.6511 90.7906 67.5228 90.7907C59.3517 90.7907 52.1442 86.6672 47.8656 80.3884V110.229C47.8654 123.357 37.2232 133.999 24.0951 134C10.9668 134 0.323756 123.357 0.323608 110.229C0.323608 100.644 5.9968 92.3843 14.1683 88.6237C5.99699 84.8631 0.323608 76.6041 0.323608 67.0192C0.323697 57.4861 5.93608 49.2647 14.0365 45.4763C5.9363 41.6878 0.323766 33.4672 0.323608 23.9343C0.323608 10.8059 10.9667 0.162781 24.0951 0.162781H67.5228ZM24.0951 91.029C13.4914 91.029 4.8949 99.6255 4.8949 110.229C4.89504 120.833 13.4915 129.428 24.0951 129.428C34.6985 129.428 43.2942 120.833 43.2943 110.229V91.029H24.0951ZM24.0951 47.82C13.4915 47.82 4.89502 56.4156 4.8949 67.0192C4.8949 77.6229 13.4914 86.2194 24.0951 86.2194H43.2943V47.82H24.0951ZM67.5228 47.82C56.9192 47.82 48.3228 56.4156 48.3226 67.0192C48.3226 77.6229 56.9191 86.2194 67.5228 86.2194C78.1264 86.2193 86.722 77.6229 86.722 67.0192C86.7219 56.4157 78.1264 47.8201 67.5228 47.82ZM24.0951 4.73407C13.4914 4.73407 4.8949 13.3306 4.8949 23.9343C4.89511 34.5378 13.4915 43.1335 24.0951 43.1335H43.2943V4.73407H24.0951ZM48.3226 43.1335H67.5228C78.1263 43.1334 86.7218 34.5377 86.722 23.9343C86.722 13.3306 78.1264 4.73418 67.5228 4.73407H48.3226V43.1335Z" fill="white"/>
</svg>
