<svg width="226" height="61" viewBox="0 0 226 61" fill="none" xmlns="http://www.w3.org/2000/svg">
<g clip-path="url(#clip0_92_2270)">
<path d="M31.0757 57.0681C27.6759 57.6644 24.2164 57.8431 20.6377 58.3192L9.72219 26.3898V59.6896C6.32248 60.0469 3.22094 60.5234 0 61V0H9.06648L21.4726 34.6109V0H31.0757V57.0681ZM49.8643 22.3389C53.5627 22.3389 59.229 22.1601 62.6287 22.1601V31.6912C58.3936 31.6912 53.4433 31.6912 49.8643 31.8699V46.0479C55.4713 45.6906 61.078 45.2136 66.7442 45.0348V54.2081L40.3207 56.2936V0H66.7442V9.53126H49.8643V22.3389ZM102.234 9.53148H92.3325V53.3752C89.1115 53.3752 85.8906 53.3752 82.7895 53.494V9.53148H72.8883V0H102.234L102.234 9.53148ZM117.742 21.6838H130.804V31.2148H117.742V52.8391H108.376V0H135.039V9.53126H117.742V21.6838ZM150.547 44.499C155.975 44.6178 161.462 45.0355 166.771 45.3329V54.7451C158.242 54.2086 149.712 53.6732 141.004 53.494V0H150.547V44.499ZM174.823 55.4004C177.865 55.5794 181.086 55.7581 184.188 56.115V0H174.823V55.4004ZM226 0L213.892 29.0108L226 61C222.421 60.5234 218.842 59.8681 215.263 59.2723L208.404 41.6399L201.426 57.8431C197.966 57.2469 194.626 57.0681 191.167 56.5916L203.454 28.6531L192.36 0H202.618L208.881 16.0245L215.562 0L226 0Z" fill="#D81F26"/>
</g>
<defs>
<clipPath id="clip0_92_2270">
<rect width="226" height="61" fill="white"/>
</clipPath>
</defs>
</svg>
