<?xml version="1.0" encoding="UTF-8"?><svg id="Layer_1" xmlns="http://www.w3.org/2000/svg" viewBox="0 0 24 24"><path d="M19.17,11.63c0-.78.55-1.74,1.23-2.13l.28-.16c.68-.39.91-1.26.52-1.94l-.62-1.08c-.39-.68-1.26-.91-1.94-.52l-.28.16c-.68.39-1.78.39-2.45,0l-.64-.37c-.68-.39-1.23-1.35-1.23-2.13v-.33c0-.78-.64-1.42-1.42-1.42h-1.24c-.78,0-1.42.64-1.42,1.42v.33c0,.78-.55,1.74-1.23,2.13l-.64.37c-.68.39-1.78.39-2.45,0l-.28-.16c-.68-.39-1.55-.16-1.94.52l-.62,1.08c-.39.68-.16,1.55.52,1.94l.28.16c.68.39,1.23,1.35,1.23,2.13v.74c0,.78-.55,1.74-1.23,2.13l-.28.16c-.68.39-.91,1.26-.52,1.94l.62,1.08c.39.68,1.26.91,1.94.52l.28-.16c.68-.39,1.78-.39,2.45,0l.64.37c.68.39,1.23,1.35,1.23,2.13v.33c0,.78.64,1.42,1.42,1.42h1.24c.78,0,1.42-.64,1.42-1.42v-.33c0-.78.55-1.74,1.23-2.13l.64-.37c.68-.39,1.78-.39,2.45,0l.28.16c.68.39,1.55.16,1.94-.52l.62-1.08c.39-.68.16-1.55-.52-1.94l-.28-.16c-.68-.39-1.23-1.35-1.23-2.13v-.74ZM12.79,15.37c-2.53.56-4.73-1.64-4.17-4.17.28-1.27,1.31-2.3,2.58-2.58,2.53-.56,4.73,1.64,4.17,4.17-.28,1.27-1.31,2.3-2.58,2.58Z" style="fill:#363940;"/></svg>