<?xml version="1.0" encoding="UTF-8"?><svg id="Layer_1" xmlns="http://www.w3.org/2000/svg" viewBox="0 0 24 24"><path d="M21.79,10.03c0-2.37-1.76-4.32-4.05-4.64-.23-.67-.86-1.16-1.62-1.16H5.7c-.88,0-1.59.71-1.59,1.59v7.97c0,1.81,1.47,3.28,3.28,3.28h7.18c1.51,0,2.76-1.02,3.15-2.41,2.3-.31,4.08-2.26,4.08-4.64ZM17.84,12.62v-5.17c1.12.33,1.95,1.36,1.95,2.58s-.83,2.25-1.95,2.58Z" style="fill:gold;"/><path d="M17.84,20.81H4.51c-.55,0-1-.45-1-1s.45-1,1-1h13.33c.55,0,1,.45,1,1s-.45,1-1,1Z" style="fill:gold;"/></svg>