<?xml version="1.0" encoding="UTF-8"?><svg id="Layer_1" xmlns="http://www.w3.org/2000/svg" viewBox="0 0 24 24"><path d="M18.67,18.81H5.33c-.55,0-1,.45-1,1s.45,1,1,1h13.33c.55,0,1-.45,1-1s-.45-1-1-1Z" style="fill:#363940;"/><path d="M11.03,6.9c0,.28.22.5.5.5h.95c.28,0,.5-.22.5-.5s-.22-.5-.5-.5h-.95c-.28,0-.5.22-.5.5Z" style="fill:#363940;"/><path d="M21.14,10.41L12.71,1.98c-.38-.38-1.04-.38-1.41,0L2.86,10.41c-.39.39-.39,1.02,0,1.41s1.02.39,1.41,0l.86-.86v3.49c0,1.44,1.17,2.62,2.62,2.62h8.5c1.44,0,2.62-1.17,2.62-2.62v-3.49l.86.86c.2.2.45.29.71.29s.51-.1.71-.29c.39-.39.39-1.02,0-1.41ZM7.87,8.23l4.13-4.13,4.13,4.13H7.87Z" style="fill:#363940;"/></svg>