<?xml version="1.0" encoding="UTF-8"?><svg id="Layer_1" xmlns="http://www.w3.org/2000/svg" viewBox="0 0 24 24"><path d="M12,2.32c-3.4,0-6.16,2.76-6.16,6.16,0,1.26.38,2.43,1.03,3.41,0,0,0,0,0,0,.1.14.2.28.31.42.01.01.08.1.1.13.89,1.11,2.32,2.49,3.83,3.92.48.5,1.28.5,1.76,0,1.66-1.5,3.17-2.95,4.08-4.23.08-.1.15-.21.22-.32,0-.01.03-.04.03-.04.6-.95.96-2.08.96-3.29,0-3.4-2.76-6.16-6.16-6.16ZM12.07,12.62c-2.35,0-4.26-1.91-4.26-4.26s1.91-4.26,4.26-4.26,4.26,1.91,4.26,4.26-1.91,4.26-4.26,4.26Z" style="fill:#363940;"/><path d="M16.95,14.92c1.08,0,2,.79,2.16,1.86l.47,3.17c.13.91-.57,1.73-1.49,1.73H5.85c-.92,0-1.63-.82-1.49-1.73l.47-3.17c.16-1.07,1.08-1.86,2.16-1.86" style="fill:none; stroke:#363940; stroke-linecap:round; stroke-miterlimit:10; stroke-width:1.5px;"/><line x1="7.81" y1="18.86" x2="15.92" y2="18.86" style="fill:none; stroke:#363940; stroke-linecap:round; stroke-linejoin:round;"/></svg>