<?xml version="1.0" encoding="UTF-8"?><svg id="Layer_1" xmlns="http://www.w3.org/2000/svg" viewBox="0 0 24 24"><path d="M12,12.47c-2.79,0-5.05-2.27-5.05-5.05s2.27-5.05,5.05-5.05,5.05,2.27,5.05,5.05-2.27,5.05-5.05,5.05ZM12,3.87c-1.96,0-3.55,1.59-3.55,3.55s1.59,3.55,3.55,3.55,3.55-1.59,3.55-3.55-1.59-3.55-3.55-3.55Z" style="fill:#363940;"/><path d="M21.23,21.63c-.41,0-.75-.34-.75-.75,0-3.29-2.68-5.97-5.97-5.97h-5.15c-3.29,0-5.97,2.68-5.97,5.97,0,.41-.34.75-.75.75s-.75-.34-.75-.75c0-4.12,3.35-7.47,7.47-7.47h5.15c4.12,0,7.47,3.35,7.47,7.47,0,.41-.34.75-.75.75Z" style="fill:#363940;"/></svg>