<?xml version="1.0" encoding="UTF-8"?><svg id="Layer_1" xmlns="http://www.w3.org/2000/svg" viewBox="0 0 24 24"><path d="M19.98,2.37H4.26c-.95,0-1.72.77-1.72,1.72v15.73c0,.95.77,1.72,1.72,1.72h15.73c.95,0,1.72-.77,1.72-1.72V4.09c0-.95-.77-1.72-1.72-1.72ZM15.38,7.73h3.12c.28,0,.5.22.5.5s-.22.5-.5.5h-3.12c-.28,0-.5-.22-.5-.5s.22-.5.5-.5ZM15.38,9.93h3.12c.28,0,.5.22.5.5s-.22.5-.5.5h-3.12c-.28,0-.5-.22-.5-.5s.22-.5.5-.5ZM5.19,5.49c0-.6.49-1.1,1.1-1.1h5.48c.6,0,1.1.49,1.1,1.1v4.72c0,.6-.49,1.1-1.1,1.1h-5.48c-.6,0-1.1-.49-1.1-1.1v-4.72ZM18.51,19.32H6.19c-.55,0-1-.45-1-1s.45-1,1-1h12.32c.55,0,1,.45,1,1s-.45,1-1,1ZM18.51,15.54H6.19c-.55,0-1-.45-1-1s.45-1,1-1h12.32c.55,0,1,.45,1,1s-.45,1-1,1Z" style="fill:#363940;"/></svg>