<?xml version="1.0" encoding="UTF-8"?><svg id="Layer_1" xmlns="http://www.w3.org/2000/svg" viewBox="0 0 24 24"><path d="M20.78,5.95c0-.28-.22-.5-.5-.5h-5.57c-.28,0-.5.22-.5.5s.22.5.5.5h4.29l-6.65,6.44-3.78-3.85c-.09-.1-.22-.15-.36-.15s-.26.05-.36.15l-5.08,5.2c-.19.2-.19.51,0,.71.1.09.22.14.35.14s.26-.05.36-.15l4.73-4.83,3.77,3.84c.19.2.51.2.7,0l7.09-6.86v1.75l-7.25,6.83c-.15.14-.4.14-.54-.01l-3.45-3.58c-.21-.22-.55-.22-.76,0l-4.58,4.51c-.26.26-.41.61-.41.97v2.41c0,1,.81,1.81,1.81,1.81h14.37c1,0,1.81-.81,1.81-1.81v-8.44s0,0,0,0v-5.57Z" style="fill:#363940;"/></svg>