<?xml version="1.0" encoding="UTF-8"?><svg id="Layer_1" xmlns="http://www.w3.org/2000/svg" viewBox="0 0 24 24"><path d="M14.92,16.25h-5.61c-.55,0-1,.45-1,1s.45,1,1,1h5.61c.55,0,1-.45,1-1s-.45-1-1-1Z" style="fill:#37393f;"/><path d="M20.78,11.21l-.6-5.84c0-.55-.45-1-1-1H4.82c-.55,0-1,.45-1,1l-.6,5.84c0,.8.44,1.5,1.08,1.88v5.59c0,1.76,1.44,3.2,3.2,3.2h9.34c1.76,0,3.2-1.43,3.2-3.2v-5.84c.45-.4.74-.98.74-1.63ZM16.84,19.88H7.5c-.66,0-1.2-.54-1.2-1.2v-5.47c.77-.34,1.31-1.11,1.31-2,0,1.21.98,2.19,2.19,2.19s2.19-.98,2.19-2.19c0,1.21.98,2.19,2.19,2.19s2.19-.98,2.19-2.19c0,1.02.7,1.88,1.65,2.12v5.35c0,.66-.54,1.2-1.2,1.2Z" style="fill:#37393f;"/></svg>