<?xml version="1.0" encoding="UTF-8"?><svg id="Layer_1" xmlns="http://www.w3.org/2000/svg" viewBox="0 0 24 24"><path d="M19.45,18.6c1.78-2.01,2.78-4.74,2.46-7.7-.47-4.37-3.88-8.02-8.22-8.73C6.89,1.06,1.1,6.83,2.16,13.62c.67,4.26,4.16,7.65,8.43,8.25,2.34.33,4.54-.18,6.37-1.24.14-.08.3-.09.44-.02l2.28,1.1c.19.09.4-.08.34-.28l-.67-2.38c-.04-.16,0-.32.1-.44ZM17.97,10.98l-3.02,2.2c-.21.15-.29.42-.21.66l1.16,3.55c.1.31-.26.57-.52.38l-3.02-2.2c-.21-.15-.49-.15-.69,0l-3.02,2.2c-.26.19-.62-.07-.52-.38l1.16-3.55c.08-.24,0-.51-.21-.66l-3.02-2.2c-.26-.19-.13-.61.2-.61h3.74c.26,0,.48-.16.56-.41l1.16-3.55c.1-.31.54-.31.64,0l1.16,3.55c.08.24.31.41.56.41h3.74c.33,0,.46.42.2.61Z" style="fill:#363940;"/></svg>